<svg width="23" height="22" viewBox="0 0 23 22" fill="none" xmlns="http://www.w3.org/2000/svg">
    <path d="M3.16587 8.5562C2.64462 7.91231 1.70009 7.81289 1.0562 8.33413C0.412312 8.85538 0.312888 9.79991 0.834133 10.4438L3.16587 8.5562ZM10.5 20L9.33413 20.9438C9.64084 21.3227 10.1125 21.5289 10.5989 21.4967C11.0853 21.4646 11.5257 21.1981 11.7799 20.7822L10.5 20ZM22.7799 2.78218C23.2119 2.07529 22.9891 1.15206 22.2822 0.720077C21.5753 0.288094 20.6521 0.510943 20.2201 1.21782L22.7799 2.78218ZM0.834133 10.4438L9.33413 20.9438L11.6659 19.0562L3.16587 8.5562L0.834133 10.4438ZM11.7799 20.7822L22.7799 2.78218L20.2201 1.21782L9.22008 19.2178L11.7799 20.7822Z"
          fill="#F2F2F2"/>
</svg>
