<svg width="31" height="31" viewBox="0 0 31 31" fill="none" xmlns="http://www.w3.org/2000/svg">
    <rect width="31" height="31" rx="15.5" fill="#6195FA"/>
    <path d="M11 24C11 24.8284 11.6716 25.5 12.5 25.5C13.3284 25.5 14 24.8284 14 24H11ZM10 13.6111C9.17157 13.6111 8.5 14.2827 8.5 15.1111C8.5 15.9395 9.17157 16.6111 10 16.6111V13.6111ZM10 17.5C9.17157 17.5 8.5 18.1716 8.5 19C8.5 19.8284 9.17157 20.5 10 20.5V17.5ZM19 20.5C19.8284 20.5 20.5 19.8284 20.5 19C20.5 18.1716 19.8284 17.5 19 17.5V20.5ZM13.2273 9.5H16.9444V6.5H13.2273V9.5ZM11 8.72727V15.1111H14V8.72727H11ZM16.9444 13.6111H12.5V16.6111H16.9444V13.6111ZM12.5 15.1111C11 15.1111 11 15.1111 11 15.1111C11 15.1112 11 15.1112 11 15.1112C11 15.1112 11 15.1113 11 15.1113C11 15.1114 11 15.1114 11 15.1115C11 15.1116 11 15.1116 11 15.1117C11 15.1118 11 15.1119 11 15.112C11 15.1121 11 15.1122 11 15.1123C11 15.1124 11 15.1125 11 15.1127C11 15.1128 11 15.1129 11 15.1131C11 15.1132 11 15.1134 11 15.1136C11 15.1137 11 15.1139 11 15.1141C11 15.1142 11 15.1144 11 15.1146C11 15.1148 11 15.115 11 15.1152C11 15.1154 11 15.1157 11 15.1159C11 15.1161 11 15.1163 11 15.1166C11 15.1168 11 15.1171 11 15.1173C11 15.1176 11 15.1179 11 15.1181C11 15.1184 11 15.1187 11 15.119C11 15.1193 11 15.1196 11 15.1199C11 15.1202 11 15.1205 11 15.1208C11 15.1211 11 15.1215 11 15.1218C11 15.1221 11 15.1225 11 15.1228C11 15.1232 11 15.1235 11 15.1239C11 15.1243 11 15.1247 11 15.125C11 15.1254 11 15.1258 11 15.1262C11 15.1266 11 15.127 11 15.1274C11 15.1278 11 15.1283 11 15.1287C11 15.1291 11 15.1296 11 15.13C11 15.1305 11 15.1309 11 15.1314C11 15.1318 11 15.1323 11 15.1328C11 15.1332 11 15.1337 11 15.1342C11 15.1347 11 15.1352 11 15.1357C11 15.1362 11 15.1367 11 15.1373C11 15.1378 11 15.1383 11 15.1388C11 15.1394 11 15.1399 11 15.1405C11 15.141 11 15.1416 11 15.1422C11 15.1427 11 15.1433 11 15.1439C11 15.1445 11 15.145 11 15.1456C11 15.1462 11 15.1468 11 15.1475C11 15.1481 11 15.1487 11 15.1493C11 15.1499 11 15.1506 11 15.1512C11 15.1519 11 15.1525 11 15.1532C11 15.1538 11 15.1545 11 15.1552C11 15.1558 11 15.1565 11 15.1572C11 15.1579 11 15.1586 11 15.1593C11 15.16 11 15.1607 11 15.1614C11 15.1621 11 15.1628 11 15.1636C11 15.1643 11 15.165 11 15.1658C11 15.1665 11 15.1673 11 15.168C11 15.1688 11 15.1695 11 15.1703C11 15.1711 11 15.1719 11 15.1727C11 15.1735 11 15.1742 11 15.175C11 15.1759 11 15.1767 11 15.1775C11 15.1783 11 15.1791 11 15.18C11 15.1808 11 15.1816 11 15.1825C11 15.1833 11 15.1842 11 15.185C11 15.1859 11 15.1868 11 15.1876C11 15.1885 11 15.1894 11 15.1903C11 15.1912 11 15.1921 11 15.193C11 15.1939 11 15.1948 11 15.1957C11 15.1966 11 15.1975 11 15.1985C11 15.1994 11 15.2003 11 15.2013C11 15.2022 11 15.2032 11 15.2041C11 15.2051 11 15.206 11 15.207C11 15.208 11 15.209 11 15.21C11 15.2109 11 15.2119 11 15.2129C11 15.2139 11 15.215 11 15.216C11 15.217 11 15.218 11 15.219C11 15.2201 11 15.2211 11 15.2221C11 15.2232 11 15.2242 11 15.2253C11 15.2263 11 15.2274 11 15.2285C11 15.2295 11 15.2306 11 15.2317C11 15.2328 11 15.2339 11 15.235C11 15.2361 11 15.2372 11 15.2383C11 15.2394 11 15.2405 11 15.2416C11 15.2428 11 15.2439 11 15.245C11 15.2462 11 15.2473 11 15.2485C11 15.2496 11 15.2508 11 15.2519C11 15.2531 11 15.2543 11 15.2555C11 15.2566 11 15.2578 11 15.259C11 15.2602 11 15.2614 11 15.2626C11 15.2638 11 15.265 11 15.2662C11 15.2675 11 15.2687 11 15.2699C11 15.2711 11 15.2724 11 15.2736C11 15.2749 11 15.2761 11 15.2774C11 15.2786 11 15.2799 11 15.2812C11 15.2824 11 15.2837 11 15.285C11 15.2863 11 15.2876 11 15.2889C11 15.2902 11 15.2915 11 15.2928C11 15.2941 11 15.2954 11 15.2967C11 15.2981 11 15.2994 11 15.3007C11 15.3021 11 15.3034 11 15.3048C11 15.3061 11 15.3075 11 15.3088C11 15.3102 11 15.3116 11 15.3129C11 15.3143 11 15.3157 11 15.3171C11 15.3185 11 15.3199 11 15.3213C11 15.3227 11 15.3241 11 15.3255C11 15.3269 11 15.3283 11 15.3297C11 15.3312 11 15.3326 11 15.334C11 15.3355 11 15.3369 11 15.3384C11 15.3398 11 15.3413 11 15.3427C11 15.3442 11 15.3457 11 15.3472C11 15.3486 11 15.3501 11 15.3516C11 15.3531 11 15.3546 11 15.3561C11 15.3576 11 15.3591 11 15.3606C11 15.3621 11 15.3636 11 15.3652C11 15.3667 11 15.3682 11 15.3698C11 15.3713 11 15.3729 11 15.3744C11 15.376 11 15.3775 11 15.3791C11 15.3806 11 15.3822 11 15.3838C11 15.3854 11 15.3869 11 15.3885C11 15.3901 11 15.3917 11 15.3933C11 15.3949 11 15.3965 11 15.3981C11 15.3997 11 15.4014 11 15.403C11 15.4046 11 15.4062 11 15.4079C11 15.4095 11 15.4111 11 15.4128C11 15.4144 11 15.4161 11 15.4178C11 15.4194 11 15.4211 11 15.4228C11 15.4244 11 15.4261 11 15.4278C11 15.4295 11 15.4312 11 15.4329C11 15.4345 11 15.4363 11 15.438C11 15.4397 11 15.4414 11 15.4431C11 15.4448 11 15.4465 11 15.4483C11 15.45 11 15.4517 11 15.4535C11 15.4552 11 15.457 11 15.4587C11 15.4605 11 15.4622 11 15.464C11 15.4658 11 15.4675 11 15.4693C11 15.4711 11 15.4729 11 15.4747C11 15.4765 11 15.4783 11 15.4801C11 15.4819 11 15.4837 11 15.4855C11 15.4873 11 15.4891 11 15.4909C11 15.4928 11 15.4946 11 15.4964C11 15.4982 11 15.5001 11 15.5019C11 15.5038 11 15.5056 11 15.5075C11 15.5093 11 15.5112 11 15.5131C11 15.5149 11 15.5168 11 15.5187C11 15.5206 11 15.5225 11 15.5244C11 15.5263 11 15.5281 11 15.5301C11 15.532 11 15.5339 11 15.5358C11 15.5377 11 15.5396 11 15.5415C11 15.5435 11 15.5454 11 15.5473C11 15.5493 11 15.5512 11 15.5531C11 15.5551 11 15.557 11 15.559C11 15.561 11 15.5629 11 15.5649C11 15.5669 11 15.5688 11 15.5708C11 15.5728 11 15.5748 11 15.5768C11 15.5788 11 15.5808 11 15.5828C11 15.5848 11 15.5868 11 15.5888C11 15.5908 11 15.5928 11 15.5948C11 15.5968 11 15.5989 11 15.6009C11 15.6029 11 15.605 11 15.607C11 15.6091 11 15.6111 11 15.6132C11 15.6152 11 15.6173 11 15.6193C11 15.6214 11 15.6235 11 15.6256C11 15.6276 11 15.6297 11 15.6318C11 15.6339 11 15.636 11 15.6381C11 15.6402 11 15.6423 11 15.6444C11 15.6465 11 15.6486 11 15.6507C11 15.6528 11 15.655 11 15.6571C11 15.6592 11 15.6613 11 15.6635C11 15.6656 11 15.6678 11 15.6699C11 15.6721 11 15.6742 11 15.6764C11 15.6785 11 15.6807 11 15.6829C11 15.685 11 15.6872 11 15.6894C11 15.6916 11 15.6938 11 15.6959C11 15.6981 11 15.7003 11 15.7025C11 15.7047 11 15.7069 11 15.7091C11 15.7113 11 15.7136 11 15.7158C11 15.718 11 15.7202 11 15.7225C11 15.7247 11 15.7269 11 15.7292C11 15.7314 11 15.7336 11 15.7359C11 15.7381 11 15.7404 11 15.7426C11 15.7449 11 15.7472 11 15.7494C11 15.7517 11 15.754 11 15.7563C11 15.7585 11 15.7608 11 15.7631C11 15.7654 11 15.7677 11 15.77C11 15.7723 11 15.7746 11 15.7769C11 15.7792 11 15.7815 11 15.7838C11 15.7862 11 15.7885 11 15.7908C11 15.7931 11 15.7955 11 15.7978C11 15.8001 11 15.8025 11 15.8048C11 15.8072 11 15.8095 11 15.8119C11 15.8142 11 15.8166 11 15.819C11 15.8213 11 15.8237 11 15.8261C11 15.8284 11 15.8308 11 15.8332C11 15.8356 11 15.838 11 15.8404C11 15.8428 11 15.8452 11 15.8476C11 15.85 11 15.8524 11 15.8548C11 15.8572 11 15.8596 11 15.862C11 15.8644 11 15.8669 11 15.8693C11 15.8717 11 15.8742 11 15.8766C11 15.879 11 15.8815 11 15.8839C11 15.8864 11 15.8888 11 15.8913C11 15.8937 11 15.8962 11 15.8987C11 15.9011 11 15.9036 11 15.9061C11 15.9086 11 15.911 11 15.9135C11 15.916 11 15.9185 11 15.921C11 15.9235 11 15.926 11 15.9285C11 15.931 11 15.9335 11 15.936C11 15.9385 11 15.941 11 15.9435C11 15.9461 11 15.9486 11 15.9511C11 15.9536 11 15.9562 11 15.9587C11 15.9613 11 15.9638 11 15.9663C11 15.9689 11 15.9714 11 15.974C11 15.9765 11 15.9791 11 15.9817C11 15.9842 11 15.9868 11 15.9894C11 15.9919 11 15.9945 11 15.9971C11 15.9997 11 16.0023 11 16.0048C11 16.0074 11 16.01 11 16.0126C11 16.0152 11 16.0178 11 16.0204C11 16.023 11 16.0256 11 16.0283C11 16.0309 11 16.0335 11 16.0361C11 16.0387 11 16.0414 11 16.044C11 16.0466 11 16.0493 11 16.0519C11 16.0545 11 16.0572 11 16.0598C11 16.0625 11 16.0651 11 16.0678C11 16.0704 11 16.0731 11 16.0757C11 16.0784 11 16.0811 11 16.0837C11 16.0864 11 16.0891 11 16.0918C11 16.0944 11 16.0971 11 16.0998C11 16.1025 11 16.1052 11 16.1079C11 16.1106 11 16.1133 11 16.116C11 16.1187 11 16.1214 11 16.1241C11 16.1268 11 16.1295 11 16.1323C11 16.135 11 16.1377 11 16.1404C11 16.1431 11 16.1459 11 16.1486C11 16.1513 11 16.1541 11 16.1568C11 16.1596 11 16.1623 11 16.1651C11 16.1678 11 16.1706 11 16.1733C11 16.1761 11 16.1788 11 16.1816C11 16.1844 11 16.1871 11 16.1899C11 16.1927 11 16.1955 11 16.1982C11 16.201 11 16.2038 11 16.2066C11 16.2094 11 16.2122 11 16.215C11 16.2178 11 16.2206 11 16.2234C11 16.2262 11 16.229 11 16.2318C11 16.2346 11 16.2374 11 16.2402C11 16.2431 11 16.2459 11 16.2487C11 16.2515 11 16.2544 11 16.2572C11 16.26 11 16.2629 11 16.2657C11 16.2685 11 16.2714 11 16.2742C11 16.2771 11 16.2799 11 16.2828C11 16.2856 11 16.2885 11 16.2913C11 16.2942 11 16.2971 11 16.2999C11 16.3028 11 16.3057 11 16.3086C11 16.3114 11 16.3143 11 16.3172C11 16.3201 11 16.323 11 16.3258C11 16.3287 11 16.3316 11 16.3345C11 16.3374 11 16.3403 11 16.3432C11 16.3461 11 16.349 11 16.3519C11 16.3548 11 16.3578 11 16.3607C11 16.3636 11 16.3665 11 16.3694C11 16.3724 11 16.3753 11 16.3782C11 16.3811 11 16.3841 11 16.387C11 16.39 11 16.3929 11 16.3958C11 16.3988 11 16.4017 11 16.4047C11 16.4076 11 16.4106 11 16.4135C11 16.4165 11 16.4195 11 16.4224C11 16.4254 11 16.4284 11 16.4313C11 16.4343 11 16.4373 11 16.4402C11 16.4432 11 16.4462 11 16.4492C11 16.4522 11 16.4552 11 16.4581C11 16.4611 11 16.4641 11 16.4671C11 16.4701 11 16.4731 11 16.4761C11 16.4791 11 16.4821 11 16.4851C11 16.4881 11 16.4911 11 16.4942C11 16.4972 11 16.5002 11 16.5032C11 16.5062 11 16.5093 11 16.5123C11 16.5153 11 16.5183 11 16.5214C11 16.5244 11 16.5274 11 16.5305C11 16.5335 11 16.5366 11 16.5396C11 16.5427 11 16.5457 11 16.5488C11 16.5518 11 16.5549 11 16.5579C11 16.561 11 16.564 11 16.5671C11 16.5702 11 16.5732 11 16.5763C11 16.5794 11 16.5824 11 16.5855C11 16.5886 11 16.5917 11 16.5948C11 16.5978 11 16.6009 11 16.604C11 16.6071 11 16.6102 11 16.6133C11 16.6164 11 16.6195 11 16.6226C11 16.6257 11 16.6288 11 16.6319C11 16.635 11 16.6381 11 16.6412C11 16.6443 11 16.6474 11 16.6505C11 16.6536 11 16.6567 11 16.6599C11 16.663 11 16.6661 11 16.6692C11 16.6724 11 16.6755 11 16.6786C11 16.6818 11 16.6849 11 16.688C11 16.6912 11 16.6943 11 16.6974C11 16.7006 11 16.7037 11 16.7069C11 16.71 11 16.7132 11 16.7163C11 16.7195 11 16.7226 11 16.7258C11 16.729 11 16.7321 11 16.7353C11 16.7385 11 16.7416 11 16.7448C11 16.748 11 16.7511 11 16.7543C11 16.7575 11 16.7607 11 16.7638C11 16.767 11 16.7702 11 16.7734C11 16.7766 11 16.7797 11 16.7829C11 16.7861 11 16.7893 11 16.7925C11 16.7957 11 16.7989 11 16.8021C11 16.8053 11 16.8085 11 16.8117C11 16.8149 11 16.8181 11 16.8213C11 16.8245 11 16.8278 11 16.831C11 16.8342 11 16.8374 11 16.8406C11 16.8438 11 16.8471 11 16.8503C11 16.8535 11 16.8567 11 16.86C11 16.8632 11 16.8664 11 16.8697C11 16.8729 11 16.8761 11 16.8794C11 16.8826 11 16.8858 11 16.8891C11 16.8923 11 16.8956 11 16.8988C11 16.9021 11 16.9053 11 16.9086C11 16.9118 11 16.9151 11 16.9183C11 16.9216 11 16.9248 11 16.9281C11 16.9314 11 16.9346 11 16.9379C11 16.9412 11 16.9444 11 16.9477C11 16.951 11 16.9542 11 16.9575C11 16.9608 11 16.9641 11 16.9673C11 16.9706 11 16.9739 11 16.9772C11 16.9805 11 16.9838 11 16.987C11 16.9903 11 16.9936 11 16.9969C11 17.0002 11 17.0035 11 17.0068C11 17.0101 11 17.0134 11 17.0167C11 17.02 11 17.0233 11 17.0266C11 17.0299 11 17.0332 11 17.0365C11 17.0398 11 17.0431 11 17.0464C11 17.0497 11 17.0531 11 17.0564C11 17.0597 11 17.063 11 17.0663C11 17.0696 11 17.073 11 17.0763C11 17.0796 11 17.0829 11 17.0863C11 17.0896 11 17.0929 11 17.0963C11 17.0996 11 17.1029 11 17.1063C11 17.1096 11 17.1129 11 17.1163C11 17.1196 11 17.123 11 17.1263C11 17.1296 11 17.133 11 17.1363C11 17.1397 11 17.143 11 17.1464C11 17.1497 11 17.1531 11 17.1564C11 17.1598 11 17.1631 11 17.1665C11 17.1699 11 17.1732 11 17.1766C11 17.1799 11 17.1833 11 17.1867C11 17.19 11 17.1934 11 17.1968C11 17.2001 11 17.2035 11 17.2069C11 17.2102 11 17.2136 11 17.217C11 17.2204 11 17.2237 11 17.2271C11 17.2305 11 17.2339 11 17.2373C11 17.2406 11 17.244 11 17.2474C11 17.2508 11 17.2542 11 17.2576C11 17.261 11 17.2643 11 17.2677C11 17.2711 11 17.2745 11 17.2779C11 17.2813 11 17.2847 11 17.2881C11 17.2915 11 17.2949 11 17.2983C11 17.3017 11 17.3051 11 17.3085C11 17.3119 11 17.3153 11 17.3187C11 17.3221 11 17.3255 11 17.3289C11 17.3323 11 17.3358 11 17.3392C11 17.3426 11 17.346 11 17.3494C11 17.3528 11 17.3562 11 17.3597C11 17.3631 11 17.3665 11 17.3699C11 17.3733 11 17.3768 11 17.3802C11 17.3836 11 17.387 11 17.3905C11 17.3939 11 17.3973 11 17.4007C11 17.4042 11 17.4076 11 17.411C11 17.4145 11 17.4179 11 17.4213C11 17.4248 11 17.4282 11 17.4316C11 17.4351 11 17.4385 11 17.442C11 17.4454 11 17.4488 11 17.4523C11 17.4557 11 17.4592 11 17.4626C11 17.4661 11 17.4695 11 17.4729C11 17.4764 11 17.4798 11 17.4833C11 17.4867 11 17.4902 11 17.4936C11 17.4971 11 17.5005 11 17.504C11 17.5074 11 17.5109 11 17.5144C11 17.5178 11 17.5213 11 17.5247C11 17.5282 11 17.5317 11 17.5351C11 17.5386 11 17.542 11 17.5455C11 17.549 11 17.5524 11 17.5559C11 17.5594 11 17.5628 11 17.5663C11 17.5698 11 17.5732 11 17.5767C11 17.5802 11 17.5836 11 17.5871C11 17.5906 11 17.594 11 17.5975C11 17.601 11 17.6045 11 17.6079C11 17.6114 11 17.6149 11 17.6184C11 17.6218 11 17.6253 11 17.6288C11 17.6323 11 17.6358 11 17.6392C11 17.6427 11 17.6462 11 17.6497C11 17.6532 11 17.6566 11 17.6601C11 17.6636 11 17.6671 11 17.6706C11 17.6741 11 17.6776 11 17.681C11 17.6845 11 17.688 11 17.6915C11 17.695 11 17.6985 11 17.702C11 17.7055 11 17.709 11 17.7124C11 17.7159 11 17.7194 11 17.7229C11 17.7264 11 17.7299 11 17.7334C11 17.7369 11 17.7404 11 17.7439C11 17.7474 11 17.7509 11 17.7544C11 17.7579 11 17.7614 11 17.7649C11 17.7684 11 17.7719 11 17.7754C11 17.7789 11 17.7824 11 17.7859C11 17.7894 11 17.7929 11 17.7964C11 17.7999 11 17.8034 11 17.8069C11 17.8104 11 17.8139 11 17.8174C11 17.8209 11 17.8244 11 17.8279C11 17.8314 11 17.835 11 17.8385C11 17.842 11 17.8455 11 17.849C11 17.8525 11 17.856 11 17.8595C11 17.863 11 17.8665 11 17.87C11 17.8736 11 17.8771 11 17.8806C11 17.8841 11 17.8876 11 17.8911C11 17.8946 11 17.8981 11 17.9016C11 17.9052 11 17.9087 11 17.9122C11 17.9157 11 17.9192 11 17.9227C11 17.9262 11 17.9298 11 17.9333C11 17.9368 11 17.9403 11 17.9438C11 17.9473 11 17.9509 11 17.9544C11 17.9579 11 17.9614 11 17.9649C11 17.9684 11 17.972 11 17.9755C11 17.979 11 17.9825 11 17.986C11 17.9896 11 17.9931 11 17.9966C11 18.0001 11 18.0036 11 18.0072C11 18.0107 11 18.0142 11 18.0177C11 18.0212 11 18.0248 11 18.0283C11 18.0318 11 18.0353 11 18.0388C11 18.0424 11 18.0459 11 18.0494C11 18.0529 11 18.0564 11 18.06C11 18.0635 11 18.067 11 18.0705C11 18.0741 11 18.0776 11 18.0811C11 18.0846 11 18.0881 11 18.0917C11 18.0952 11 18.0987 11 18.1022C11 18.1058 11 18.1093 11 18.1128C11 18.1163 11 18.1198 11 18.1234C11 18.1269 11 18.1304 11 18.1339C11 18.1375 11 18.141 11 18.1445C11 18.148 11 18.1515 11 18.1551C11 18.1586 11 18.1621 11 18.1656C11 18.1692 11 18.1727 11 18.1762C11 18.1797 11 18.1832 11 18.1868C11 18.1903 11 18.1938 11 18.1973C11 18.2009 11 18.2044 11 18.2079C11 18.2114 11 18.2149 11 18.2185C11 18.222 11 18.2255 11 18.229C11 18.2325 11 18.2361 11 18.2396C11 18.2431 11 18.2466 11 18.2501C11 18.2537 11 18.2572 11 18.2607C11 18.2642 11 18.2677 11 18.2713C11 18.2748 11 18.2783 11 18.2818C11 18.2853 11 18.2889 11 18.2924C11 18.2959 11 18.2994 11 18.3029C11 18.3064 11 18.31 11 18.3135C11 18.317 11 18.3205 11 18.324C11 18.3275 11 18.3311 11 18.3346C11 18.3381 11 18.3416 11 18.3451C11 18.3486 11 18.3521 11 18.3557C11 18.3592 11 18.3627 11 18.3662C11 18.3697 11 18.3732 11 18.3767C11 18.3803 11 18.3838 11 18.3873C11 18.3908 11 18.3943 11 18.3978C11 18.4013 11 18.4048 11 18.4083C11 18.4118 11 18.4154 11 18.4189C11 18.4224 11 18.4259 11 18.4294C11 18.4329 11 18.4364 11 18.4399C11 18.4434 11 18.4469 11 18.4504C11 18.4539 11 18.4574 11 18.4609C11 18.4644 11 18.4679 11 18.4714C11 18.4749 11 18.4785 11 18.482C11 18.4855 11 18.489 11 18.4925C11 18.496 11 18.4995 11 18.503C11 18.5065 11 18.5099 11 18.5134C11 18.5169 11 18.5204 11 18.5239C11 18.5274 11 18.5309 11 18.5344C11 18.5379 11 18.5414 11 18.5449C11 18.5484 11 18.5519 11 18.5554C11 18.5589 11 18.5624 11 18.5659C11 18.5693 11 18.5728 11 18.5763C11 18.5798 11 18.5833 11 18.5868C11 18.5903 11 18.5938 11 18.5972C11 18.6007 11 18.6042 11 18.6077C11 18.6112 11 18.6147 11 18.6181C11 18.6216 11 18.6251 11 18.6286C11 18.6321 11 18.6355 11 18.639C11 18.6425 11 18.646 11 18.6495C11 18.6529 11 18.6564 11 18.6599C11 18.6634 11 18.6668 11 18.6703C11 18.6738 11 18.6772 11 18.6807C11 18.6842 11 18.6877 11 18.6911C11 18.6946 11 18.6981 11 18.7015C11 18.705 11 18.7085 11 18.7119C11 18.7154 11 18.7188 11 18.7223C11 18.7258 11 18.7292 11 18.7327C11 18.7361 11 18.7396 11 18.7431C11 18.7465 11 18.75 11 18.7534C11 18.7569 11 18.7603 11 18.7638C11 18.7673 11 18.7707 11 18.7742C11 18.7776 11 18.7811 11 18.7845C11 18.788 11 18.7914 11 18.7948C11 18.7983 11 18.8017 11 18.8052C11 18.8086 11 18.8121 11 18.8155C11 18.8189 11 18.8224 11 18.8258C11 18.8293 11 18.8327 11 18.8361C11 18.8396 11 18.843 11 18.8464C11 18.8499 11 18.8533 11 18.8567C11 18.8602 11 18.8636 11 18.867C11 18.8705 11 18.8739 11 18.8773C11 18.8807 11 18.8842 11 18.8876C11 18.891 11 18.8944 11 18.8978C11 18.9013 11 18.9047 11 18.9081C11 18.9115 11 18.9149 11 18.9183C11 18.9218 11 18.9252 11 18.9286C11 18.932 11 18.9354 11 18.9388C11 18.9422 11 18.9456 11 18.949C11 18.9524 11 18.9558 11 18.9592C11 18.9626 11 18.966 11 18.9694C11 18.9728 11 18.9762 11 18.9796C11 18.983 11 18.9864 11 18.9898C11 18.9932 11 18.9966 11 19H14C14 18.9966 14 18.9932 14 18.9898C14 18.9864 14 18.983 14 18.9796C14 18.9762 14 18.9728 14 18.9694C14 18.966 14 18.9626 14 18.9592C14 18.9558 14 18.9524 14 18.949C14 18.9456 14 18.9422 14 18.9388C14 18.9354 14 18.932 14 18.9286C14 18.9252 14 18.9218 14 18.9183C14 18.9149 14 18.9115 14 18.9081C14 18.9047 14 18.9013 14 18.8978C14 18.8944 14 18.891 14 18.8876C14 18.8842 14 18.8807 14 18.8773C14 18.8739 14 18.8705 14 18.867C14 18.8636 14 18.8602 14 18.8567C14 18.8533 14 18.8499 14 18.8464C14 18.843 14 18.8396 14 18.8361C14 18.8327 14 18.8293 14 18.8258C14 18.8224 14 18.8189 14 18.8155C14 18.8121 14 18.8086 14 18.8052C14 18.8017 14 18.7983 14 18.7948C14 18.7914 14 18.788 14 18.7845C14 18.7811 14 18.7776 14 18.7742C14 18.7707 14 18.7673 14 18.7638C14 18.7603 14 18.7569 14 18.7534C14 18.75 14 18.7465 14 18.7431C14 18.7396 14 18.7361 14 18.7327C14 18.7292 14 18.7258 14 18.7223C14 18.7188 14 18.7154 14 18.7119C14 18.7085 14 18.705 14 18.7015C14 18.6981 14 18.6946 14 18.6911C14 18.6877 14 18.6842 14 18.6807C14 18.6772 14 18.6738 14 18.6703C14 18.6668 14 18.6634 14 18.6599C14 18.6564 14 18.6529 14 18.6495C14 18.646 14 18.6425 14 18.639C14 18.6355 14 18.6321 14 18.6286C14 18.6251 14 18.6216 14 18.6181C14 18.6147 14 18.6112 14 18.6077C14 18.6042 14 18.6007 14 18.5972C14 18.5938 14 18.5903 14 18.5868C14 18.5833 14 18.5798 14 18.5763C14 18.5728 14 18.5693 14 18.5659C14 18.5624 14 18.5589 14 18.5554C14 18.5519 14 18.5484 14 18.5449C14 18.5414 14 18.5379 14 18.5344C14 18.5309 14 18.5274 14 18.5239C14 18.5204 14 18.5169 14 18.5134C14 18.5099 14 18.5065 14 18.503C14 18.4995 14 18.496 14 18.4925C14 18.489 14 18.4855 14 18.482C14 18.4785 14 18.4749 14 18.4714C14 18.4679 14 18.4644 14 18.4609C14 18.4574 14 18.4539 14 18.4504C14 18.4469 14 18.4434 14 18.4399C14 18.4364 14 18.4329 14 18.4294C14 18.4259 14 18.4224 14 18.4189C14 18.4154 14 18.4118 14 18.4083C14 18.4048 14 18.4013 14 18.3978C14 18.3943 14 18.3908 14 18.3873C14 18.3838 14 18.3803 14 18.3767C14 18.3732 14 18.3697 14 18.3662C14 18.3627 14 18.3592 14 18.3557C14 18.3521 14 18.3486 14 18.3451C14 18.3416 14 18.3381 14 18.3346C14 18.3311 14 18.3275 14 18.324C14 18.3205 14 18.317 14 18.3135C14 18.31 14 18.3064 14 18.3029C14 18.2994 14 18.2959 14 18.2924C14 18.2889 14 18.2853 14 18.2818C14 18.2783 14 18.2748 14 18.2713C14 18.2677 14 18.2642 14 18.2607C14 18.2572 14 18.2537 14 18.2501C14 18.2466 14 18.2431 14 18.2396C14 18.2361 14 18.2325 14 18.229C14 18.2255 14 18.222 14 18.2185C14 18.2149 14 18.2114 14 18.2079C14 18.2044 14 18.2009 14 18.1973C14 18.1938 14 18.1903 14 18.1868C14 18.1832 14 18.1797 14 18.1762C14 18.1727 14 18.1692 14 18.1656C14 18.1621 14 18.1586 14 18.1551C14 18.1515 14 18.148 14 18.1445C14 18.141 14 18.1375 14 18.1339C14 18.1304 14 18.1269 14 18.1234C14 18.1198 14 18.1163 14 18.1128C14 18.1093 14 18.1058 14 18.1022C14 18.0987 14 18.0952 14 18.0917C14 18.0881 14 18.0846 14 18.0811C14 18.0776 14 18.0741 14 18.0705C14 18.067 14 18.0635 14 18.06C14 18.0564 14 18.0529 14 18.0494C14 18.0459 14 18.0424 14 18.0388C14 18.0353 14 18.0318 14 18.0283C14 18.0248 14 18.0212 14 18.0177C14 18.0142 14 18.0107 14 18.0072C14 18.0036 14 18.0001 14 17.9966C14 17.9931 14 17.9896 14 17.986C14 17.9825 14 17.979 14 17.9755C14 17.972 14 17.9684 14 17.9649C14 17.9614 14 17.9579 14 17.9544C14 17.9509 14 17.9473 14 17.9438C14 17.9403 14 17.9368 14 17.9333C14 17.9298 14 17.9262 14 17.9227C14 17.9192 14 17.9157 14 17.9122C14 17.9087 14 17.9052 14 17.9016C14 17.8981 14 17.8946 14 17.8911C14 17.8876 14 17.8841 14 17.8806C14 17.8771 14 17.8736 14 17.87C14 17.8665 14 17.863 14 17.8595C14 17.856 14 17.8525 14 17.849C14 17.8455 14 17.842 14 17.8385C14 17.835 14 17.8314 14 17.8279C14 17.8244 14 17.8209 14 17.8174C14 17.8139 14 17.8104 14 17.8069C14 17.8034 14 17.7999 14 17.7964C14 17.7929 14 17.7894 14 17.7859C14 17.7824 14 17.7789 14 17.7754C14 17.7719 14 17.7684 14 17.7649C14 17.7614 14 17.7579 14 17.7544C14 17.7509 14 17.7474 14 17.7439C14 17.7404 14 17.7369 14 17.7334C14 17.7299 14 17.7264 14 17.7229C14 17.7194 14 17.7159 14 17.7124C14 17.709 14 17.7055 14 17.702C14 17.6985 14 17.695 14 17.6915C14 17.688 14 17.6845 14 17.681C14 17.6776 14 17.6741 14 17.6706C14 17.6671 14 17.6636 14 17.6601C14 17.6566 14 17.6532 14 17.6497C14 17.6462 14 17.6427 14 17.6392C14 17.6358 14 17.6323 14 17.6288C14 17.6253 14 17.6218 14 17.6184C14 17.6149 14 17.6114 14 17.6079C14 17.6045 14 17.601 14 17.5975C14 17.594 14 17.5906 14 17.5871C14 17.5836 14 17.5802 14 17.5767C14 17.5732 14 17.5698 14 17.5663C14 17.5628 14 17.5594 14 17.5559C14 17.5524 14 17.549 14 17.5455C14 17.542 14 17.5386 14 17.5351C14 17.5317 14 17.5282 14 17.5247C14 17.5213 14 17.5178 14 17.5144C14 17.5109 14 17.5074 14 17.504C14 17.5005 14 17.4971 14 17.4936C14 17.4902 14 17.4867 14 17.4833C14 17.4798 14 17.4764 14 17.4729C14 17.4695 14 17.4661 14 17.4626C14 17.4592 14 17.4557 14 17.4523C14 17.4488 14 17.4454 14 17.442C14 17.4385 14 17.4351 14 17.4316C14 17.4282 14 17.4248 14 17.4213C14 17.4179 14 17.4145 14 17.411C14 17.4076 14 17.4042 14 17.4007C14 17.3973 14 17.3939 14 17.3905C14 17.387 14 17.3836 14 17.3802C14 17.3768 14 17.3733 14 17.3699C14 17.3665 14 17.3631 14 17.3597C14 17.3562 14 17.3528 14 17.3494C14 17.346 14 17.3426 14 17.3392C14 17.3358 14 17.3323 14 17.3289C14 17.3255 14 17.3221 14 17.3187C14 17.3153 14 17.3119 14 17.3085C14 17.3051 14 17.3017 14 17.2983C14 17.2949 14 17.2915 14 17.2881C14 17.2847 14 17.2813 14 17.2779C14 17.2745 14 17.2711 14 17.2677C14 17.2643 14 17.261 14 17.2576C14 17.2542 14 17.2508 14 17.2474C14 17.244 14 17.2406 14 17.2373C14 17.2339 14 17.2305 14 17.2271C14 17.2237 14 17.2204 14 17.217C14 17.2136 14 17.2102 14 17.2069C14 17.2035 14 17.2001 14 17.1968C14 17.1934 14 17.19 14 17.1867C14 17.1833 14 17.1799 14 17.1766C14 17.1732 14 17.1699 14 17.1665C14 17.1631 14 17.1598 14 17.1564C14 17.1531 14 17.1497 14 17.1464C14 17.143 14 17.1397 14 17.1363C14 17.133 14 17.1296 14 17.1263C14 17.123 14 17.1196 14 17.1163C14 17.1129 14 17.1096 14 17.1063C14 17.1029 14 17.0996 14 17.0963C14 17.0929 14 17.0896 14 17.0863C14 17.0829 14 17.0796 14 17.0763C14 17.073 14 17.0696 14 17.0663C14 17.063 14 17.0597 14 17.0564C14 17.0531 14 17.0497 14 17.0464C14 17.0431 14 17.0398 14 17.0365C14 17.0332 14 17.0299 14 17.0266C14 17.0233 14 17.02 14 17.0167C14 17.0134 14 17.0101 14 17.0068C14 17.0035 14 17.0002 14 16.9969C14 16.9936 14 16.9903 14 16.987C14 16.9838 14 16.9805 14 16.9772C14 16.9739 14 16.9706 14 16.9673C14 16.9641 14 16.9608 14 16.9575C14 16.9542 14 16.951 14 16.9477C14 16.9444 14 16.9412 14 16.9379C14 16.9346 14 16.9314 14 16.9281C14 16.9248 14 16.9216 14 16.9183C14 16.9151 14 16.9118 14 16.9086C14 16.9053 14 16.9021 14 16.8988C14 16.8956 14 16.8923 14 16.8891C14 16.8858 14 16.8826 14 16.8794C14 16.8761 14 16.8729 14 16.8697C14 16.8664 14 16.8632 14 16.86C14 16.8567 14 16.8535 14 16.8503C14 16.8471 14 16.8438 14 16.8406C14 16.8374 14 16.8342 14 16.831C14 16.8278 14 16.8245 14 16.8213C14 16.8181 14 16.8149 14 16.8117C14 16.8085 14 16.8053 14 16.8021C14 16.7989 14 16.7957 14 16.7925C14 16.7893 14 16.7861 14 16.7829C14 16.7797 14 16.7766 14 16.7734C14 16.7702 14 16.767 14 16.7638C14 16.7607 14 16.7575 14 16.7543C14 16.7511 14 16.748 14 16.7448C14 16.7416 14 16.7385 14 16.7353C14 16.7321 14 16.729 14 16.7258C14 16.7226 14 16.7195 14 16.7163C14 16.7132 14 16.71 14 16.7069C14 16.7037 14 16.7006 14 16.6974C14 16.6943 14 16.6912 14 16.688C14 16.6849 14 16.6818 14 16.6786C14 16.6755 14 16.6724 14 16.6692C14 16.6661 14 16.663 14 16.6599C14 16.6567 14 16.6536 14 16.6505C14 16.6474 14 16.6443 14 16.6412C14 16.6381 14 16.635 14 16.6319C14 16.6288 14 16.6257 14 16.6226C14 16.6195 14 16.6164 14 16.6133C14 16.6102 14 16.6071 14 16.604C14 16.6009 14 16.5978 14 16.5948C14 16.5917 14 16.5886 14 16.5855C14 16.5824 14 16.5794 14 16.5763C14 16.5732 14 16.5702 14 16.5671C14 16.564 14 16.561 14 16.5579C14 16.5549 14 16.5518 14 16.5488C14 16.5457 14 16.5427 14 16.5396C14 16.5366 14 16.5335 14 16.5305C14 16.5274 14 16.5244 14 16.5214C14 16.5183 14 16.5153 14 16.5123C14 16.5093 14 16.5062 14 16.5032C14 16.5002 14 16.4972 14 16.4942C14 16.4911 14 16.4881 14 16.4851C14 16.4821 14 16.4791 14 16.4761C14 16.4731 14 16.4701 14 16.4671C14 16.4641 14 16.4611 14 16.4581C14 16.4552 14 16.4522 14 16.4492C14 16.4462 14 16.4432 14 16.4402C14 16.4373 14 16.4343 14 16.4313C14 16.4284 14 16.4254 14 16.4224C14 16.4195 14 16.4165 14 16.4135C14 16.4106 14 16.4076 14 16.4047C14 16.4017 14 16.3988 14 16.3958C14 16.3929 14 16.39 14 16.387C14 16.3841 14 16.3811 14 16.3782C14 16.3753 14 16.3724 14 16.3694C14 16.3665 14 16.3636 14 16.3607C14 16.3578 14 16.3548 14 16.3519C14 16.349 14 16.3461 14 16.3432C14 16.3403 14 16.3374 14 16.3345C14 16.3316 14 16.3287 14 16.3258C14 16.323 14 16.3201 14 16.3172C14 16.3143 14 16.3114 14 16.3086C14 16.3057 14 16.3028 14 16.2999C14 16.2971 14 16.2942 14 16.2913C14 16.2885 14 16.2856 14 16.2828C14 16.2799 14 16.2771 14 16.2742C14 16.2714 14 16.2685 14 16.2657C14 16.2629 14 16.26 14 16.2572C14 16.2544 14 16.2515 14 16.2487C14 16.2459 14 16.2431 14 16.2402C14 16.2374 14 16.2346 14 16.2318C14 16.229 14 16.2262 14 16.2234C14 16.2206 14 16.2178 14 16.215C14 16.2122 14 16.2094 14 16.2066C14 16.2038 14 16.201 14 16.1982C14 16.1955 14 16.1927 14 16.1899C14 16.1871 14 16.1844 14 16.1816C14 16.1788 14 16.1761 14 16.1733C14 16.1706 14 16.1678 14 16.1651C14 16.1623 14 16.1596 14 16.1568C14 16.1541 14 16.1513 14 16.1486C14 16.1459 14 16.1431 14 16.1404C14 16.1377 14 16.135 14 16.1323C14 16.1295 14 16.1268 14 16.1241C14 16.1214 14 16.1187 14 16.116C14 16.1133 14 16.1106 14 16.1079C14 16.1052 14 16.1025 14 16.0998C14 16.0971 14 16.0944 14 16.0918C14 16.0891 14 16.0864 14 16.0837C14 16.0811 14 16.0784 14 16.0757C14 16.0731 14 16.0704 14 16.0678C14 16.0651 14 16.0625 14 16.0598C14 16.0572 14 16.0545 14 16.0519C14 16.0493 14 16.0466 14 16.044C14 16.0414 14 16.0387 14 16.0361C14 16.0335 14 16.0309 14 16.0283C14 16.0256 14 16.023 14 16.0204C14 16.0178 14 16.0152 14 16.0126C14 16.01 14 16.0074 14 16.0048C14 16.0023 14 15.9997 14 15.9971C14 15.9945 14 15.9919 14 15.9894C14 15.9868 14 15.9842 14 15.9817C14 15.9791 14 15.9765 14 15.974C14 15.9714 14 15.9689 14 15.9663C14 15.9638 14 15.9613 14 15.9587C14 15.9562 14 15.9536 14 15.9511C14 15.9486 14 15.9461 14 15.9435C14 15.941 14 15.9385 14 15.936C14 15.9335 14 15.931 14 15.9285C14 15.926 14 15.9235 14 15.921C14 15.9185 14 15.916 14 15.9135C14 15.911 14 15.9086 14 15.9061C14 15.9036 14 15.9011 14 15.8987C14 15.8962 14 15.8937 14 15.8913C14 15.8888 14 15.8864 14 15.8839C14 15.8815 14 15.879 14 15.8766C14 15.8742 14 15.8717 14 15.8693C14 15.8669 14 15.8644 14 15.862C14 15.8596 14 15.8572 14 15.8548C14 15.8524 14 15.85 14 15.8476C14 15.8452 14 15.8428 14 15.8404C14 15.838 14 15.8356 14 15.8332C14 15.8308 14 15.8284 14 15.8261C14 15.8237 14 15.8213 14 15.819C14 15.8166 14 15.8142 14 15.8119C14 15.8095 14 15.8072 14 15.8048C14 15.8025 14 15.8001 14 15.7978C14 15.7955 14 15.7931 14 15.7908C14 15.7885 14 15.7862 14 15.7838C14 15.7815 14 15.7792 14 15.7769C14 15.7746 14 15.7723 14 15.77C14 15.7677 14 15.7654 14 15.7631C14 15.7608 14 15.7585 14 15.7563C14 15.754 14 15.7517 14 15.7494C14 15.7472 14 15.7449 14 15.7426C14 15.7404 14 15.7381 14 15.7359C14 15.7336 14 15.7314 14 15.7292C14 15.7269 14 15.7247 14 15.7225C14 15.7202 14 15.718 14 15.7158C14 15.7136 14 15.7113 14 15.7091C14 15.7069 14 15.7047 14 15.7025C14 15.7003 14 15.6981 14 15.6959C14 15.6938 14 15.6916 14 15.6894C14 15.6872 14 15.685 14 15.6829C14 15.6807 14 15.6785 14 15.6764C14 15.6742 14 15.6721 14 15.6699C14 15.6678 14 15.6656 14 15.6635C14 15.6613 14 15.6592 14 15.6571C14 15.655 14 15.6528 14 15.6507C14 15.6486 14 15.6465 14 15.6444C14 15.6423 14 15.6402 14 15.6381C14 15.636 14 15.6339 14 15.6318C14 15.6297 14 15.6276 14 15.6256C14 15.6235 14 15.6214 14 15.6193C14 15.6173 14 15.6152 14 15.6132C14 15.6111 14 15.6091 14 15.607C14 15.605 14 15.6029 14 15.6009C14 15.5989 14 15.5968 14 15.5948C14 15.5928 14 15.5908 14 15.5888C14 15.5868 14 15.5848 14 15.5828C14 15.5808 14 15.5788 14 15.5768C14 15.5748 14 15.5728 14 15.5708C14 15.5688 14 15.5669 14 15.5649C14 15.5629 14 15.561 14 15.559C14 15.557 14 15.5551 14 15.5531C14 15.5512 14 15.5493 14 15.5473C14 15.5454 14 15.5435 14 15.5415C14 15.5396 14 15.5377 14 15.5358C14 15.5339 14 15.532 14 15.5301C14 15.5281 14 15.5263 14 15.5244C14 15.5225 14 15.5206 14 15.5187C14 15.5168 14 15.5149 14 15.5131C14 15.5112 14 15.5093 14 15.5075C14 15.5056 14 15.5038 14 15.5019C14 15.5001 14 15.4982 14 15.4964C14 15.4946 14 15.4928 14 15.4909C14 15.4891 14 15.4873 14 15.4855C14 15.4837 14 15.4819 14 15.4801C14 15.4783 14 15.4765 14 15.4747C14 15.4729 14 15.4711 14 15.4693C14 15.4675 14 15.4658 14 15.464C14 15.4622 14 15.4605 14 15.4587C14 15.457 14 15.4552 14 15.4535C14 15.4517 14 15.45 14 15.4483C14 15.4465 14 15.4448 14 15.4431C14 15.4414 14 15.4397 14 15.438C14 15.4363 14 15.4345 14 15.4329C14 15.4312 14 15.4295 14 15.4278C14 15.4261 14 15.4244 14 15.4228C14 15.4211 14 15.4194 14 15.4178C14 15.4161 14 15.4144 14 15.4128C14 15.4111 14 15.4095 14 15.4079C14 15.4062 14 15.4046 14 15.403C14 15.4014 14 15.3997 14 15.3981C14 15.3965 14 15.3949 14 15.3933C14 15.3917 14 15.3901 14 15.3885C14 15.3869 14 15.3854 14 15.3838C14 15.3822 14 15.3806 14 15.3791C14 15.3775 14 15.376 14 15.3744C14 15.3729 14 15.3713 14 15.3698C14 15.3682 14 15.3667 14 15.3652C14 15.3636 14 15.3621 14 15.3606C14 15.3591 14 15.3576 14 15.3561C14 15.3546 14 15.3531 14 15.3516C14 15.3501 14 15.3486 14 15.3472C14 15.3457 14 15.3442 14 15.3427C14 15.3413 14 15.3398 14 15.3384C14 15.3369 14 15.3355 14 15.334C14 15.3326 14 15.3312 14 15.3297C14 15.3283 14 15.3269 14 15.3255C14 15.3241 14 15.3227 14 15.3213C14 15.3199 14 15.3185 14 15.3171C14 15.3157 14 15.3143 14 15.3129C14 15.3116 14 15.3102 14 15.3088C14 15.3075 14 15.3061 14 15.3048C14 15.3034 14 15.3021 14 15.3007C14 15.2994 14 15.2981 14 15.2967C14 15.2954 14 15.2941 14 15.2928C14 15.2915 14 15.2902 14 15.2889C14 15.2876 14 15.2863 14 15.285C14 15.2837 14 15.2824 14 15.2812C14 15.2799 14 15.2786 14 15.2774C14 15.2761 14 15.2749 14 15.2736C14 15.2724 14 15.2711 14 15.2699C14 15.2687 14 15.2675 14 15.2662C14 15.265 14 15.2638 14 15.2626C14 15.2614 14 15.2602 14 15.259C14 15.2578 14 15.2566 14 15.2555C14 15.2543 14 15.2531 14 15.2519C14 15.2508 14 15.2496 14 15.2485C14 15.2473 14 15.2462 14 15.245C14 15.2439 14 15.2428 14 15.2416C14 15.2405 14 15.2394 14 15.2383C14 15.2372 14 15.2361 14 15.235C14 15.2339 14 15.2328 14 15.2317C14 15.2306 14 15.2295 14 15.2285C14 15.2274 14 15.2263 14 15.2253C14 15.2242 14 15.2232 14 15.2221C14 15.2211 14 15.2201 14 15.219C14 15.218 14 15.217 14 15.216C14 15.215 14 15.2139 14 15.2129C14 15.2119 14 15.2109 14 15.21C14 15.209 14 15.208 14 15.207C14 15.206 14 15.2051 14 15.2041C14 15.2032 14 15.2022 14 15.2013C14 15.2003 14 15.1994 14 15.1985C14 15.1975 14 15.1966 14 15.1957C14 15.1948 14 15.1939 14 15.193C14 15.1921 14 15.1912 14 15.1903C14 15.1894 14 15.1885 14 15.1876C14 15.1868 14 15.1859 14 15.185C14 15.1842 14 15.1833 14 15.1825C14 15.1816 14 15.1808 14 15.18C14 15.1791 14 15.1783 14 15.1775C14 15.1767 14 15.1759 14 15.175C14 15.1742 14 15.1735 14 15.1727C14 15.1719 14 15.1711 14 15.1703C14 15.1695 14 15.1688 14 15.168C14 15.1673 14 15.1665 14 15.1658C14 15.165 14 15.1643 14 15.1636C14 15.1628 14 15.1621 14 15.1614C14 15.1607 14 15.16 14 15.1593C14 15.1586 14 15.1579 14 15.1572C14 15.1565 14 15.1558 14 15.1552C14 15.1545 14 15.1538 14 15.1532C14 15.1525 14 15.1519 14 15.1512C14 15.1506 14 15.1499 14 15.1493C14 15.1487 14 15.1481 14 15.1475C14 15.1468 14 15.1462 14 15.1456C14 15.145 14 15.1445 14 15.1439C14 15.1433 14 15.1427 14 15.1422C14 15.1416 14 15.141 14 15.1405C14 15.1399 14 15.1394 14 15.1388C14 15.1383 14 15.1378 14 15.1373C14 15.1367 14 15.1362 14 15.1357C14 15.1352 14 15.1347 14 15.1342C14 15.1337 14 15.1332 14 15.1328C14 15.1323 14 15.1318 14 15.1314C14 15.1309 14 15.1305 14 15.13C14 15.1296 14 15.1291 14 15.1287C14 15.1283 14 15.1278 14 15.1274C14 15.127 14 15.1266 14 15.1262C14 15.1258 14 15.1254 14 15.125C14 15.1247 14 15.1243 14 15.1239C14 15.1235 14 15.1232 14 15.1228C14 15.1225 14 15.1221 14 15.1218C14 15.1215 14 15.1211 14 15.1208C14 15.1205 14 15.1202 14 15.1199C14 15.1196 14 15.1193 14 15.119C14 15.1187 14 15.1184 14 15.1181C14 15.1179 14 15.1176 14 15.1173C14 15.1171 14 15.1168 14 15.1166C14 15.1163 14 15.1161 14 15.1159C14 15.1157 14 15.1154 14 15.1152C14 15.115 14 15.1148 14 15.1146C14 15.1144 14 15.1142 14 15.1141C14 15.1139 14 15.1137 14 15.1136C14 15.1134 14 15.1132 14 15.1131C14 15.1129 14 15.1128 14 15.1127C14 15.1125 14 15.1124 14 15.1123C14 15.1122 14 15.1121 14 15.112C14 15.1119 14 15.1118 14 15.1117C14 15.1116 14 15.1116 14 15.1115C14 15.1114 14 15.1114 14 15.1113C14 15.1113 14 15.1112 14 15.1112C14 15.1112 14 15.1112 14 15.1111C14 15.1111 14 15.1111 12.5 15.1111ZM11 19C11 19.0034 11 19.0068 11 19.0102C11 19.0136 11 19.017 11 19.0204C11 19.0238 11 19.0272 11 19.0307C11 19.0341 11 19.0375 11 19.041C11 19.0444 11 19.0478 11 19.0513C11 19.0547 11 19.0582 11 19.0616C11 19.0651 11 19.0686 11 19.072C11 19.0755 11 19.079 11 19.0825C11 19.0859 11 19.0894 11 19.0929C11 19.0964 11 19.0999 11 19.1034C11 19.1069 11 19.1104 11 19.1139C11 19.1175 11 19.121 11 19.1245C11 19.128 11 19.1316 11 19.1351C11 19.1386 11 19.1422 11 19.1457C11 19.1493 11 19.1528 11 19.1564C11 19.1599 11 19.1635 11 19.1671C11 19.1706 11 19.1742 11 19.1778C11 19.1813 11 19.1849 11 19.1885C11 19.1921 11 19.1957 11 19.1993C11 19.2029 11 19.2065 11 19.2101C11 19.2137 11 19.2173 11 19.221C11 19.2246 11 19.2282 11 19.2318C11 19.2355 11 19.2391 11 19.2427C11 19.2464 11 19.25 11 19.2537C11 19.2573 11 19.261 11 19.2646C11 19.2683 11 19.2719 11 19.2756C11 19.2793 11 19.283 11 19.2866C11 19.2903 11 19.294 11 19.2977C11 19.3014 11 19.3051 11 19.3088C11 19.3125 11 19.3162 11 19.3199C11 19.3236 11 19.3273 11 19.331C11 19.3347 11 19.3385 11 19.3422C11 19.3459 11 19.3496 11 19.3534C11 19.3571 11 19.3609 11 19.3646C11 19.3683 11 19.3721 11 19.3758C11 19.3796 11 19.3834 11 19.3871C11 19.3909 11 19.3947 11 19.3984C11 19.4022 11 19.406 11 19.4098C11 19.4135 11 19.4173 11 19.4211C11 19.4249 11 19.4287 11 19.4325C11 19.4363 11 19.4401 11 19.4439C11 19.4477 11 19.4515 11 19.4554C11 19.4592 11 19.463 11 19.4668C11 19.4706 11 19.4745 11 19.4783C11 19.4821 11 19.486 11 19.4898C11 19.4937 11 19.4975 11 19.5014C11 19.5052 11 19.5091 11 19.5129C11 19.5168 11 19.5206 11 19.5245C11 19.5284 11 19.5323 11 19.5361C11 19.54 11 19.5439 11 19.5478C11 19.5517 11 19.5555 11 19.5594C11 19.5633 11 19.5672 11 19.5711C11 19.575 11 19.5789 11 19.5828C11 19.5867 11 19.5906 11 19.5946C11 19.5985 11 19.6024 11 19.6063C11 19.6102 11 19.6142 11 19.6181C11 19.622 11 19.626 11 19.6299C11 19.6338 11 19.6378 11 19.6417C11 19.6457 11 19.6496 11 19.6536C11 19.6575 11 19.6615 11 19.6655C11 19.6694 11 19.6734 11 19.6774C11 19.6813 11 19.6853 11 19.6893C11 19.6932 11 19.6972 11 19.7012C11 19.7052 11 19.7092 11 19.7132C11 19.7172 11 19.7212 11 19.7251C11 19.7291 11 19.7331 11 19.7372C11 19.7412 11 19.7452 11 19.7492C11 19.7532 11 19.7572 11 19.7612C11 19.7652 11 19.7693 11 19.7733C11 19.7773 11 19.7813 11 19.7854C11 19.7894 11 19.7934 11 19.7975C11 19.8015 11 19.8055 11 19.8096C11 19.8136 11 19.8177 11 19.8217C11 19.8258 11 19.8298 11 19.8339C11 19.838 11 19.842 11 19.8461C11 19.8501 11 19.8542 11 19.8583C11 19.8624 11 19.8664 11 19.8705C11 19.8746 11 19.8787 11 19.8827C11 19.8868 11 19.8909 11 19.895C11 19.8991 11 19.9032 11 19.9073C11 19.9114 11 19.9155 11 19.9196C11 19.9237 11 19.9278 11 19.9319C11 19.936 11 19.9401 11 19.9442C11 19.9483 11 19.9524 11 19.9565C11 19.9607 11 19.9648 11 19.9689C11 19.973 11 19.9772 11 19.9813C11 19.9854 11 19.9895 11 19.9937C11 19.9978 11 20.002 11 20.0061C11 20.0102 11 20.0144 11 20.0185C11 20.0227 11 20.0268 11 20.031C11 20.0351 11 20.0393 11 20.0434C11 20.0476 11 20.0517 11 20.0559C11 20.0601 11 20.0642 11 20.0684C11 20.0726 11 20.0767 11 20.0809C11 20.0851 11 20.0892 11 20.0934C11 20.0976 11 20.1018 11 20.1059C11 20.1101 11 20.1143 11 20.1185C11 20.1227 11 20.1269 11 20.1311C11 20.1352 11 20.1394 11 20.1436C11 20.1478 11 20.152 11 20.1562C11 20.1604 11 20.1646 11 20.1688C11 20.173 11 20.1772 11 20.1814C11 20.1857 11 20.1899 11 20.1941C11 20.1983 11 20.2025 11 20.2067C11 20.2109 11 20.2152 11 20.2194C11 20.2236 11 20.2278 11 20.232C11 20.2363 11 20.2405 11 20.2447C11 20.249 11 20.2532 11 20.2574C11 20.2617 11 20.2659 11 20.2701C11 20.2744 11 20.2786 11 20.2828C11 20.2871 11 20.2913 11 20.2956C11 20.2998 11 20.3041 11 20.3083C11 20.3126 11 20.3168 11 20.3211C11 20.3253 11 20.3296 11 20.3338C11 20.3381 11 20.3423 11 20.3466C11 20.3508 11 20.3551 11 20.3594C11 20.3636 11 20.3679 11 20.3722C11 20.3764 11 20.3807 11 20.385C11 20.3892 11 20.3935 11 20.3978C11 20.402 11 20.4063 11 20.4106C11 20.4149 11 20.4191 11 20.4234C11 20.4277 11 20.432 11 20.4363C11 20.4405 11 20.4448 11 20.4491C11 20.4534 11 20.4577 11 20.462C11 20.4663 11 20.4705 11 20.4748C11 20.4791 11 20.4834 11 20.4877C11 20.492 11 20.4963 11 20.5006C11 20.5049 11 20.5092 11 20.5135C11 20.5178 11 20.5221 11 20.5264C11 20.5307 11 20.535 11 20.5393C11 20.5436 11 20.5479 11 20.5522C11 20.5565 11 20.5608 11 20.5651C11 20.5694 11 20.5737 11 20.578C11 20.5823 11 20.5867 11 20.591C11 20.5953 11 20.5996 11 20.6039C11 20.6082 11 20.6125 11 20.6169C11 20.6212 11 20.6255 11 20.6298C11 20.6341 11 20.6384 11 20.6428C11 20.6471 11 20.6514 11 20.6557C11 20.66 11 20.6644 11 20.6687C11 20.673 11 20.6773 11 20.6817C11 20.686 11 20.6903 11 20.6946C11 20.699 11 20.7033 11 20.7076C11 20.7119 11 20.7163 11 20.7206C11 20.7249 11 20.7293 11 20.7336C11 20.7379 11 20.7422 11 20.7466C11 20.7509 11 20.7552 11 20.7596C11 20.7639 11 20.7682 11 20.7726C11 20.7769 11 20.7812 11 20.7856C11 20.7899 11 20.7942 11 20.7986C11 20.8029 11 20.8073 11 20.8116C11 20.8159 11 20.8203 11 20.8246C11 20.8289 11 20.8333 11 20.8376C11 20.842 11 20.8463 11 20.8506C11 20.855 11 20.8593 11 20.8637C11 20.868 11 20.8723 11 20.8767C11 20.881 11 20.8854 11 20.8897C11 20.894 11 20.8984 11 20.9027C11 20.9071 11 20.9114 11 20.9157C11 20.9201 11 20.9244 11 20.9288C11 20.9331 11 20.9375 11 20.9418C11 20.9461 11 20.9505 11 20.9548C11 20.9592 11 20.9635 11 20.9678C11 20.9722 11 20.9765 11 20.9809C11 20.9852 11 20.9896 11 20.9939C11 20.9982 11 21.0026 11 21.0069C11 21.0113 11 21.0156 11 21.02C11 21.0243 11 21.0286 11 21.033C11 21.0373 11 21.0417 11 21.046C11 21.0503 11 21.0547 11 21.059C11 21.0634 11 21.0677 11 21.072C11 21.0764 11 21.0807 11 21.0851C11 21.0894 11 21.0937 11 21.0981C11 21.1024 11 21.1068 11 21.1111C11 21.1154 11 21.1198 11 21.1241C11 21.1284 11 21.1328 11 21.1371C11 21.1415 11 21.1458 11 21.1501C11 21.1545 11 21.1588 11 21.1631C11 21.1675 11 21.1718 11 21.1761C11 21.1805 11 21.1848 11 21.1891C11 21.1935 11 21.1978 11 21.2021C11 21.2065 11 21.2108 11 21.2151C11 21.2194 11 21.2238 11 21.2281C11 21.2324 11 21.2368 11 21.2411C11 21.2454 11 21.2497 11 21.2541C11 21.2584 11 21.2627 11 21.267C11 21.2714 11 21.2757 11 21.28C11 21.2843 11 21.2887 11 21.293C11 21.2973 11 21.3016 11 21.3059C11 21.3103 11 21.3146 11 21.3189C11 21.3232 11 21.3275 11 21.3318C11 21.3361 11 21.3405 11 21.3448C11 21.3491 11 21.3534 11 21.3577C11 21.362 11 21.3663 11 21.3706C11 21.3749 11 21.3793 11 21.3836C11 21.3879 11 21.3922 11 21.3965C11 21.4008 11 21.4051 11 21.4094C11 21.4137 11 21.418 11 21.4223C11 21.4266 11 21.4309 11 21.4352C11 21.4395 11 21.4438 11 21.4481C11 21.4524 11 21.4567 11 21.4609C11 21.4652 11 21.4695 11 21.4738C11 21.4781 11 21.4824 11 21.4867C11 21.491 11 21.4952 11 21.4995C11 21.5038 11 21.5081 11 21.5124C11 21.5167 11 21.5209 11 21.5252C11 21.5295 11 21.5338 11 21.538C11 21.5423 11 21.5466 11 21.5509C11 21.5551 11 21.5594 11 21.5637C11 21.5679 11 21.5722 11 21.5765C11 21.5807 11 21.585 11 21.5892C11 21.5935 11 21.5978 11 21.602C11 21.6063 11 21.6105 11 21.6148C11 21.619 11 21.6233 11 21.6275C11 21.6318 11 21.636 11 21.6403C11 21.6445 11 21.6488 11 21.653C11 21.6573 11 21.6615 11 21.6658C11 21.67 11 21.6742 11 21.6785C11 21.6827 11 21.6869 11 21.6912C11 21.6954 11 21.6996 11 21.7039C11 21.7081 11 21.7123 11 21.7165C11 21.7208 11 21.725 11 21.7292C11 21.7334 11 21.7376 11 21.7418C11 21.7461 11 21.7503 11 21.7545C11 21.7587 11 21.7629 11 21.7671C11 21.7713 11 21.7755 11 21.7797C11 21.7839 11 21.7881 11 21.7923C11 21.7965 11 21.8007 11 21.8049C11 21.8091 11 21.8133 11 21.8175C11 21.8217 11 21.8258 11 21.83C11 21.8342 11 21.8384 11 21.8426C11 21.8468 11 21.8509 11 21.8551C11 21.8593 11 21.8634 11 21.8676C11 21.8718 11 21.876 11 21.8801C11 21.8843 11 21.8884 11 21.8926C11 21.8968 11 21.9009 11 21.9051C11 21.9092 11 21.9134 11 21.9175C11 21.9217 11 21.9258 11 21.93C11 21.9341 11 21.9382 11 21.9424C11 21.9465 11 21.9507 11 21.9548C11 21.9589 11 21.963 11 21.9672C11 21.9713 11 21.9754 11 21.9795C11 21.9837 11 21.9878 11 21.9919C11 21.996 11 22.0001 11 22.0042C11 22.0083 11 22.0125 11 22.0166C11 22.0207 11 22.0248 11 22.0289C11 22.033 11 22.037 11 22.0411C11 22.0452 11 22.0493 11 22.0534C11 22.0575 11 22.0616 11 22.0657C11 22.0697 11 22.0738 11 22.0779C11 22.082 11 22.086 11 22.0901C11 22.0942 11 22.0982 11 22.1023C11 22.1064 11 22.1104 11 22.1145C11 22.1185 11 22.1226 11 22.1266C11 22.1307 11 22.1347 11 22.1388C11 22.1428 11 22.1468 11 22.1509C11 22.1549 11 22.1589 11 22.163C11 22.167 11 22.171 11 22.175C11 22.1791 11 22.1831 11 22.1871C11 22.1911 11 22.1951 11 22.1991C11 22.2031 11 22.2071 11 22.2112C11 22.2152 11 22.2192 11 22.2231C11 22.2271 11 22.2311 11 22.2351C11 22.2391 11 22.2431 11 22.2471C11 22.251 11 22.255 11 22.259C11 22.263 11 22.2669 11 22.2709C11 22.2749 11 22.2788 11 22.2828C11 22.2867 11 22.2907 11 22.2947C11 22.2986 11 22.3026 11 22.3065C11 22.3104 11 22.3144 11 22.3183C11 22.3222 11 22.3262 11 22.3301C11 22.334 11 22.338 11 22.3419C11 22.3458 11 22.3497 11 22.3536C11 22.3575 11 22.3615 11 22.3654C11 22.3693 11 22.3732 11 22.3771C11 22.381 11 22.3848 11 22.3887C11 22.3926 11 22.3965 11 22.4004C11 22.4043 11 22.4081 11 22.412C11 22.4159 11 22.4198 11 22.4236C11 22.4275 11 22.4313 11 22.4352C11 22.4391 11 22.4429 11 22.4468C11 22.4506 11 22.4544 11 22.4583C11 22.4621 11 22.466 11 22.4698C11 22.4736 11 22.4774 11 22.4813C11 22.4851 11 22.4889 11 22.4927C11 22.4965 11 22.5003 11 22.5042C11 22.508 11 22.5118 11 22.5156C11 22.5193 11 22.5231 11 22.5269C11 22.5307 11 22.5345 11 22.5383C11 22.542 11 22.5458 11 22.5496C11 22.5534 11 22.5571 11 22.5609C11 22.5646 11 22.5684 11 22.5722C11 22.5759 11 22.5796 11 22.5834C11 22.5871 11 22.5909 11 22.5946C11 22.5983 11 22.6021 11 22.6058C11 22.6095 11 22.6132 11 22.6169C11 22.6206 11 22.6244 11 22.6281C11 22.6318 11 22.6355 11 22.6392C11 22.6429 11 22.6465 11 22.6502C11 22.6539 11 22.6576 11 22.6613C11 22.6649 11 22.6686 11 22.6723C11 22.6759 11 22.6796 11 22.6833C11 22.6869 11 22.6906 11 22.6942C11 22.6979 11 22.7015 11 22.7051C11 22.7088 11 22.7124 11 22.716C11 22.7196 11 22.7233 11 22.7269C11 22.7305 11 22.7341 11 22.7377C11 22.7413 11 22.7449 11 22.7485C11 22.7521 11 22.7557 11 22.7593C11 22.7629 11 22.7664 11 22.77C11 22.7736 11 22.7772 11 22.7807C11 22.7843 11 22.7878 11 22.7914C11 22.7949 11 22.7985 11 22.802C11 22.8056 11 22.8091 11 22.8126C11 22.8162 11 22.8197 11 22.8232C11 22.8267 11 22.8303 11 22.8338C11 22.8373 11 22.8408 11 22.8443C11 22.8478 11 22.8513 11 22.8548C11 22.8582 11 22.8617 11 22.8652C11 22.8687 11 22.8721 11 22.8756C11 22.8791 11 22.8825 11 22.886C11 22.8894 11 22.8929 11 22.8963C11 22.8998 11 22.9032 11 22.9067C11 22.9101 11 22.9135 11 22.9169C11 22.9203 11 22.9238 11 22.9272C11 22.9306 11 22.934 11 22.9374C11 22.9408 11 22.9442 11 22.9476C11 22.9509 11 22.9543 11 22.9577C11 22.9611 11 22.9644 11 22.9678C11 22.9712 11 22.9745 11 22.9779C11 22.9812 11 22.9846 11 22.9879C11 22.9912 11 22.9946 11 22.9979C11 23.0012 11 23.0045 11 23.0078C11 23.0112 11 23.0145 11 23.0178C11 23.0211 11 23.0244 11 23.0277C11 23.0309 11 23.0342 11 23.0375C11 23.0408 11 23.0441 11 23.0473C11 23.0506 11 23.0538 11 23.0571C11 23.0603 11 23.0636 11 23.0668C11 23.0701 11 23.0733 11 23.0765C11 23.0798 11 23.083 11 23.0862C11 23.0894 11 23.0926 11 23.0958C11 23.099 11 23.1022 11 23.1054C11 23.1086 11 23.1118 11 23.115C11 23.1181 11 23.1213 11 23.1245C11 23.1276 11 23.1308 11 23.1339C11 23.1371 11 23.1402 11 23.1434C11 23.1465 11 23.1496 11 23.1528C11 23.1559 11 23.159 11 23.1621C11 23.1652 11 23.1683 11 23.1714C11 23.1745 11 23.1776 11 23.1807C11 23.1838 11 23.1869 11 23.1899C11 23.193 11 23.1961 11 23.1991C11 23.2022 11 23.2052 11 23.2083C11 23.2113 11 23.2143 11 23.2174C11 23.2204 11 23.2234 11 23.2264C11 23.2295 11 23.2325 11 23.2355C11 23.2385 11 23.2415 11 23.2445C11 23.2474 11 23.2504 11 23.2534C11 23.2564 11 23.2593 11 23.2623C11 23.2653 11 23.2682 11 23.2712C11 23.2741 11 23.2771 11 23.28C11 23.2829 11 23.2858 11 23.2888C11 23.2917 11 23.2946 11 23.2975C11 23.3004 11 23.3033 11 23.3062C11 23.3091 11 23.312 11 23.3148C11 23.3177 11 23.3206 11 23.3234C11 23.3263 11 23.3291 11 23.332C11 23.3348 11 23.3377 11 23.3405C11 23.3433 11 23.3462 11 23.349C11 23.3518 11 23.3546 11 23.3574C11 23.3602 11 23.363 11 23.3658C11 23.3686 11 23.3714 11 23.3741C11 23.3769 11 23.3797 11 23.3824C11 23.3852 11 23.3879 11 23.3907C11 23.3934 11 23.3961 11 23.3989C11 23.4016 11 23.4043 11 23.407C11 23.4097 11 23.4124 11 23.4151C11 23.4178 11 23.4205 11 23.4232C11 23.4259 11 23.4286 11 23.4312C11 23.4339 11 23.4365 11 23.4392C11 23.4418 11 23.4445 11 23.4471C11 23.4498 11 23.4524 11 23.455C11 23.4576 11 23.4602 11 23.4628C11 23.4654 11 23.468 11 23.4706C11 23.4732 11 23.4758 11 23.4783C11 23.4809 11 23.4835 11 23.486C11 23.4886 11 23.4911 11 23.4937C11 23.4962 11 23.4988 11 23.5013C11 23.5038 11 23.5063 11 23.5088C11 23.5113 11 23.5138 11 23.5163C11 23.5188 11 23.5213 11 23.5238C11 23.5262 11 23.5287 11 23.5312C11 23.5336 11 23.5361 11 23.5385C11 23.541 11 23.5434 11 23.5458C11 23.5482 11 23.5507 11 23.5531C11 23.5555 11 23.5579 11 23.5603C11 23.5627 11 23.565 11 23.5674C11 23.5698 11 23.5722 11 23.5745C11 23.5769 11 23.5792 11 23.5816C11 23.5839 11 23.5862 11 23.5886C11 23.5909 11 23.5932 11 23.5955C11 23.5978 11 23.6001 11 23.6024C11 23.6047 11 23.607 11 23.6092C11 23.6115 11 23.6138 11 23.616C11 23.6183 11 23.6205 11 23.6228C11 23.625 11 23.6273 11 23.6295C11 23.6317 11 23.6339 11 23.6361C11 23.6383 11 23.6405 11 23.6427C11 23.6449 11 23.6471 11 23.6492C11 23.6514 11 23.6536 11 23.6557C11 23.6579 11 23.66 11 23.6621C11 23.6643 11 23.6664 11 23.6685C11 23.6706 11 23.6727 11 23.6748C11 23.6769 11 23.679 11 23.6811C11 23.6832 11 23.6852 11 23.6873C11 23.6894 11 23.6914 11 23.6935C11 23.6955 11 23.6975 11 23.6996C11 23.7016 11 23.7036 11 23.7056C11 23.7076 11 23.7096 11 23.7116C11 23.7136 11 23.7156 11 23.7176C11 23.7195 11 23.7215 11 23.7234C11 23.7254 11 23.7273 11 23.7293C11 23.7312 11 23.7331 11 23.735C11 23.737 11 23.7389 11 23.7408C11 23.7427 11 23.7445 11 23.7464C11 23.7483 11 23.7502 11 23.752C11 23.7539 11 23.7557 11 23.7576C11 23.7594 11 23.7612 11 23.7631C11 23.7649 11 23.7667 11 23.7685C11 23.7703 11 23.7721 11 23.7739C11 23.7757 11 23.7774 11 23.7792C11 23.781 11 23.7827 11 23.7845C11 23.7862 11 23.7879 11 23.7897C11 23.7914 11 23.7931 11 23.7948C11 23.7965 11 23.7982 11 23.7999C11 23.8016 11 23.8033 11 23.8049C11 23.8066 11 23.8083 11 23.8099C11 23.8115 11 23.8132 11 23.8148C11 23.8164 11 23.8181 11 23.8197C11 23.8213 11 23.8229 11 23.8245C11 23.8261 11 23.8276 11 23.8292C11 23.8308 11 23.8323 11 23.8339C11 23.8354 11 23.837 11 23.8385C11 23.84 11 23.8415 11 23.843C11 23.8446 11 23.846 11 23.8475C11 23.849 11 23.8505 11 23.852C11 23.8534 11 23.8549 11 23.8563C11 23.8578 11 23.8592 11 23.8607C11 23.8621 11 23.8635 11 23.8649C11 23.8663 11 23.8677 11 23.8691C11 23.8705 11 23.8719 11 23.8732C11 23.8746 11 23.8759 11 23.8773C11 23.8786 11 23.88 11 23.8813C11 23.8826 11 23.8839 11 23.8852C11 23.8865 11 23.8878 11 23.8891C11 23.8904 11 23.8917 11 23.8929C11 23.8942 11 23.8954 11 23.8967C11 23.8979 11 23.8992 11 23.9004C11 23.9016 11 23.9028 11 23.904C11 23.9052 11 23.9064 11 23.9076C11 23.9087 11 23.9099 11 23.9111C11 23.9122 11 23.9134 11 23.9145C11 23.9156 11 23.9168 11 23.9179C11 23.919 11 23.9201 11 23.9212C11 23.9223 11 23.9234 11 23.9244C11 23.9255 11 23.9266 11 23.9276C11 23.9287 11 23.9297 11 23.9307C11 23.9317 11 23.9328 11 23.9338C11 23.9348 11 23.9358 11 23.9367C11 23.9377 11 23.9387 11 23.9397C11 23.9406 11 23.9416 11 23.9425C11 23.9435 11 23.9444 11 23.9453C11 23.9462 11 23.9471 11 23.948C11 23.9489 11 23.9498 11 23.9507C11 23.9515 11 23.9524 11 23.9533C11 23.9541 11 23.9549 11 23.9558C11 23.9566 11 23.9574 11 23.9582C11 23.959 11 23.9598 11 23.9606C11 23.9614 11 23.9622 11 23.9629C11 23.9637 11 23.9644 11 23.9652C11 23.9659 11 23.9666 11 23.9673C11 23.9681 11 23.9688 11 23.9695C11 23.9701 11 23.9708 11 23.9715C11 23.9722 11 23.9728 11 23.9735C11 23.9741 11 23.9748 11 23.9754C11 23.976 11 23.9766 11 23.9772C11 23.9778 11 23.9784 11 23.979C11 23.9796 11 23.9801 11 23.9807C11 23.9812 11 23.9818 11 23.9823C11 23.9828 11 23.9833 11 23.9839C11 23.9844 11 23.9849 11 23.9853C11 23.9858 11 23.9863 11 23.9868C11 23.9872 11 23.9877 11 23.9881C11 23.9885 11 23.989 11 23.9894C11 23.9898 11 23.9902 11 23.9906C11 23.991 11 23.9913 11 23.9917C11 23.9921 11 23.9924 11 23.9928C11 23.9931 11 23.9934 11 23.9938C11 23.9941 11 23.9944 11 23.9947C11 23.995 11 23.9953 11 23.9955C11 23.9958 11 23.9961 11 23.9963C11 23.9965 11 23.9968 11 23.997C11 23.9972 11 23.9974 11 23.9976C11 23.9978 11 23.998 11 23.9982C11 23.9984 11 23.9985 11 23.9987C11 23.9988 11 23.9989 11 23.9991C11 23.9992 11 23.9993 11 23.9994C11 23.9995 11 23.9996 11 23.9997C11 23.9997 11 23.9998 11 23.9999C11 23.9999 11 23.9999 11 24C11 24 11 24 12.5 24C14 24 14 24 14 24C14 23.9999 14 23.9999 14 23.9999C14 23.9998 14 23.9997 14 23.9997C14 23.9996 14 23.9995 14 23.9994C14 23.9993 14 23.9992 14 23.9991C14 23.9989 14 23.9988 14 23.9987C14 23.9985 14 23.9984 14 23.9982C14 23.998 14 23.9978 14 23.9976C14 23.9974 14 23.9972 14 23.997C14 23.9968 14 23.9965 14 23.9963C14 23.9961 14 23.9958 14 23.9955C14 23.9953 14 23.995 14 23.9947C14 23.9944 14 23.9941 14 23.9938C14 23.9934 14 23.9931 14 23.9928C14 23.9924 14 23.9921 14 23.9917C14 23.9913 14 23.991 14 23.9906C14 23.9902 14 23.9898 14 23.9894C14 23.989 14 23.9885 14 23.9881C14 23.9877 14 23.9872 14 23.9868C14 23.9863 14 23.9858 14 23.9853C14 23.9849 14 23.9844 14 23.9839C14 23.9833 14 23.9828 14 23.9823C14 23.9818 14 23.9812 14 23.9807C14 23.9801 14 23.9796 14 23.979C14 23.9784 14 23.9778 14 23.9772C14 23.9766 14 23.976 14 23.9754C14 23.9748 14 23.9741 14 23.9735C14 23.9728 14 23.9722 14 23.9715C14 23.9708 14 23.9701 14 23.9695C14 23.9688 14 23.9681 14 23.9673C14 23.9666 14 23.9659 14 23.9652C14 23.9644 14 23.9637 14 23.9629C14 23.9622 14 23.9614 14 23.9606C14 23.9598 14 23.959 14 23.9582C14 23.9574 14 23.9566 14 23.9558C14 23.9549 14 23.9541 14 23.9533C14 23.9524 14 23.9515 14 23.9507C14 23.9498 14 23.9489 14 23.948C14 23.9471 14 23.9462 14 23.9453C14 23.9444 14 23.9435 14 23.9425C14 23.9416 14 23.9406 14 23.9397C14 23.9387 14 23.9377 14 23.9367C14 23.9358 14 23.9348 14 23.9338C14 23.9328 14 23.9317 14 23.9307C14 23.9297 14 23.9287 14 23.9276C14 23.9266 14 23.9255 14 23.9244C14 23.9234 14 23.9223 14 23.9212C14 23.9201 14 23.919 14 23.9179C14 23.9168 14 23.9156 14 23.9145C14 23.9134 14 23.9122 14 23.9111C14 23.9099 14 23.9087 14 23.9076C14 23.9064 14 23.9052 14 23.904C14 23.9028 14 23.9016 14 23.9004C14 23.8992 14 23.8979 14 23.8967C14 23.8954 14 23.8942 14 23.8929C14 23.8917 14 23.8904 14 23.8891C14 23.8878 14 23.8865 14 23.8852C14 23.8839 14 23.8826 14 23.8813C14 23.88 14 23.8786 14 23.8773C14 23.8759 14 23.8746 14 23.8732C14 23.8719 14 23.8705 14 23.8691C14 23.8677 14 23.8663 14 23.8649C14 23.8635 14 23.8621 14 23.8607C14 23.8592 14 23.8578 14 23.8563C14 23.8549 14 23.8534 14 23.852C14 23.8505 14 23.849 14 23.8475C14 23.846 14 23.8446 14 23.843C14 23.8415 14 23.84 14 23.8385C14 23.837 14 23.8354 14 23.8339C14 23.8323 14 23.8308 14 23.8292C14 23.8276 14 23.8261 14 23.8245C14 23.8229 14 23.8213 14 23.8197C14 23.8181 14 23.8164 14 23.8148C14 23.8132 14 23.8115 14 23.8099C14 23.8083 14 23.8066 14 23.8049C14 23.8033 14 23.8016 14 23.7999C14 23.7982 14 23.7965 14 23.7948C14 23.7931 14 23.7914 14 23.7897C14 23.7879 14 23.7862 14 23.7845C14 23.7827 14 23.781 14 23.7792C14 23.7774 14 23.7757 14 23.7739C14 23.7721 14 23.7703 14 23.7685C14 23.7667 14 23.7649 14 23.7631C14 23.7612 14 23.7594 14 23.7576C14 23.7557 14 23.7539 14 23.752C14 23.7502 14 23.7483 14 23.7464C14 23.7445 14 23.7427 14 23.7408C14 23.7389 14 23.737 14 23.735C14 23.7331 14 23.7312 14 23.7293C14 23.7273 14 23.7254 14 23.7234C14 23.7215 14 23.7195 14 23.7176C14 23.7156 14 23.7136 14 23.7116C14 23.7096 14 23.7076 14 23.7056C14 23.7036 14 23.7016 14 23.6996C14 23.6975 14 23.6955 14 23.6935C14 23.6914 14 23.6894 14 23.6873C14 23.6852 14 23.6832 14 23.6811C14 23.679 14 23.6769 14 23.6748C14 23.6727 14 23.6706 14 23.6685C14 23.6664 14 23.6643 14 23.6621C14 23.66 14 23.6579 14 23.6557C14 23.6536 14 23.6514 14 23.6492C14 23.6471 14 23.6449 14 23.6427C14 23.6405 14 23.6383 14 23.6361C14 23.6339 14 23.6317 14 23.6295C14 23.6273 14 23.625 14 23.6228C14 23.6205 14 23.6183 14 23.616C14 23.6138 14 23.6115 14 23.6092C14 23.607 14 23.6047 14 23.6024C14 23.6001 14 23.5978 14 23.5955C14 23.5932 14 23.5909 14 23.5886C14 23.5862 14 23.5839 14 23.5816C14 23.5792 14 23.5769 14 23.5745C14 23.5722 14 23.5698 14 23.5674C14 23.565 14 23.5627 14 23.5603C14 23.5579 14 23.5555 14 23.5531C14 23.5507 14 23.5482 14 23.5458C14 23.5434 14 23.541 14 23.5385C14 23.5361 14 23.5336 14 23.5312C14 23.5287 14 23.5262 14 23.5238C14 23.5213 14 23.5188 14 23.5163C14 23.5138 14 23.5113 14 23.5088C14 23.5063 14 23.5038 14 23.5013C14 23.4988 14 23.4962 14 23.4937C14 23.4911 14 23.4886 14 23.486C14 23.4835 14 23.4809 14 23.4783C14 23.4758 14 23.4732 14 23.4706C14 23.468 14 23.4654 14 23.4628C14 23.4602 14 23.4576 14 23.455C14 23.4524 14 23.4498 14 23.4471C14 23.4445 14 23.4418 14 23.4392C14 23.4365 14 23.4339 14 23.4312C14 23.4286 14 23.4259 14 23.4232C14 23.4205 14 23.4178 14 23.4151C14 23.4124 14 23.4097 14 23.407C14 23.4043 14 23.4016 14 23.3989C14 23.3961 14 23.3934 14 23.3907C14 23.3879 14 23.3852 14 23.3824C14 23.3797 14 23.3769 14 23.3741C14 23.3714 14 23.3686 14 23.3658C14 23.363 14 23.3602 14 23.3574C14 23.3546 14 23.3518 14 23.349C14 23.3462 14 23.3433 14 23.3405C14 23.3377 14 23.3348 14 23.332C14 23.3291 14 23.3263 14 23.3234C14 23.3206 14 23.3177 14 23.3148C14 23.312 14 23.3091 14 23.3062C14 23.3033 14 23.3004 14 23.2975C14 23.2946 14 23.2917 14 23.2888C14 23.2858 14 23.2829 14 23.28C14 23.2771 14 23.2741 14 23.2712C14 23.2682 14 23.2653 14 23.2623C14 23.2593 14 23.2564 14 23.2534C14 23.2504 14 23.2474 14 23.2445C14 23.2415 14 23.2385 14 23.2355C14 23.2325 14 23.2295 14 23.2264C14 23.2234 14 23.2204 14 23.2174C14 23.2143 14 23.2113 14 23.2083C14 23.2052 14 23.2022 14 23.1991C14 23.1961 14 23.193 14 23.1899C14 23.1869 14 23.1838 14 23.1807C14 23.1776 14 23.1745 14 23.1714C14 23.1683 14 23.1652 14 23.1621C14 23.159 14 23.1559 14 23.1528C14 23.1496 14 23.1465 14 23.1434C14 23.1402 14 23.1371 14 23.1339C14 23.1308 14 23.1276 14 23.1245C14 23.1213 14 23.1181 14 23.115C14 23.1118 14 23.1086 14 23.1054C14 23.1022 14 23.099 14 23.0958C14 23.0926 14 23.0894 14 23.0862C14 23.083 14 23.0798 14 23.0765C14 23.0733 14 23.0701 14 23.0668C14 23.0636 14 23.0603 14 23.0571C14 23.0538 14 23.0506 14 23.0473C14 23.0441 14 23.0408 14 23.0375C14 23.0342 14 23.0309 14 23.0277C14 23.0244 14 23.0211 14 23.0178C14 23.0145 14 23.0112 14 23.0078C14 23.0045 14 23.0012 14 22.9979C14 22.9946 14 22.9912 14 22.9879C14 22.9846 14 22.9812 14 22.9779C14 22.9745 14 22.9712 14 22.9678C14 22.9644 14 22.9611 14 22.9577C14 22.9543 14 22.9509 14 22.9476C14 22.9442 14 22.9408 14 22.9374C14 22.934 14 22.9306 14 22.9272C14 22.9238 14 22.9203 14 22.9169C14 22.9135 14 22.9101 14 22.9067C14 22.9032 14 22.8998 14 22.8963C14 22.8929 14 22.8894 14 22.886C14 22.8825 14 22.8791 14 22.8756C14 22.8721 14 22.8687 14 22.8652C14 22.8617 14 22.8582 14 22.8548C14 22.8513 14 22.8478 14 22.8443C14 22.8408 14 22.8373 14 22.8338C14 22.8303 14 22.8267 14 22.8232C14 22.8197 14 22.8162 14 22.8126C14 22.8091 14 22.8056 14 22.802C14 22.7985 14 22.7949 14 22.7914C14 22.7878 14 22.7843 14 22.7807C14 22.7772 14 22.7736 14 22.77C14 22.7664 14 22.7629 14 22.7593C14 22.7557 14 22.7521 14 22.7485C14 22.7449 14 22.7413 14 22.7377C14 22.7341 14 22.7305 14 22.7269C14 22.7233 14 22.7196 14 22.716C14 22.7124 14 22.7088 14 22.7051C14 22.7015 14 22.6979 14 22.6942C14 22.6906 14 22.6869 14 22.6833C14 22.6796 14 22.6759 14 22.6723C14 22.6686 14 22.6649 14 22.6613C14 22.6576 14 22.6539 14 22.6502C14 22.6465 14 22.6429 14 22.6392C14 22.6355 14 22.6318 14 22.6281C14 22.6244 14 22.6206 14 22.6169C14 22.6132 14 22.6095 14 22.6058C14 22.6021 14 22.5983 14 22.5946C14 22.5909 14 22.5871 14 22.5834C14 22.5796 14 22.5759 14 22.5722C14 22.5684 14 22.5646 14 22.5609C14 22.5571 14 22.5534 14 22.5496C14 22.5458 14 22.542 14 22.5383C14 22.5345 14 22.5307 14 22.5269C14 22.5231 14 22.5193 14 22.5156C14 22.5118 14 22.508 14 22.5042C14 22.5003 14 22.4965 14 22.4927C14 22.4889 14 22.4851 14 22.4813C14 22.4774 14 22.4736 14 22.4698C14 22.466 14 22.4621 14 22.4583C14 22.4544 14 22.4506 14 22.4468C14 22.4429 14 22.4391 14 22.4352C14 22.4313 14 22.4275 14 22.4236C14 22.4198 14 22.4159 14 22.412C14 22.4081 14 22.4043 14 22.4004C14 22.3965 14 22.3926 14 22.3887C14 22.3848 14 22.381 14 22.3771C14 22.3732 14 22.3693 14 22.3654C14 22.3615 14 22.3575 14 22.3536C14 22.3497 14 22.3458 14 22.3419C14 22.338 14 22.334 14 22.3301C14 22.3262 14 22.3222 14 22.3183C14 22.3144 14 22.3104 14 22.3065C14 22.3026 14 22.2986 14 22.2947C14 22.2907 14 22.2867 14 22.2828C14 22.2788 14 22.2749 14 22.2709C14 22.2669 14 22.263 14 22.259C14 22.255 14 22.251 14 22.2471C14 22.2431 14 22.2391 14 22.2351C14 22.2311 14 22.2271 14 22.2231C14 22.2192 14 22.2152 14 22.2112C14 22.2071 14 22.2031 14 22.1991C14 22.1951 14 22.1911 14 22.1871C14 22.1831 14 22.1791 14 22.175C14 22.171 14 22.167 14 22.163C14 22.1589 14 22.1549 14 22.1509C14 22.1468 14 22.1428 14 22.1388C14 22.1347 14 22.1307 14 22.1266C14 22.1226 14 22.1185 14 22.1145C14 22.1104 14 22.1064 14 22.1023C14 22.0982 14 22.0942 14 22.0901C14 22.086 14 22.082 14 22.0779C14 22.0738 14 22.0697 14 22.0657C14 22.0616 14 22.0575 14 22.0534C14 22.0493 14 22.0452 14 22.0411C14 22.037 14 22.033 14 22.0289C14 22.0248 14 22.0207 14 22.0166C14 22.0125 14 22.0083 14 22.0042C14 22.0001 14 21.996 14 21.9919C14 21.9878 14 21.9837 14 21.9795C14 21.9754 14 21.9713 14 21.9672C14 21.963 14 21.9589 14 21.9548C14 21.9507 14 21.9465 14 21.9424C14 21.9382 14 21.9341 14 21.93C14 21.9258 14 21.9217 14 21.9175C14 21.9134 14 21.9092 14 21.9051C14 21.9009 14 21.8968 14 21.8926C14 21.8884 14 21.8843 14 21.8801C14 21.876 14 21.8718 14 21.8676C14 21.8634 14 21.8593 14 21.8551C14 21.8509 14 21.8468 14 21.8426C14 21.8384 14 21.8342 14 21.83C14 21.8258 14 21.8217 14 21.8175C14 21.8133 14 21.8091 14 21.8049C14 21.8007 14 21.7965 14 21.7923C14 21.7881 14 21.7839 14 21.7797C14 21.7755 14 21.7713 14 21.7671C14 21.7629 14 21.7587 14 21.7545C14 21.7503 14 21.7461 14 21.7418C14 21.7376 14 21.7334 14 21.7292C14 21.725 14 21.7208 14 21.7165C14 21.7123 14 21.7081 14 21.7039C14 21.6996 14 21.6954 14 21.6912C14 21.6869 14 21.6827 14 21.6785C14 21.6742 14 21.67 14 21.6658C14 21.6615 14 21.6573 14 21.653C14 21.6488 14 21.6445 14 21.6403C14 21.636 14 21.6318 14 21.6275C14 21.6233 14 21.619 14 21.6148C14 21.6105 14 21.6063 14 21.602C14 21.5978 14 21.5935 14 21.5892C14 21.585 14 21.5807 14 21.5765C14 21.5722 14 21.5679 14 21.5637C14 21.5594 14 21.5551 14 21.5509C14 21.5466 14 21.5423 14 21.538C14 21.5338 14 21.5295 14 21.5252C14 21.5209 14 21.5167 14 21.5124C14 21.5081 14 21.5038 14 21.4995C14 21.4952 14 21.491 14 21.4867C14 21.4824 14 21.4781 14 21.4738C14 21.4695 14 21.4652 14 21.4609C14 21.4567 14 21.4524 14 21.4481C14 21.4438 14 21.4395 14 21.4352C14 21.4309 14 21.4266 14 21.4223C14 21.418 14 21.4137 14 21.4094C14 21.4051 14 21.4008 14 21.3965C14 21.3922 14 21.3879 14 21.3836C14 21.3793 14 21.3749 14 21.3706C14 21.3663 14 21.362 14 21.3577C14 21.3534 14 21.3491 14 21.3448C14 21.3405 14 21.3361 14 21.3318C14 21.3275 14 21.3232 14 21.3189C14 21.3146 14 21.3103 14 21.3059C14 21.3016 14 21.2973 14 21.293C14 21.2887 14 21.2843 14 21.28C14 21.2757 14 21.2714 14 21.267C14 21.2627 14 21.2584 14 21.2541C14 21.2497 14 21.2454 14 21.2411C14 21.2368 14 21.2324 14 21.2281C14 21.2238 14 21.2194 14 21.2151C14 21.2108 14 21.2065 14 21.2021C14 21.1978 14 21.1935 14 21.1891C14 21.1848 14 21.1805 14 21.1761C14 21.1718 14 21.1675 14 21.1631C14 21.1588 14 21.1545 14 21.1501C14 21.1458 14 21.1415 14 21.1371C14 21.1328 14 21.1284 14 21.1241C14 21.1198 14 21.1154 14 21.1111C14 21.1068 14 21.1024 14 21.0981C14 21.0937 14 21.0894 14 21.0851C14 21.0807 14 21.0764 14 21.072C14 21.0677 14 21.0634 14 21.059C14 21.0547 14 21.0503 14 21.046C14 21.0417 14 21.0373 14 21.033C14 21.0286 14 21.0243 14 21.02C14 21.0156 14 21.0113 14 21.0069C14 21.0026 14 20.9982 14 20.9939C14 20.9896 14 20.9852 14 20.9809C14 20.9765 14 20.9722 14 20.9678C14 20.9635 14 20.9592 14 20.9548C14 20.9505 14 20.9461 14 20.9418C14 20.9375 14 20.9331 14 20.9288C14 20.9244 14 20.9201 14 20.9157C14 20.9114 14 20.9071 14 20.9027C14 20.8984 14 20.894 14 20.8897C14 20.8854 14 20.881 14 20.8767C14 20.8723 14 20.868 14 20.8637C14 20.8593 14 20.855 14 20.8506C14 20.8463 14 20.842 14 20.8376C14 20.8333 14 20.8289 14 20.8246C14 20.8203 14 20.8159 14 20.8116C14 20.8073 14 20.8029 14 20.7986C14 20.7942 14 20.7899 14 20.7856C14 20.7812 14 20.7769 14 20.7726C14 20.7682 14 20.7639 14 20.7596C14 20.7552 14 20.7509 14 20.7466C14 20.7422 14 20.7379 14 20.7336C14 20.7293 14 20.7249 14 20.7206C14 20.7163 14 20.7119 14 20.7076C14 20.7033 14 20.699 14 20.6946C14 20.6903 14 20.686 14 20.6817C14 20.6773 14 20.673 14 20.6687C14 20.6644 14 20.66 14 20.6557C14 20.6514 14 20.6471 14 20.6428C14 20.6384 14 20.6341 14 20.6298C14 20.6255 14 20.6212 14 20.6169C14 20.6125 14 20.6082 14 20.6039C14 20.5996 14 20.5953 14 20.591C14 20.5867 14 20.5823 14 20.578C14 20.5737 14 20.5694 14 20.5651C14 20.5608 14 20.5565 14 20.5522C14 20.5479 14 20.5436 14 20.5393C14 20.535 14 20.5307 14 20.5264C14 20.5221 14 20.5178 14 20.5135C14 20.5092 14 20.5049 14 20.5006C14 20.4963 14 20.492 14 20.4877C14 20.4834 14 20.4791 14 20.4748C14 20.4705 14 20.4663 14 20.462C14 20.4577 14 20.4534 14 20.4491C14 20.4448 14 20.4405 14 20.4363C14 20.432 14 20.4277 14 20.4234C14 20.4191 14 20.4149 14 20.4106C14 20.4063 14 20.402 14 20.3978C14 20.3935 14 20.3892 14 20.385C14 20.3807 14 20.3764 14 20.3722C14 20.3679 14 20.3636 14 20.3594C14 20.3551 14 20.3508 14 20.3466C14 20.3423 14 20.3381 14 20.3338C14 20.3296 14 20.3253 14 20.3211C14 20.3168 14 20.3126 14 20.3083C14 20.3041 14 20.2998 14 20.2956C14 20.2913 14 20.2871 14 20.2828C14 20.2786 14 20.2744 14 20.2701C14 20.2659 14 20.2617 14 20.2574C14 20.2532 14 20.249 14 20.2447C14 20.2405 14 20.2363 14 20.232C14 20.2278 14 20.2236 14 20.2194C14 20.2152 14 20.2109 14 20.2067C14 20.2025 14 20.1983 14 20.1941C14 20.1899 14 20.1857 14 20.1814C14 20.1772 14 20.173 14 20.1688C14 20.1646 14 20.1604 14 20.1562C14 20.152 14 20.1478 14 20.1436C14 20.1394 14 20.1352 14 20.1311C14 20.1269 14 20.1227 14 20.1185C14 20.1143 14 20.1101 14 20.1059C14 20.1018 14 20.0976 14 20.0934C14 20.0892 14 20.0851 14 20.0809C14 20.0767 14 20.0726 14 20.0684C14 20.0642 14 20.0601 14 20.0559C14 20.0517 14 20.0476 14 20.0434C14 20.0393 14 20.0351 14 20.031C14 20.0268 14 20.0227 14 20.0185C14 20.0144 14 20.0102 14 20.0061C14 20.002 14 19.9978 14 19.9937C14 19.9895 14 19.9854 14 19.9813C14 19.9772 14 19.973 14 19.9689C14 19.9648 14 19.9607 14 19.9565C14 19.9524 14 19.9483 14 19.9442C14 19.9401 14 19.936 14 19.9319C14 19.9278 14 19.9237 14 19.9196C14 19.9155 14 19.9114 14 19.9073C14 19.9032 14 19.8991 14 19.895C14 19.8909 14 19.8868 14 19.8827C14 19.8787 14 19.8746 14 19.8705C14 19.8664 14 19.8624 14 19.8583C14 19.8542 14 19.8501 14 19.8461C14 19.842 14 19.838 14 19.8339C14 19.8298 14 19.8258 14 19.8217C14 19.8177 14 19.8136 14 19.8096C14 19.8055 14 19.8015 14 19.7975C14 19.7934 14 19.7894 14 19.7854C14 19.7813 14 19.7773 14 19.7733C14 19.7693 14 19.7652 14 19.7612C14 19.7572 14 19.7532 14 19.7492C14 19.7452 14 19.7412 14 19.7372C14 19.7331 14 19.7291 14 19.7251C14 19.7212 14 19.7172 14 19.7132C14 19.7092 14 19.7052 14 19.7012C14 19.6972 14 19.6932 14 19.6893C14 19.6853 14 19.6813 14 19.6774C14 19.6734 14 19.6694 14 19.6655C14 19.6615 14 19.6575 14 19.6536C14 19.6496 14 19.6457 14 19.6417C14 19.6378 14 19.6338 14 19.6299C14 19.626 14 19.622 14 19.6181C14 19.6142 14 19.6102 14 19.6063C14 19.6024 14 19.5985 14 19.5946C14 19.5906 14 19.5867 14 19.5828C14 19.5789 14 19.575 14 19.5711C14 19.5672 14 19.5633 14 19.5594C14 19.5555 14 19.5517 14 19.5478C14 19.5439 14 19.54 14 19.5361C14 19.5323 14 19.5284 14 19.5245C14 19.5206 14 19.5168 14 19.5129C14 19.5091 14 19.5052 14 19.5014C14 19.4975 14 19.4937 14 19.4898C14 19.486 14 19.4821 14 19.4783C14 19.4745 14 19.4706 14 19.4668C14 19.463 14 19.4592 14 19.4554C14 19.4515 14 19.4477 14 19.4439C14 19.4401 14 19.4363 14 19.4325C14 19.4287 14 19.4249 14 19.4211C14 19.4173 14 19.4135 14 19.4098C14 19.406 14 19.4022 14 19.3984C14 19.3947 14 19.3909 14 19.3871C14 19.3834 14 19.3796 14 19.3758C14 19.3721 14 19.3683 14 19.3646C14 19.3609 14 19.3571 14 19.3534C14 19.3496 14 19.3459 14 19.3422C14 19.3385 14 19.3347 14 19.331C14 19.3273 14 19.3236 14 19.3199C14 19.3162 14 19.3125 14 19.3088C14 19.3051 14 19.3014 14 19.2977C14 19.294 14 19.2903 14 19.2866C14 19.283 14 19.2793 14 19.2756C14 19.2719 14 19.2683 14 19.2646C14 19.261 14 19.2573 14 19.2537C14 19.25 14 19.2464 14 19.2427C14 19.2391 14 19.2355 14 19.2318C14 19.2282 14 19.2246 14 19.221C14 19.2173 14 19.2137 14 19.2101C14 19.2065 14 19.2029 14 19.1993C14 19.1957 14 19.1921 14 19.1885C14 19.1849 14 19.1813 14 19.1778C14 19.1742 14 19.1706 14 19.1671C14 19.1635 14 19.1599 14 19.1564C14 19.1528 14 19.1493 14 19.1457C14 19.1422 14 19.1386 14 19.1351C14 19.1316 14 19.128 14 19.1245C14 19.121 14 19.1175 14 19.1139C14 19.1104 14 19.1069 14 19.1034C14 19.0999 14 19.0964 14 19.0929C14 19.0894 14 19.0859 14 19.0825C14 19.079 14 19.0755 14 19.072C14 19.0686 14 19.0651 14 19.0616C14 19.0582 14 19.0547 14 19.0513C14 19.0478 14 19.0444 14 19.041C14 19.0375 14 19.0341 14 19.0307C14 19.0272 14 19.0238 14 19.0204C14 19.017 14 19.0136 14 19.0102C14 19.0068 14 19.0034 14 19H11ZM12.5 20.5H19V17.5H12.5V20.5ZM12.5 13.6111H10V16.6111H12.5V13.6111ZM12.5 17.5H10V20.5H12.5V17.5ZM19 11.5556C19 12.6908 18.0797 13.6111 16.9444 13.6111V16.6111C19.7365 16.6111 22 14.3477 22 11.5556H19ZM16.9444 9.5C18.0797 9.5 19 10.4203 19 11.5556H22C22 8.76345 19.7365 6.5 16.9444 6.5V9.5ZM13.2273 6.5C11.9972 6.5 11 7.49718 11 8.72727H14C14 9.15404 13.654 9.5 13.2273 9.5V6.5Z"
          fill="white"/>
</svg>
