<svg width="39" height="39" viewBox="0 0 39 39" fill="none" xmlns="http://www.w3.org/2000/svg">
    <g filter="url(#filter0_d)">
        <rect x="4" y="4" width="31" height="31" rx="15.5" fill="#6195FA"/>
        <path d="M15 28C15 28.8284 15.6716 29.5 16.5 29.5C17.3284 29.5 18 28.8284 18 28H15ZM14 17.6111C13.1716 17.6111 12.5 18.2827 12.5 19.1111C12.5 19.9395 13.1716 20.6111 14 20.6111V17.6111ZM14 21.5C13.1716 21.5 12.5 22.1716 12.5 23C12.5 23.8284 13.1716 24.5 14 24.5V21.5ZM23 24.5C23.8284 24.5 24.5 23.8284 24.5 23C24.5 22.1716 23.8284 21.5 23 21.5V24.5ZM17.2273 13.5H20.9444V10.5H17.2273V13.5ZM15 12.7273V19.1111H18V12.7273H15ZM20.9444 17.6111H16.5V20.6111H20.9444V17.6111ZM16.5 19.1111C15 19.1111 15 19.1111 15 19.1111C15 19.1112 15 19.1112 15 19.1112C15 19.1112 15 19.1113 15 19.1113C15 19.1114 15 19.1114 15 19.1115C15 19.1116 15 19.1116 15 19.1117C15 19.1118 15 19.1119 15 19.112C15 19.1121 15 19.1122 15 19.1123C15 19.1124 15 19.1125 15 19.1127C15 19.1128 15 19.1129 15 19.1131C15 19.1132 15 19.1134 15 19.1136C15 19.1137 15 19.1139 15 19.1141C15 19.1142 15 19.1144 15 19.1146C15 19.1148 15 19.115 15 19.1152C15 19.1154 15 19.1157 15 19.1159C15 19.1161 15 19.1163 15 19.1166C15 19.1168 15 19.1171 15 19.1173C15 19.1176 15 19.1179 15 19.1181C15 19.1184 15 19.1187 15 19.119C15 19.1193 15 19.1196 15 19.1199C15 19.1202 15 19.1205 15 19.1208C15 19.1211 15 19.1215 15 19.1218C15 19.1221 15 19.1225 15 19.1228C15 19.1232 15 19.1235 15 19.1239C15 19.1243 15 19.1247 15 19.125C15 19.1254 15 19.1258 15 19.1262C15 19.1266 15 19.127 15 19.1274C15 19.1278 15 19.1283 15 19.1287C15 19.1291 15 19.1296 15 19.13C15 19.1305 15 19.1309 15 19.1314C15 19.1318 15 19.1323 15 19.1328C15 19.1332 15 19.1337 15 19.1342C15 19.1347 15 19.1352 15 19.1357C15 19.1362 15 19.1367 15 19.1373C15 19.1378 15 19.1383 15 19.1388C15 19.1394 15 19.1399 15 19.1405C15 19.141 15 19.1416 15 19.1422C15 19.1427 15 19.1433 15 19.1439C15 19.1445 15 19.145 15 19.1456C15 19.1462 15 19.1468 15 19.1475C15 19.1481 15 19.1487 15 19.1493C15 19.1499 15 19.1506 15 19.1512C15 19.1519 15 19.1525 15 19.1532C15 19.1538 15 19.1545 15 19.1552C15 19.1558 15 19.1565 15 19.1572C15 19.1579 15 19.1586 15 19.1593C15 19.16 15 19.1607 15 19.1614C15 19.1621 15 19.1628 15 19.1636C15 19.1643 15 19.165 15 19.1658C15 19.1665 15 19.1673 15 19.168C15 19.1688 15 19.1695 15 19.1703C15 19.1711 15 19.1719 15 19.1727C15 19.1735 15 19.1742 15 19.175C15 19.1759 15 19.1767 15 19.1775C15 19.1783 15 19.1791 15 19.18C15 19.1808 15 19.1816 15 19.1825C15 19.1833 15 19.1842 15 19.185C15 19.1859 15 19.1868 15 19.1876C15 19.1885 15 19.1894 15 19.1903C15 19.1912 15 19.1921 15 19.193C15 19.1939 15 19.1948 15 19.1957C15 19.1966 15 19.1975 15 19.1985C15 19.1994 15 19.2003 15 19.2013C15 19.2022 15 19.2032 15 19.2041C15 19.2051 15 19.206 15 19.207C15 19.208 15 19.209 15 19.21C15 19.2109 15 19.2119 15 19.2129C15 19.2139 15 19.215 15 19.216C15 19.217 15 19.218 15 19.219C15 19.2201 15 19.2211 15 19.2221C15 19.2232 15 19.2242 15 19.2253C15 19.2263 15 19.2274 15 19.2285C15 19.2295 15 19.2306 15 19.2317C15 19.2328 15 19.2339 15 19.235C15 19.2361 15 19.2372 15 19.2383C15 19.2394 15 19.2405 15 19.2416C15 19.2428 15 19.2439 15 19.245C15 19.2462 15 19.2473 15 19.2485C15 19.2496 15 19.2508 15 19.2519C15 19.2531 15 19.2543 15 19.2555C15 19.2566 15 19.2578 15 19.259C15 19.2602 15 19.2614 15 19.2626C15 19.2638 15 19.265 15 19.2662C15 19.2675 15 19.2687 15 19.2699C15 19.2711 15 19.2724 15 19.2736C15 19.2749 15 19.2761 15 19.2774C15 19.2786 15 19.2799 15 19.2812C15 19.2824 15 19.2837 15 19.285C15 19.2863 15 19.2876 15 19.2889C15 19.2902 15 19.2915 15 19.2928C15 19.2941 15 19.2954 15 19.2967C15 19.2981 15 19.2994 15 19.3007C15 19.3021 15 19.3034 15 19.3048C15 19.3061 15 19.3075 15 19.3088C15 19.3102 15 19.3116 15 19.3129C15 19.3143 15 19.3157 15 19.3171C15 19.3185 15 19.3199 15 19.3213C15 19.3227 15 19.3241 15 19.3255C15 19.3269 15 19.3283 15 19.3297C15 19.3312 15 19.3326 15 19.334C15 19.3355 15 19.3369 15 19.3384C15 19.3398 15 19.3413 15 19.3427C15 19.3442 15 19.3457 15 19.3472C15 19.3486 15 19.3501 15 19.3516C15 19.3531 15 19.3546 15 19.3561C15 19.3576 15 19.3591 15 19.3606C15 19.3621 15 19.3636 15 19.3652C15 19.3667 15 19.3682 15 19.3698C15 19.3713 15 19.3729 15 19.3744C15 19.376 15 19.3775 15 19.3791C15 19.3806 15 19.3822 15 19.3838C15 19.3854 15 19.3869 15 19.3885C15 19.3901 15 19.3917 15 19.3933C15 19.3949 15 19.3965 15 19.3981C15 19.3997 15 19.4014 15 19.403C15 19.4046 15 19.4062 15 19.4079C15 19.4095 15 19.4111 15 19.4128C15 19.4144 15 19.4161 15 19.4178C15 19.4194 15 19.4211 15 19.4228C15 19.4244 15 19.4261 15 19.4278C15 19.4295 15 19.4312 15 19.4329C15 19.4345 15 19.4363 15 19.438C15 19.4397 15 19.4414 15 19.4431C15 19.4448 15 19.4465 15 19.4483C15 19.45 15 19.4517 15 19.4535C15 19.4552 15 19.457 15 19.4587C15 19.4605 15 19.4622 15 19.464C15 19.4658 15 19.4675 15 19.4693C15 19.4711 15 19.4729 15 19.4747C15 19.4765 15 19.4783 15 19.4801C15 19.4819 15 19.4837 15 19.4855C15 19.4873 15 19.4891 15 19.4909C15 19.4928 15 19.4946 15 19.4964C15 19.4982 15 19.5001 15 19.5019C15 19.5038 15 19.5056 15 19.5075C15 19.5093 15 19.5112 15 19.5131C15 19.5149 15 19.5168 15 19.5187C15 19.5206 15 19.5225 15 19.5244C15 19.5263 15 19.5281 15 19.5301C15 19.532 15 19.5339 15 19.5358C15 19.5377 15 19.5396 15 19.5415C15 19.5435 15 19.5454 15 19.5473C15 19.5493 15 19.5512 15 19.5531C15 19.5551 15 19.557 15 19.559C15 19.561 15 19.5629 15 19.5649C15 19.5669 15 19.5688 15 19.5708C15 19.5728 15 19.5748 15 19.5768C15 19.5788 15 19.5808 15 19.5828C15 19.5848 15 19.5868 15 19.5888C15 19.5908 15 19.5928 15 19.5948C15 19.5968 15 19.5989 15 19.6009C15 19.6029 15 19.605 15 19.607C15 19.6091 15 19.6111 15 19.6132C15 19.6152 15 19.6173 15 19.6193C15 19.6214 15 19.6235 15 19.6256C15 19.6276 15 19.6297 15 19.6318C15 19.6339 15 19.636 15 19.6381C15 19.6402 15 19.6423 15 19.6444C15 19.6465 15 19.6486 15 19.6507C15 19.6528 15 19.655 15 19.6571C15 19.6592 15 19.6613 15 19.6635C15 19.6656 15 19.6678 15 19.6699C15 19.6721 15 19.6742 15 19.6764C15 19.6785 15 19.6807 15 19.6829C15 19.685 15 19.6872 15 19.6894C15 19.6916 15 19.6938 15 19.6959C15 19.6981 15 19.7003 15 19.7025C15 19.7047 15 19.7069 15 19.7091C15 19.7113 15 19.7136 15 19.7158C15 19.718 15 19.7202 15 19.7225C15 19.7247 15 19.7269 15 19.7292C15 19.7314 15 19.7336 15 19.7359C15 19.7381 15 19.7404 15 19.7426C15 19.7449 15 19.7472 15 19.7494C15 19.7517 15 19.754 15 19.7563C15 19.7585 15 19.7608 15 19.7631C15 19.7654 15 19.7677 15 19.77C15 19.7723 15 19.7746 15 19.7769C15 19.7792 15 19.7815 15 19.7838C15 19.7862 15 19.7885 15 19.7908C15 19.7931 15 19.7955 15 19.7978C15 19.8001 15 19.8025 15 19.8048C15 19.8072 15 19.8095 15 19.8119C15 19.8142 15 19.8166 15 19.819C15 19.8213 15 19.8237 15 19.8261C15 19.8284 15 19.8308 15 19.8332C15 19.8356 15 19.838 15 19.8404C15 19.8428 15 19.8452 15 19.8476C15 19.85 15 19.8524 15 19.8548C15 19.8572 15 19.8596 15 19.862C15 19.8644 15 19.8669 15 19.8693C15 19.8717 15 19.8742 15 19.8766C15 19.879 15 19.8815 15 19.8839C15 19.8864 15 19.8888 15 19.8913C15 19.8937 15 19.8962 15 19.8987C15 19.9011 15 19.9036 15 19.9061C15 19.9086 15 19.911 15 19.9135C15 19.916 15 19.9185 15 19.921C15 19.9235 15 19.926 15 19.9285C15 19.931 15 19.9335 15 19.936C15 19.9385 15 19.941 15 19.9435C15 19.9461 15 19.9486 15 19.9511C15 19.9536 15 19.9562 15 19.9587C15 19.9613 15 19.9638 15 19.9663C15 19.9689 15 19.9714 15 19.974C15 19.9765 15 19.9791 15 19.9817C15 19.9842 15 19.9868 15 19.9894C15 19.9919 15 19.9945 15 19.9971C15 19.9997 15 20.0023 15 20.0048C15 20.0074 15 20.01 15 20.0126C15 20.0152 15 20.0178 15 20.0204C15 20.023 15 20.0256 15 20.0283C15 20.0309 15 20.0335 15 20.0361C15 20.0387 15 20.0414 15 20.044C15 20.0466 15 20.0493 15 20.0519C15 20.0545 15 20.0572 15 20.0598C15 20.0625 15 20.0651 15 20.0678C15 20.0704 15 20.0731 15 20.0757C15 20.0784 15 20.0811 15 20.0837C15 20.0864 15 20.0891 15 20.0918C15 20.0944 15 20.0971 15 20.0998C15 20.1025 15 20.1052 15 20.1079C15 20.1106 15 20.1133 15 20.116C15 20.1187 15 20.1214 15 20.1241C15 20.1268 15 20.1295 15 20.1323C15 20.135 15 20.1377 15 20.1404C15 20.1431 15 20.1459 15 20.1486C15 20.1513 15 20.1541 15 20.1568C15 20.1596 15 20.1623 15 20.1651C15 20.1678 15 20.1706 15 20.1733C15 20.1761 15 20.1788 15 20.1816C15 20.1844 15 20.1871 15 20.1899C15 20.1927 15 20.1955 15 20.1982C15 20.201 15 20.2038 15 20.2066C15 20.2094 15 20.2122 15 20.215C15 20.2178 15 20.2206 15 20.2234C15 20.2262 15 20.229 15 20.2318C15 20.2346 15 20.2374 15 20.2402C15 20.2431 15 20.2459 15 20.2487C15 20.2515 15 20.2544 15 20.2572C15 20.26 15 20.2629 15 20.2657C15 20.2685 15 20.2714 15 20.2742C15 20.2771 15 20.2799 15 20.2828C15 20.2856 15 20.2885 15 20.2913C15 20.2942 15 20.2971 15 20.2999C15 20.3028 15 20.3057 15 20.3086C15 20.3114 15 20.3143 15 20.3172C15 20.3201 15 20.323 15 20.3258C15 20.3287 15 20.3316 15 20.3345C15 20.3374 15 20.3403 15 20.3432C15 20.3461 15 20.349 15 20.3519C15 20.3548 15 20.3578 15 20.3607C15 20.3636 15 20.3665 15 20.3694C15 20.3724 15 20.3753 15 20.3782C15 20.3811 15 20.3841 15 20.387C15 20.39 15 20.3929 15 20.3958C15 20.3988 15 20.4017 15 20.4047C15 20.4076 15 20.4106 15 20.4135C15 20.4165 15 20.4195 15 20.4224C15 20.4254 15 20.4284 15 20.4313C15 20.4343 15 20.4373 15 20.4402C15 20.4432 15 20.4462 15 20.4492C15 20.4522 15 20.4552 15 20.4581C15 20.4611 15 20.4641 15 20.4671C15 20.4701 15 20.4731 15 20.4761C15 20.4791 15 20.4821 15 20.4851C15 20.4881 15 20.4911 15 20.4942C15 20.4972 15 20.5002 15 20.5032C15 20.5062 15 20.5093 15 20.5123C15 20.5153 15 20.5183 15 20.5214C15 20.5244 15 20.5274 15 20.5305C15 20.5335 15 20.5366 15 20.5396C15 20.5427 15 20.5457 15 20.5488C15 20.5518 15 20.5549 15 20.5579C15 20.561 15 20.564 15 20.5671C15 20.5702 15 20.5732 15 20.5763C15 20.5794 15 20.5824 15 20.5855C15 20.5886 15 20.5917 15 20.5948C15 20.5978 15 20.6009 15 20.604C15 20.6071 15 20.6102 15 20.6133C15 20.6164 15 20.6195 15 20.6226C15 20.6257 15 20.6288 15 20.6319C15 20.635 15 20.6381 15 20.6412C15 20.6443 15 20.6474 15 20.6505C15 20.6536 15 20.6567 15 20.6599C15 20.663 15 20.6661 15 20.6692C15 20.6724 15 20.6755 15 20.6786C15 20.6818 15 20.6849 15 20.688C15 20.6912 15 20.6943 15 20.6974C15 20.7006 15 20.7037 15 20.7069C15 20.71 15 20.7132 15 20.7163C15 20.7195 15 20.7226 15 20.7258C15 20.729 15 20.7321 15 20.7353C15 20.7385 15 20.7416 15 20.7448C15 20.748 15 20.7511 15 20.7543C15 20.7575 15 20.7607 15 20.7638C15 20.767 15 20.7702 15 20.7734C15 20.7766 15 20.7797 15 20.7829C15 20.7861 15 20.7893 15 20.7925C15 20.7957 15 20.7989 15 20.8021C15 20.8053 15 20.8085 15 20.8117C15 20.8149 15 20.8181 15 20.8213C15 20.8245 15 20.8278 15 20.831C15 20.8342 15 20.8374 15 20.8406C15 20.8438 15 20.8471 15 20.8503C15 20.8535 15 20.8567 15 20.86C15 20.8632 15 20.8664 15 20.8697C15 20.8729 15 20.8761 15 20.8794C15 20.8826 15 20.8858 15 20.8891C15 20.8923 15 20.8956 15 20.8988C15 20.9021 15 20.9053 15 20.9086C15 20.9118 15 20.9151 15 20.9183C15 20.9216 15 20.9248 15 20.9281C15 20.9314 15 20.9346 15 20.9379C15 20.9412 15 20.9444 15 20.9477C15 20.951 15 20.9542 15 20.9575C15 20.9608 15 20.9641 15 20.9673C15 20.9706 15 20.9739 15 20.9772C15 20.9805 15 20.9838 15 20.987C15 20.9903 15 20.9936 15 20.9969C15 21.0002 15 21.0035 15 21.0068C15 21.0101 15 21.0134 15 21.0167C15 21.02 15 21.0233 15 21.0266C15 21.0299 15 21.0332 15 21.0365C15 21.0398 15 21.0431 15 21.0464C15 21.0497 15 21.0531 15 21.0564C15 21.0597 15 21.063 15 21.0663C15 21.0696 15 21.073 15 21.0763C15 21.0796 15 21.0829 15 21.0863C15 21.0896 15 21.0929 15 21.0963C15 21.0996 15 21.1029 15 21.1063C15 21.1096 15 21.1129 15 21.1163C15 21.1196 15 21.123 15 21.1263C15 21.1296 15 21.133 15 21.1363C15 21.1397 15 21.143 15 21.1464C15 21.1497 15 21.1531 15 21.1564C15 21.1598 15 21.1631 15 21.1665C15 21.1699 15 21.1732 15 21.1766C15 21.1799 15 21.1833 15 21.1867C15 21.19 15 21.1934 15 21.1968C15 21.2001 15 21.2035 15 21.2069C15 21.2102 15 21.2136 15 21.217C15 21.2204 15 21.2237 15 21.2271C15 21.2305 15 21.2339 15 21.2373C15 21.2406 15 21.244 15 21.2474C15 21.2508 15 21.2542 15 21.2576C15 21.261 15 21.2643 15 21.2677C15 21.2711 15 21.2745 15 21.2779C15 21.2813 15 21.2847 15 21.2881C15 21.2915 15 21.2949 15 21.2983C15 21.3017 15 21.3051 15 21.3085C15 21.3119 15 21.3153 15 21.3187C15 21.3221 15 21.3255 15 21.3289C15 21.3323 15 21.3358 15 21.3392C15 21.3426 15 21.346 15 21.3494C15 21.3528 15 21.3562 15 21.3597C15 21.3631 15 21.3665 15 21.3699C15 21.3733 15 21.3768 15 21.3802C15 21.3836 15 21.387 15 21.3905C15 21.3939 15 21.3973 15 21.4007C15 21.4042 15 21.4076 15 21.411C15 21.4145 15 21.4179 15 21.4213C15 21.4248 15 21.4282 15 21.4316C15 21.4351 15 21.4385 15 21.442C15 21.4454 15 21.4488 15 21.4523C15 21.4557 15 21.4592 15 21.4626C15 21.4661 15 21.4695 15 21.4729C15 21.4764 15 21.4798 15 21.4833C15 21.4867 15 21.4902 15 21.4936C15 21.4971 15 21.5005 15 21.504C15 21.5074 15 21.5109 15 21.5144C15 21.5178 15 21.5213 15 21.5247C15 21.5282 15 21.5317 15 21.5351C15 21.5386 15 21.542 15 21.5455C15 21.549 15 21.5524 15 21.5559C15 21.5594 15 21.5628 15 21.5663C15 21.5698 15 21.5732 15 21.5767C15 21.5802 15 21.5836 15 21.5871C15 21.5906 15 21.594 15 21.5975C15 21.601 15 21.6045 15 21.6079C15 21.6114 15 21.6149 15 21.6184C15 21.6218 15 21.6253 15 21.6288C15 21.6323 15 21.6358 15 21.6392C15 21.6427 15 21.6462 15 21.6497C15 21.6532 15 21.6566 15 21.6601C15 21.6636 15 21.6671 15 21.6706C15 21.6741 15 21.6776 15 21.681C15 21.6845 15 21.688 15 21.6915C15 21.695 15 21.6985 15 21.702C15 21.7055 15 21.709 15 21.7124C15 21.7159 15 21.7194 15 21.7229C15 21.7264 15 21.7299 15 21.7334C15 21.7369 15 21.7404 15 21.7439C15 21.7474 15 21.7509 15 21.7544C15 21.7579 15 21.7614 15 21.7649C15 21.7684 15 21.7719 15 21.7754C15 21.7789 15 21.7824 15 21.7859C15 21.7894 15 21.7929 15 21.7964C15 21.7999 15 21.8034 15 21.8069C15 21.8104 15 21.8139 15 21.8174C15 21.8209 15 21.8244 15 21.8279C15 21.8314 15 21.835 15 21.8385C15 21.842 15 21.8455 15 21.849C15 21.8525 15 21.856 15 21.8595C15 21.863 15 21.8665 15 21.87C15 21.8736 15 21.8771 15 21.8806C15 21.8841 15 21.8876 15 21.8911C15 21.8946 15 21.8981 15 21.9016C15 21.9052 15 21.9087 15 21.9122C15 21.9157 15 21.9192 15 21.9227C15 21.9262 15 21.9298 15 21.9333C15 21.9368 15 21.9403 15 21.9438C15 21.9473 15 21.9509 15 21.9544C15 21.9579 15 21.9614 15 21.9649C15 21.9684 15 21.972 15 21.9755C15 21.979 15 21.9825 15 21.986C15 21.9896 15 21.9931 15 21.9966C15 22.0001 15 22.0036 15 22.0072C15 22.0107 15 22.0142 15 22.0177C15 22.0212 15 22.0248 15 22.0283C15 22.0318 15 22.0353 15 22.0388C15 22.0424 15 22.0459 15 22.0494C15 22.0529 15 22.0564 15 22.06C15 22.0635 15 22.067 15 22.0705C15 22.0741 15 22.0776 15 22.0811C15 22.0846 15 22.0881 15 22.0917C15 22.0952 15 22.0987 15 22.1022C15 22.1058 15 22.1093 15 22.1128C15 22.1163 15 22.1198 15 22.1234C15 22.1269 15 22.1304 15 22.1339C15 22.1375 15 22.141 15 22.1445C15 22.148 15 22.1515 15 22.1551C15 22.1586 15 22.1621 15 22.1656C15 22.1692 15 22.1727 15 22.1762C15 22.1797 15 22.1832 15 22.1868C15 22.1903 15 22.1938 15 22.1973C15 22.2009 15 22.2044 15 22.2079C15 22.2114 15 22.2149 15 22.2185C15 22.222 15 22.2255 15 22.229C15 22.2325 15 22.2361 15 22.2396C15 22.2431 15 22.2466 15 22.2501C15 22.2537 15 22.2572 15 22.2607C15 22.2642 15 22.2677 15 22.2713C15 22.2748 15 22.2783 15 22.2818C15 22.2853 15 22.2889 15 22.2924C15 22.2959 15 22.2994 15 22.3029C15 22.3064 15 22.31 15 22.3135C15 22.317 15 22.3205 15 22.324C15 22.3275 15 22.3311 15 22.3346C15 22.3381 15 22.3416 15 22.3451C15 22.3486 15 22.3521 15 22.3557C15 22.3592 15 22.3627 15 22.3662C15 22.3697 15 22.3732 15 22.3767C15 22.3803 15 22.3838 15 22.3873C15 22.3908 15 22.3943 15 22.3978C15 22.4013 15 22.4048 15 22.4083C15 22.4118 15 22.4154 15 22.4189C15 22.4224 15 22.4259 15 22.4294C15 22.4329 15 22.4364 15 22.4399C15 22.4434 15 22.4469 15 22.4504C15 22.4539 15 22.4574 15 22.4609C15 22.4644 15 22.4679 15 22.4714C15 22.4749 15 22.4785 15 22.482C15 22.4855 15 22.489 15 22.4925C15 22.496 15 22.4995 15 22.503C15 22.5065 15 22.5099 15 22.5134C15 22.5169 15 22.5204 15 22.5239C15 22.5274 15 22.5309 15 22.5344C15 22.5379 15 22.5414 15 22.5449C15 22.5484 15 22.5519 15 22.5554C15 22.5589 15 22.5624 15 22.5659C15 22.5693 15 22.5728 15 22.5763C15 22.5798 15 22.5833 15 22.5868C15 22.5903 15 22.5938 15 22.5972C15 22.6007 15 22.6042 15 22.6077C15 22.6112 15 22.6147 15 22.6181C15 22.6216 15 22.6251 15 22.6286C15 22.6321 15 22.6355 15 22.639C15 22.6425 15 22.646 15 22.6495C15 22.6529 15 22.6564 15 22.6599C15 22.6634 15 22.6668 15 22.6703C15 22.6738 15 22.6772 15 22.6807C15 22.6842 15 22.6877 15 22.6911C15 22.6946 15 22.6981 15 22.7015C15 22.705 15 22.7085 15 22.7119C15 22.7154 15 22.7188 15 22.7223C15 22.7258 15 22.7292 15 22.7327C15 22.7361 15 22.7396 15 22.7431C15 22.7465 15 22.75 15 22.7534C15 22.7569 15 22.7603 15 22.7638C15 22.7673 15 22.7707 15 22.7742C15 22.7776 15 22.7811 15 22.7845C15 22.788 15 22.7914 15 22.7948C15 22.7983 15 22.8017 15 22.8052C15 22.8086 15 22.8121 15 22.8155C15 22.8189 15 22.8224 15 22.8258C15 22.8293 15 22.8327 15 22.8361C15 22.8396 15 22.843 15 22.8464C15 22.8499 15 22.8533 15 22.8567C15 22.8602 15 22.8636 15 22.867C15 22.8705 15 22.8739 15 22.8773C15 22.8807 15 22.8842 15 22.8876C15 22.891 15 22.8944 15 22.8978C15 22.9013 15 22.9047 15 22.9081C15 22.9115 15 22.9149 15 22.9183C15 22.9218 15 22.9252 15 22.9286C15 22.932 15 22.9354 15 22.9388C15 22.9422 15 22.9456 15 22.949C15 22.9524 15 22.9558 15 22.9592C15 22.9626 15 22.966 15 22.9694C15 22.9728 15 22.9762 15 22.9796C15 22.983 15 22.9864 15 22.9898C15 22.9932 15 22.9966 15 23H18C18 22.9966 18 22.9932 18 22.9898C18 22.9864 18 22.983 18 22.9796C18 22.9762 18 22.9728 18 22.9694C18 22.966 18 22.9626 18 22.9592C18 22.9558 18 22.9524 18 22.949C18 22.9456 18 22.9422 18 22.9388C18 22.9354 18 22.932 18 22.9286C18 22.9252 18 22.9218 18 22.9183C18 22.9149 18 22.9115 18 22.9081C18 22.9047 18 22.9013 18 22.8978C18 22.8944 18 22.891 18 22.8876C18 22.8842 18 22.8807 18 22.8773C18 22.8739 18 22.8705 18 22.867C18 22.8636 18 22.8602 18 22.8567C18 22.8533 18 22.8499 18 22.8464C18 22.843 18 22.8396 18 22.8361C18 22.8327 18 22.8293 18 22.8258C18 22.8224 18 22.8189 18 22.8155C18 22.8121 18 22.8086 18 22.8052C18 22.8017 18 22.7983 18 22.7948C18 22.7914 18 22.788 18 22.7845C18 22.7811 18 22.7776 18 22.7742C18 22.7707 18 22.7673 18 22.7638C18 22.7603 18 22.7569 18 22.7534C18 22.75 18 22.7465 18 22.7431C18 22.7396 18 22.7361 18 22.7327C18 22.7292 18 22.7258 18 22.7223C18 22.7188 18 22.7154 18 22.7119C18 22.7085 18 22.705 18 22.7015C18 22.6981 18 22.6946 18 22.6911C18 22.6877 18 22.6842 18 22.6807C18 22.6772 18 22.6738 18 22.6703C18 22.6668 18 22.6634 18 22.6599C18 22.6564 18 22.6529 18 22.6495C18 22.646 18 22.6425 18 22.639C18 22.6355 18 22.6321 18 22.6286C18 22.6251 18 22.6216 18 22.6181C18 22.6147 18 22.6112 18 22.6077C18 22.6042 18 22.6007 18 22.5972C18 22.5938 18 22.5903 18 22.5868C18 22.5833 18 22.5798 18 22.5763C18 22.5728 18 22.5693 18 22.5659C18 22.5624 18 22.5589 18 22.5554C18 22.5519 18 22.5484 18 22.5449C18 22.5414 18 22.5379 18 22.5344C18 22.5309 18 22.5274 18 22.5239C18 22.5204 18 22.5169 18 22.5134C18 22.5099 18 22.5065 18 22.503C18 22.4995 18 22.496 18 22.4925C18 22.489 18 22.4855 18 22.482C18 22.4785 18 22.4749 18 22.4714C18 22.4679 18 22.4644 18 22.4609C18 22.4574 18 22.4539 18 22.4504C18 22.4469 18 22.4434 18 22.4399C18 22.4364 18 22.4329 18 22.4294C18 22.4259 18 22.4224 18 22.4189C18 22.4154 18 22.4118 18 22.4083C18 22.4048 18 22.4013 18 22.3978C18 22.3943 18 22.3908 18 22.3873C18 22.3838 18 22.3803 18 22.3767C18 22.3732 18 22.3697 18 22.3662C18 22.3627 18 22.3592 18 22.3557C18 22.3521 18 22.3486 18 22.3451C18 22.3416 18 22.3381 18 22.3346C18 22.3311 18 22.3275 18 22.324C18 22.3205 18 22.317 18 22.3135C18 22.31 18 22.3064 18 22.3029C18 22.2994 18 22.2959 18 22.2924C18 22.2889 18 22.2853 18 22.2818C18 22.2783 18 22.2748 18 22.2713C18 22.2677 18 22.2642 18 22.2607C18 22.2572 18 22.2537 18 22.2501C18 22.2466 18 22.2431 18 22.2396C18 22.2361 18 22.2325 18 22.229C18 22.2255 18 22.222 18 22.2185C18 22.2149 18 22.2114 18 22.2079C18 22.2044 18 22.2009 18 22.1973C18 22.1938 18 22.1903 18 22.1868C18 22.1832 18 22.1797 18 22.1762C18 22.1727 18 22.1692 18 22.1656C18 22.1621 18 22.1586 18 22.1551C18 22.1515 18 22.148 18 22.1445C18 22.141 18 22.1375 18 22.1339C18 22.1304 18 22.1269 18 22.1234C18 22.1198 18 22.1163 18 22.1128C18 22.1093 18 22.1058 18 22.1022C18 22.0987 18 22.0952 18 22.0917C18 22.0881 18 22.0846 18 22.0811C18 22.0776 18 22.0741 18 22.0705C18 22.067 18 22.0635 18 22.06C18 22.0564 18 22.0529 18 22.0494C18 22.0459 18 22.0424 18 22.0388C18 22.0353 18 22.0318 18 22.0283C18 22.0248 18 22.0212 18 22.0177C18 22.0142 18 22.0107 18 22.0072C18 22.0036 18 22.0001 18 21.9966C18 21.9931 18 21.9896 18 21.986C18 21.9825 18 21.979 18 21.9755C18 21.972 18 21.9684 18 21.9649C18 21.9614 18 21.9579 18 21.9544C18 21.9509 18 21.9473 18 21.9438C18 21.9403 18 21.9368 18 21.9333C18 21.9298 18 21.9262 18 21.9227C18 21.9192 18 21.9157 18 21.9122C18 21.9087 18 21.9052 18 21.9016C18 21.8981 18 21.8946 18 21.8911C18 21.8876 18 21.8841 18 21.8806C18 21.8771 18 21.8736 18 21.87C18 21.8665 18 21.863 18 21.8595C18 21.856 18 21.8525 18 21.849C18 21.8455 18 21.842 18 21.8385C18 21.835 18 21.8314 18 21.8279C18 21.8244 18 21.8209 18 21.8174C18 21.8139 18 21.8104 18 21.8069C18 21.8034 18 21.7999 18 21.7964C18 21.7929 18 21.7894 18 21.7859C18 21.7824 18 21.7789 18 21.7754C18 21.7719 18 21.7684 18 21.7649C18 21.7614 18 21.7579 18 21.7544C18 21.7509 18 21.7474 18 21.7439C18 21.7404 18 21.7369 18 21.7334C18 21.7299 18 21.7264 18 21.7229C18 21.7194 18 21.7159 18 21.7124C18 21.709 18 21.7055 18 21.702C18 21.6985 18 21.695 18 21.6915C18 21.688 18 21.6845 18 21.681C18 21.6776 18 21.6741 18 21.6706C18 21.6671 18 21.6636 18 21.6601C18 21.6566 18 21.6532 18 21.6497C18 21.6462 18 21.6427 18 21.6392C18 21.6358 18 21.6323 18 21.6288C18 21.6253 18 21.6218 18 21.6184C18 21.6149 18 21.6114 18 21.6079C18 21.6045 18 21.601 18 21.5975C18 21.594 18 21.5906 18 21.5871C18 21.5836 18 21.5802 18 21.5767C18 21.5732 18 21.5698 18 21.5663C18 21.5628 18 21.5594 18 21.5559C18 21.5524 18 21.549 18 21.5455C18 21.542 18 21.5386 18 21.5351C18 21.5317 18 21.5282 18 21.5247C18 21.5213 18 21.5178 18 21.5144C18 21.5109 18 21.5074 18 21.504C18 21.5005 18 21.4971 18 21.4936C18 21.4902 18 21.4867 18 21.4833C18 21.4798 18 21.4764 18 21.4729C18 21.4695 18 21.4661 18 21.4626C18 21.4592 18 21.4557 18 21.4523C18 21.4488 18 21.4454 18 21.442C18 21.4385 18 21.4351 18 21.4316C18 21.4282 18 21.4248 18 21.4213C18 21.4179 18 21.4145 18 21.411C18 21.4076 18 21.4042 18 21.4007C18 21.3973 18 21.3939 18 21.3905C18 21.387 18 21.3836 18 21.3802C18 21.3768 18 21.3733 18 21.3699C18 21.3665 18 21.3631 18 21.3597C18 21.3562 18 21.3528 18 21.3494C18 21.346 18 21.3426 18 21.3392C18 21.3358 18 21.3323 18 21.3289C18 21.3255 18 21.3221 18 21.3187C18 21.3153 18 21.3119 18 21.3085C18 21.3051 18 21.3017 18 21.2983C18 21.2949 18 21.2915 18 21.2881C18 21.2847 18 21.2813 18 21.2779C18 21.2745 18 21.2711 18 21.2677C18 21.2643 18 21.261 18 21.2576C18 21.2542 18 21.2508 18 21.2474C18 21.244 18 21.2406 18 21.2373C18 21.2339 18 21.2305 18 21.2271C18 21.2237 18 21.2204 18 21.217C18 21.2136 18 21.2102 18 21.2069C18 21.2035 18 21.2001 18 21.1968C18 21.1934 18 21.19 18 21.1867C18 21.1833 18 21.1799 18 21.1766C18 21.1732 18 21.1699 18 21.1665C18 21.1631 18 21.1598 18 21.1564C18 21.1531 18 21.1497 18 21.1464C18 21.143 18 21.1397 18 21.1363C18 21.133 18 21.1296 18 21.1263C18 21.123 18 21.1196 18 21.1163C18 21.1129 18 21.1096 18 21.1063C18 21.1029 18 21.0996 18 21.0963C18 21.0929 18 21.0896 18 21.0863C18 21.0829 18 21.0796 18 21.0763C18 21.073 18 21.0696 18 21.0663C18 21.063 18 21.0597 18 21.0564C18 21.0531 18 21.0497 18 21.0464C18 21.0431 18 21.0398 18 21.0365C18 21.0332 18 21.0299 18 21.0266C18 21.0233 18 21.02 18 21.0167C18 21.0134 18 21.0101 18 21.0068C18 21.0035 18 21.0002 18 20.9969C18 20.9936 18 20.9903 18 20.987C18 20.9838 18 20.9805 18 20.9772C18 20.9739 18 20.9706 18 20.9673C18 20.9641 18 20.9608 18 20.9575C18 20.9542 18 20.951 18 20.9477C18 20.9444 18 20.9412 18 20.9379C18 20.9346 18 20.9314 18 20.9281C18 20.9248 18 20.9216 18 20.9183C18 20.9151 18 20.9118 18 20.9086C18 20.9053 18 20.9021 18 20.8988C18 20.8956 18 20.8923 18 20.8891C18 20.8858 18 20.8826 18 20.8794C18 20.8761 18 20.8729 18 20.8697C18 20.8664 18 20.8632 18 20.86C18 20.8567 18 20.8535 18 20.8503C18 20.8471 18 20.8438 18 20.8406C18 20.8374 18 20.8342 18 20.831C18 20.8278 18 20.8245 18 20.8213C18 20.8181 18 20.8149 18 20.8117C18 20.8085 18 20.8053 18 20.8021C18 20.7989 18 20.7957 18 20.7925C18 20.7893 18 20.7861 18 20.7829C18 20.7797 18 20.7766 18 20.7734C18 20.7702 18 20.767 18 20.7638C18 20.7607 18 20.7575 18 20.7543C18 20.7511 18 20.748 18 20.7448C18 20.7416 18 20.7385 18 20.7353C18 20.7321 18 20.729 18 20.7258C18 20.7226 18 20.7195 18 20.7163C18 20.7132 18 20.71 18 20.7069C18 20.7037 18 20.7006 18 20.6974C18 20.6943 18 20.6912 18 20.688C18 20.6849 18 20.6818 18 20.6786C18 20.6755 18 20.6724 18 20.6692C18 20.6661 18 20.663 18 20.6599C18 20.6567 18 20.6536 18 20.6505C18 20.6474 18 20.6443 18 20.6412C18 20.6381 18 20.635 18 20.6319C18 20.6288 18 20.6257 18 20.6226C18 20.6195 18 20.6164 18 20.6133C18 20.6102 18 20.6071 18 20.604C18 20.6009 18 20.5978 18 20.5948C18 20.5917 18 20.5886 18 20.5855C18 20.5824 18 20.5794 18 20.5763C18 20.5732 18 20.5702 18 20.5671C18 20.564 18 20.561 18 20.5579C18 20.5549 18 20.5518 18 20.5488C18 20.5457 18 20.5427 18 20.5396C18 20.5366 18 20.5335 18 20.5305C18 20.5274 18 20.5244 18 20.5214C18 20.5183 18 20.5153 18 20.5123C18 20.5093 18 20.5062 18 20.5032C18 20.5002 18 20.4972 18 20.4942C18 20.4911 18 20.4881 18 20.4851C18 20.4821 18 20.4791 18 20.4761C18 20.4731 18 20.4701 18 20.4671C18 20.4641 18 20.4611 18 20.4581C18 20.4552 18 20.4522 18 20.4492C18 20.4462 18 20.4432 18 20.4402C18 20.4373 18 20.4343 18 20.4313C18 20.4284 18 20.4254 18 20.4224C18 20.4195 18 20.4165 18 20.4135C18 20.4106 18 20.4076 18 20.4047C18 20.4017 18 20.3988 18 20.3958C18 20.3929 18 20.39 18 20.387C18 20.3841 18 20.3811 18 20.3782C18 20.3753 18 20.3724 18 20.3694C18 20.3665 18 20.3636 18 20.3607C18 20.3578 18 20.3548 18 20.3519C18 20.349 18 20.3461 18 20.3432C18 20.3403 18 20.3374 18 20.3345C18 20.3316 18 20.3287 18 20.3258C18 20.323 18 20.3201 18 20.3172C18 20.3143 18 20.3114 18 20.3086C18 20.3057 18 20.3028 18 20.2999C18 20.2971 18 20.2942 18 20.2913C18 20.2885 18 20.2856 18 20.2828C18 20.2799 18 20.2771 18 20.2742C18 20.2714 18 20.2685 18 20.2657C18 20.2629 18 20.26 18 20.2572C18 20.2544 18 20.2515 18 20.2487C18 20.2459 18 20.2431 18 20.2402C18 20.2374 18 20.2346 18 20.2318C18 20.229 18 20.2262 18 20.2234C18 20.2206 18 20.2178 18 20.215C18 20.2122 18 20.2094 18 20.2066C18 20.2038 18 20.201 18 20.1982C18 20.1955 18 20.1927 18 20.1899C18 20.1871 18 20.1844 18 20.1816C18 20.1788 18 20.1761 18 20.1733C18 20.1706 18 20.1678 18 20.1651C18 20.1623 18 20.1596 18 20.1568C18 20.1541 18 20.1513 18 20.1486C18 20.1459 18 20.1431 18 20.1404C18 20.1377 18 20.135 18 20.1323C18 20.1295 18 20.1268 18 20.1241C18 20.1214 18 20.1187 18 20.116C18 20.1133 18 20.1106 18 20.1079C18 20.1052 18 20.1025 18 20.0998C18 20.0971 18 20.0944 18 20.0918C18 20.0891 18 20.0864 18 20.0837C18 20.0811 18 20.0784 18 20.0757C18 20.0731 18 20.0704 18 20.0678C18 20.0651 18 20.0625 18 20.0598C18 20.0572 18 20.0545 18 20.0519C18 20.0493 18 20.0466 18 20.044C18 20.0414 18 20.0387 18 20.0361C18 20.0335 18 20.0309 18 20.0283C18 20.0256 18 20.023 18 20.0204C18 20.0178 18 20.0152 18 20.0126C18 20.01 18 20.0074 18 20.0048C18 20.0023 18 19.9997 18 19.9971C18 19.9945 18 19.9919 18 19.9894C18 19.9868 18 19.9842 18 19.9817C18 19.9791 18 19.9765 18 19.974C18 19.9714 18 19.9689 18 19.9663C18 19.9638 18 19.9613 18 19.9587C18 19.9562 18 19.9536 18 19.9511C18 19.9486 18 19.9461 18 19.9435C18 19.941 18 19.9385 18 19.936C18 19.9335 18 19.931 18 19.9285C18 19.926 18 19.9235 18 19.921C18 19.9185 18 19.916 18 19.9135C18 19.911 18 19.9086 18 19.9061C18 19.9036 18 19.9011 18 19.8987C18 19.8962 18 19.8937 18 19.8913C18 19.8888 18 19.8864 18 19.8839C18 19.8815 18 19.879 18 19.8766C18 19.8742 18 19.8717 18 19.8693C18 19.8669 18 19.8644 18 19.862C18 19.8596 18 19.8572 18 19.8548C18 19.8524 18 19.85 18 19.8476C18 19.8452 18 19.8428 18 19.8404C18 19.838 18 19.8356 18 19.8332C18 19.8308 18 19.8284 18 19.8261C18 19.8237 18 19.8213 18 19.819C18 19.8166 18 19.8142 18 19.8119C18 19.8095 18 19.8072 18 19.8048C18 19.8025 18 19.8001 18 19.7978C18 19.7955 18 19.7931 18 19.7908C18 19.7885 18 19.7862 18 19.7838C18 19.7815 18 19.7792 18 19.7769C18 19.7746 18 19.7723 18 19.77C18 19.7677 18 19.7654 18 19.7631C18 19.7608 18 19.7585 18 19.7563C18 19.754 18 19.7517 18 19.7494C18 19.7472 18 19.7449 18 19.7426C18 19.7404 18 19.7381 18 19.7359C18 19.7336 18 19.7314 18 19.7292C18 19.7269 18 19.7247 18 19.7225C18 19.7202 18 19.718 18 19.7158C18 19.7136 18 19.7113 18 19.7091C18 19.7069 18 19.7047 18 19.7025C18 19.7003 18 19.6981 18 19.6959C18 19.6938 18 19.6916 18 19.6894C18 19.6872 18 19.685 18 19.6829C18 19.6807 18 19.6785 18 19.6764C18 19.6742 18 19.6721 18 19.6699C18 19.6678 18 19.6656 18 19.6635C18 19.6613 18 19.6592 18 19.6571C18 19.655 18 19.6528 18 19.6507C18 19.6486 18 19.6465 18 19.6444C18 19.6423 18 19.6402 18 19.6381C18 19.636 18 19.6339 18 19.6318C18 19.6297 18 19.6276 18 19.6256C18 19.6235 18 19.6214 18 19.6193C18 19.6173 18 19.6152 18 19.6132C18 19.6111 18 19.6091 18 19.607C18 19.605 18 19.6029 18 19.6009C18 19.5989 18 19.5968 18 19.5948C18 19.5928 18 19.5908 18 19.5888C18 19.5868 18 19.5848 18 19.5828C18 19.5808 18 19.5788 18 19.5768C18 19.5748 18 19.5728 18 19.5708C18 19.5688 18 19.5669 18 19.5649C18 19.5629 18 19.561 18 19.559C18 19.557 18 19.5551 18 19.5531C18 19.5512 18 19.5493 18 19.5473C18 19.5454 18 19.5435 18 19.5415C18 19.5396 18 19.5377 18 19.5358C18 19.5339 18 19.532 18 19.5301C18 19.5281 18 19.5263 18 19.5244C18 19.5225 18 19.5206 18 19.5187C18 19.5168 18 19.5149 18 19.5131C18 19.5112 18 19.5093 18 19.5075C18 19.5056 18 19.5038 18 19.5019C18 19.5001 18 19.4982 18 19.4964C18 19.4946 18 19.4928 18 19.4909C18 19.4891 18 19.4873 18 19.4855C18 19.4837 18 19.4819 18 19.4801C18 19.4783 18 19.4765 18 19.4747C18 19.4729 18 19.4711 18 19.4693C18 19.4675 18 19.4658 18 19.464C18 19.4622 18 19.4605 18 19.4587C18 19.457 18 19.4552 18 19.4535C18 19.4517 18 19.45 18 19.4483C18 19.4465 18 19.4448 18 19.4431C18 19.4414 18 19.4397 18 19.438C18 19.4363 18 19.4345 18 19.4329C18 19.4312 18 19.4295 18 19.4278C18 19.4261 18 19.4244 18 19.4228C18 19.4211 18 19.4194 18 19.4178C18 19.4161 18 19.4144 18 19.4128C18 19.4111 18 19.4095 18 19.4079C18 19.4062 18 19.4046 18 19.403C18 19.4014 18 19.3997 18 19.3981C18 19.3965 18 19.3949 18 19.3933C18 19.3917 18 19.3901 18 19.3885C18 19.3869 18 19.3854 18 19.3838C18 19.3822 18 19.3806 18 19.3791C18 19.3775 18 19.376 18 19.3744C18 19.3729 18 19.3713 18 19.3698C18 19.3682 18 19.3667 18 19.3652C18 19.3636 18 19.3621 18 19.3606C18 19.3591 18 19.3576 18 19.3561C18 19.3546 18 19.3531 18 19.3516C18 19.3501 18 19.3486 18 19.3472C18 19.3457 18 19.3442 18 19.3427C18 19.3413 18 19.3398 18 19.3384C18 19.3369 18 19.3355 18 19.334C18 19.3326 18 19.3312 18 19.3297C18 19.3283 18 19.3269 18 19.3255C18 19.3241 18 19.3227 18 19.3213C18 19.3199 18 19.3185 18 19.3171C18 19.3157 18 19.3143 18 19.3129C18 19.3116 18 19.3102 18 19.3088C18 19.3075 18 19.3061 18 19.3048C18 19.3034 18 19.3021 18 19.3007C18 19.2994 18 19.2981 18 19.2967C18 19.2954 18 19.2941 18 19.2928C18 19.2915 18 19.2902 18 19.2889C18 19.2876 18 19.2863 18 19.285C18 19.2837 18 19.2824 18 19.2812C18 19.2799 18 19.2786 18 19.2774C18 19.2761 18 19.2749 18 19.2736C18 19.2724 18 19.2711 18 19.2699C18 19.2687 18 19.2675 18 19.2662C18 19.265 18 19.2638 18 19.2626C18 19.2614 18 19.2602 18 19.259C18 19.2578 18 19.2566 18 19.2555C18 19.2543 18 19.2531 18 19.2519C18 19.2508 18 19.2496 18 19.2485C18 19.2473 18 19.2462 18 19.245C18 19.2439 18 19.2428 18 19.2416C18 19.2405 18 19.2394 18 19.2383C18 19.2372 18 19.2361 18 19.235C18 19.2339 18 19.2328 18 19.2317C18 19.2306 18 19.2295 18 19.2285C18 19.2274 18 19.2263 18 19.2253C18 19.2242 18 19.2232 18 19.2221C18 19.2211 18 19.2201 18 19.219C18 19.218 18 19.217 18 19.216C18 19.215 18 19.2139 18 19.2129C18 19.2119 18 19.2109 18 19.21C18 19.209 18 19.208 18 19.207C18 19.206 18 19.2051 18 19.2041C18 19.2032 18 19.2022 18 19.2013C18 19.2003 18 19.1994 18 19.1985C18 19.1975 18 19.1966 18 19.1957C18 19.1948 18 19.1939 18 19.193C18 19.1921 18 19.1912 18 19.1903C18 19.1894 18 19.1885 18 19.1876C18 19.1868 18 19.1859 18 19.185C18 19.1842 18 19.1833 18 19.1825C18 19.1816 18 19.1808 18 19.18C18 19.1791 18 19.1783 18 19.1775C18 19.1767 18 19.1759 18 19.175C18 19.1742 18 19.1735 18 19.1727C18 19.1719 18 19.1711 18 19.1703C18 19.1695 18 19.1688 18 19.168C18 19.1673 18 19.1665 18 19.1658C18 19.165 18 19.1643 18 19.1636C18 19.1628 18 19.1621 18 19.1614C18 19.1607 18 19.16 18 19.1593C18 19.1586 18 19.1579 18 19.1572C18 19.1565 18 19.1558 18 19.1552C18 19.1545 18 19.1538 18 19.1532C18 19.1525 18 19.1519 18 19.1512C18 19.1506 18 19.1499 18 19.1493C18 19.1487 18 19.1481 18 19.1475C18 19.1468 18 19.1462 18 19.1456C18 19.145 18 19.1445 18 19.1439C18 19.1433 18 19.1427 18 19.1422C18 19.1416 18 19.141 18 19.1405C18 19.1399 18 19.1394 18 19.1388C18 19.1383 18 19.1378 18 19.1373C18 19.1367 18 19.1362 18 19.1357C18 19.1352 18 19.1347 18 19.1342C18 19.1337 18 19.1332 18 19.1328C18 19.1323 18 19.1318 18 19.1314C18 19.1309 18 19.1305 18 19.13C18 19.1296 18 19.1291 18 19.1287C18 19.1283 18 19.1278 18 19.1274C18 19.127 18 19.1266 18 19.1262C18 19.1258 18 19.1254 18 19.125C18 19.1247 18 19.1243 18 19.1239C18 19.1235 18 19.1232 18 19.1228C18 19.1225 18 19.1221 18 19.1218C18 19.1215 18 19.1211 18 19.1208C18 19.1205 18 19.1202 18 19.1199C18 19.1196 18 19.1193 18 19.119C18 19.1187 18 19.1184 18 19.1181C18 19.1179 18 19.1176 18 19.1173C18 19.1171 18 19.1168 18 19.1166C18 19.1163 18 19.1161 18 19.1159C18 19.1157 18 19.1154 18 19.1152C18 19.115 18 19.1148 18 19.1146C18 19.1144 18 19.1142 18 19.1141C18 19.1139 18 19.1137 18 19.1136C18 19.1134 18 19.1132 18 19.1131C18 19.1129 18 19.1128 18 19.1127C18 19.1125 18 19.1124 18 19.1123C18 19.1122 18 19.1121 18 19.112C18 19.1119 18 19.1118 18 19.1117C18 19.1116 18 19.1116 18 19.1115C18 19.1114 18 19.1114 18 19.1113C18 19.1113 18 19.1112 18 19.1112C18 19.1112 18 19.1112 18 19.1111C18 19.1111 18 19.1111 16.5 19.1111ZM15 23C15 23.0034 15 23.0068 15 23.0102C15 23.0136 15 23.017 15 23.0204C15 23.0238 15 23.0272 15 23.0307C15 23.0341 15 23.0375 15 23.041C15 23.0444 15 23.0478 15 23.0513C15 23.0547 15 23.0582 15 23.0616C15 23.0651 15 23.0686 15 23.072C15 23.0755 15 23.079 15 23.0825C15 23.0859 15 23.0894 15 23.0929C15 23.0964 15 23.0999 15 23.1034C15 23.1069 15 23.1104 15 23.1139C15 23.1175 15 23.121 15 23.1245C15 23.128 15 23.1316 15 23.1351C15 23.1386 15 23.1422 15 23.1457C15 23.1493 15 23.1528 15 23.1564C15 23.1599 15 23.1635 15 23.1671C15 23.1706 15 23.1742 15 23.1778C15 23.1813 15 23.1849 15 23.1885C15 23.1921 15 23.1957 15 23.1993C15 23.2029 15 23.2065 15 23.2101C15 23.2137 15 23.2173 15 23.221C15 23.2246 15 23.2282 15 23.2318C15 23.2355 15 23.2391 15 23.2427C15 23.2464 15 23.25 15 23.2537C15 23.2573 15 23.261 15 23.2646C15 23.2683 15 23.2719 15 23.2756C15 23.2793 15 23.283 15 23.2866C15 23.2903 15 23.294 15 23.2977C15 23.3014 15 23.3051 15 23.3088C15 23.3125 15 23.3162 15 23.3199C15 23.3236 15 23.3273 15 23.331C15 23.3347 15 23.3385 15 23.3422C15 23.3459 15 23.3496 15 23.3534C15 23.3571 15 23.3609 15 23.3646C15 23.3683 15 23.3721 15 23.3758C15 23.3796 15 23.3834 15 23.3871C15 23.3909 15 23.3947 15 23.3984C15 23.4022 15 23.406 15 23.4098C15 23.4135 15 23.4173 15 23.4211C15 23.4249 15 23.4287 15 23.4325C15 23.4363 15 23.4401 15 23.4439C15 23.4477 15 23.4515 15 23.4554C15 23.4592 15 23.463 15 23.4668C15 23.4706 15 23.4745 15 23.4783C15 23.4821 15 23.486 15 23.4898C15 23.4937 15 23.4975 15 23.5014C15 23.5052 15 23.5091 15 23.5129C15 23.5168 15 23.5206 15 23.5245C15 23.5284 15 23.5323 15 23.5361C15 23.54 15 23.5439 15 23.5478C15 23.5517 15 23.5555 15 23.5594C15 23.5633 15 23.5672 15 23.5711C15 23.575 15 23.5789 15 23.5828C15 23.5867 15 23.5906 15 23.5946C15 23.5985 15 23.6024 15 23.6063C15 23.6102 15 23.6142 15 23.6181C15 23.622 15 23.626 15 23.6299C15 23.6338 15 23.6378 15 23.6417C15 23.6457 15 23.6496 15 23.6536C15 23.6575 15 23.6615 15 23.6655C15 23.6694 15 23.6734 15 23.6774C15 23.6813 15 23.6853 15 23.6893C15 23.6932 15 23.6972 15 23.7012C15 23.7052 15 23.7092 15 23.7132C15 23.7172 15 23.7212 15 23.7251C15 23.7291 15 23.7331 15 23.7372C15 23.7412 15 23.7452 15 23.7492C15 23.7532 15 23.7572 15 23.7612C15 23.7652 15 23.7693 15 23.7733C15 23.7773 15 23.7813 15 23.7854C15 23.7894 15 23.7934 15 23.7975C15 23.8015 15 23.8055 15 23.8096C15 23.8136 15 23.8177 15 23.8217C15 23.8258 15 23.8298 15 23.8339C15 23.838 15 23.842 15 23.8461C15 23.8501 15 23.8542 15 23.8583C15 23.8624 15 23.8664 15 23.8705C15 23.8746 15 23.8787 15 23.8827C15 23.8868 15 23.8909 15 23.895C15 23.8991 15 23.9032 15 23.9073C15 23.9114 15 23.9155 15 23.9196C15 23.9237 15 23.9278 15 23.9319C15 23.936 15 23.9401 15 23.9442C15 23.9483 15 23.9524 15 23.9565C15 23.9607 15 23.9648 15 23.9689C15 23.973 15 23.9772 15 23.9813C15 23.9854 15 23.9895 15 23.9937C15 23.9978 15 24.002 15 24.0061C15 24.0102 15 24.0144 15 24.0185C15 24.0227 15 24.0268 15 24.031C15 24.0351 15 24.0393 15 24.0434C15 24.0476 15 24.0517 15 24.0559C15 24.0601 15 24.0642 15 24.0684C15 24.0726 15 24.0767 15 24.0809C15 24.0851 15 24.0892 15 24.0934C15 24.0976 15 24.1018 15 24.1059C15 24.1101 15 24.1143 15 24.1185C15 24.1227 15 24.1269 15 24.1311C15 24.1352 15 24.1394 15 24.1436C15 24.1478 15 24.152 15 24.1562C15 24.1604 15 24.1646 15 24.1688C15 24.173 15 24.1772 15 24.1814C15 24.1857 15 24.1899 15 24.1941C15 24.1983 15 24.2025 15 24.2067C15 24.2109 15 24.2152 15 24.2194C15 24.2236 15 24.2278 15 24.232C15 24.2363 15 24.2405 15 24.2447C15 24.249 15 24.2532 15 24.2574C15 24.2617 15 24.2659 15 24.2701C15 24.2744 15 24.2786 15 24.2828C15 24.2871 15 24.2913 15 24.2956C15 24.2998 15 24.3041 15 24.3083C15 24.3126 15 24.3168 15 24.3211C15 24.3253 15 24.3296 15 24.3338C15 24.3381 15 24.3423 15 24.3466C15 24.3508 15 24.3551 15 24.3594C15 24.3636 15 24.3679 15 24.3722C15 24.3764 15 24.3807 15 24.385C15 24.3892 15 24.3935 15 24.3978C15 24.402 15 24.4063 15 24.4106C15 24.4149 15 24.4191 15 24.4234C15 24.4277 15 24.432 15 24.4363C15 24.4405 15 24.4448 15 24.4491C15 24.4534 15 24.4577 15 24.462C15 24.4663 15 24.4705 15 24.4748C15 24.4791 15 24.4834 15 24.4877C15 24.492 15 24.4963 15 24.5006C15 24.5049 15 24.5092 15 24.5135C15 24.5178 15 24.5221 15 24.5264C15 24.5307 15 24.535 15 24.5393C15 24.5436 15 24.5479 15 24.5522C15 24.5565 15 24.5608 15 24.5651C15 24.5694 15 24.5737 15 24.578C15 24.5823 15 24.5867 15 24.591C15 24.5953 15 24.5996 15 24.6039C15 24.6082 15 24.6125 15 24.6169C15 24.6212 15 24.6255 15 24.6298C15 24.6341 15 24.6384 15 24.6428C15 24.6471 15 24.6514 15 24.6557C15 24.66 15 24.6644 15 24.6687C15 24.673 15 24.6773 15 24.6817C15 24.686 15 24.6903 15 24.6946C15 24.699 15 24.7033 15 24.7076C15 24.7119 15 24.7163 15 24.7206C15 24.7249 15 24.7293 15 24.7336C15 24.7379 15 24.7422 15 24.7466C15 24.7509 15 24.7552 15 24.7596C15 24.7639 15 24.7682 15 24.7726C15 24.7769 15 24.7812 15 24.7856C15 24.7899 15 24.7942 15 24.7986C15 24.8029 15 24.8073 15 24.8116C15 24.8159 15 24.8203 15 24.8246C15 24.8289 15 24.8333 15 24.8376C15 24.842 15 24.8463 15 24.8506C15 24.855 15 24.8593 15 24.8637C15 24.868 15 24.8723 15 24.8767C15 24.881 15 24.8854 15 24.8897C15 24.894 15 24.8984 15 24.9027C15 24.9071 15 24.9114 15 24.9157C15 24.9201 15 24.9244 15 24.9288C15 24.9331 15 24.9375 15 24.9418C15 24.9461 15 24.9505 15 24.9548C15 24.9592 15 24.9635 15 24.9678C15 24.9722 15 24.9765 15 24.9809C15 24.9852 15 24.9896 15 24.9939C15 24.9982 15 25.0026 15 25.0069C15 25.0113 15 25.0156 15 25.02C15 25.0243 15 25.0286 15 25.033C15 25.0373 15 25.0417 15 25.046C15 25.0503 15 25.0547 15 25.059C15 25.0634 15 25.0677 15 25.072C15 25.0764 15 25.0807 15 25.0851C15 25.0894 15 25.0937 15 25.0981C15 25.1024 15 25.1068 15 25.1111C15 25.1154 15 25.1198 15 25.1241C15 25.1284 15 25.1328 15 25.1371C15 25.1415 15 25.1458 15 25.1501C15 25.1545 15 25.1588 15 25.1631C15 25.1675 15 25.1718 15 25.1761C15 25.1805 15 25.1848 15 25.1891C15 25.1935 15 25.1978 15 25.2021C15 25.2065 15 25.2108 15 25.2151C15 25.2194 15 25.2238 15 25.2281C15 25.2324 15 25.2368 15 25.2411C15 25.2454 15 25.2497 15 25.2541C15 25.2584 15 25.2627 15 25.267C15 25.2714 15 25.2757 15 25.28C15 25.2843 15 25.2887 15 25.293C15 25.2973 15 25.3016 15 25.3059C15 25.3103 15 25.3146 15 25.3189C15 25.3232 15 25.3275 15 25.3318C15 25.3361 15 25.3405 15 25.3448C15 25.3491 15 25.3534 15 25.3577C15 25.362 15 25.3663 15 25.3706C15 25.3749 15 25.3793 15 25.3836C15 25.3879 15 25.3922 15 25.3965C15 25.4008 15 25.4051 15 25.4094C15 25.4137 15 25.418 15 25.4223C15 25.4266 15 25.4309 15 25.4352C15 25.4395 15 25.4438 15 25.4481C15 25.4524 15 25.4567 15 25.4609C15 25.4652 15 25.4695 15 25.4738C15 25.4781 15 25.4824 15 25.4867C15 25.491 15 25.4952 15 25.4995C15 25.5038 15 25.5081 15 25.5124C15 25.5167 15 25.5209 15 25.5252C15 25.5295 15 25.5338 15 25.538C15 25.5423 15 25.5466 15 25.5509C15 25.5551 15 25.5594 15 25.5637C15 25.5679 15 25.5722 15 25.5765C15 25.5807 15 25.585 15 25.5892C15 25.5935 15 25.5978 15 25.602C15 25.6063 15 25.6105 15 25.6148C15 25.619 15 25.6233 15 25.6275C15 25.6318 15 25.636 15 25.6403C15 25.6445 15 25.6488 15 25.653C15 25.6573 15 25.6615 15 25.6658C15 25.67 15 25.6742 15 25.6785C15 25.6827 15 25.6869 15 25.6912C15 25.6954 15 25.6996 15 25.7039C15 25.7081 15 25.7123 15 25.7165C15 25.7208 15 25.725 15 25.7292C15 25.7334 15 25.7376 15 25.7418C15 25.7461 15 25.7503 15 25.7545C15 25.7587 15 25.7629 15 25.7671C15 25.7713 15 25.7755 15 25.7797C15 25.7839 15 25.7881 15 25.7923C15 25.7965 15 25.8007 15 25.8049C15 25.8091 15 25.8133 15 25.8175C15 25.8217 15 25.8258 15 25.83C15 25.8342 15 25.8384 15 25.8426C15 25.8468 15 25.8509 15 25.8551C15 25.8593 15 25.8634 15 25.8676C15 25.8718 15 25.876 15 25.8801C15 25.8843 15 25.8884 15 25.8926C15 25.8968 15 25.9009 15 25.9051C15 25.9092 15 25.9134 15 25.9175C15 25.9217 15 25.9258 15 25.93C15 25.9341 15 25.9382 15 25.9424C15 25.9465 15 25.9507 15 25.9548C15 25.9589 15 25.963 15 25.9672C15 25.9713 15 25.9754 15 25.9795C15 25.9837 15 25.9878 15 25.9919C15 25.996 15 26.0001 15 26.0042C15 26.0083 15 26.0125 15 26.0166C15 26.0207 15 26.0248 15 26.0289C15 26.033 15 26.037 15 26.0411C15 26.0452 15 26.0493 15 26.0534C15 26.0575 15 26.0616 15 26.0657C15 26.0697 15 26.0738 15 26.0779C15 26.082 15 26.086 15 26.0901C15 26.0942 15 26.0982 15 26.1023C15 26.1064 15 26.1104 15 26.1145C15 26.1185 15 26.1226 15 26.1266C15 26.1307 15 26.1347 15 26.1388C15 26.1428 15 26.1468 15 26.1509C15 26.1549 15 26.1589 15 26.163C15 26.167 15 26.171 15 26.175C15 26.1791 15 26.1831 15 26.1871C15 26.1911 15 26.1951 15 26.1991C15 26.2031 15 26.2071 15 26.2112C15 26.2152 15 26.2192 15 26.2231C15 26.2271 15 26.2311 15 26.2351C15 26.2391 15 26.2431 15 26.2471C15 26.251 15 26.255 15 26.259C15 26.263 15 26.2669 15 26.2709C15 26.2749 15 26.2788 15 26.2828C15 26.2867 15 26.2907 15 26.2947C15 26.2986 15 26.3026 15 26.3065C15 26.3104 15 26.3144 15 26.3183C15 26.3222 15 26.3262 15 26.3301C15 26.334 15 26.338 15 26.3419C15 26.3458 15 26.3497 15 26.3536C15 26.3575 15 26.3615 15 26.3654C15 26.3693 15 26.3732 15 26.3771C15 26.381 15 26.3848 15 26.3887C15 26.3926 15 26.3965 15 26.4004C15 26.4043 15 26.4081 15 26.412C15 26.4159 15 26.4198 15 26.4236C15 26.4275 15 26.4313 15 26.4352C15 26.4391 15 26.4429 15 26.4468C15 26.4506 15 26.4544 15 26.4583C15 26.4621 15 26.466 15 26.4698C15 26.4736 15 26.4774 15 26.4813C15 26.4851 15 26.4889 15 26.4927C15 26.4965 15 26.5003 15 26.5042C15 26.508 15 26.5118 15 26.5156C15 26.5193 15 26.5231 15 26.5269C15 26.5307 15 26.5345 15 26.5383C15 26.542 15 26.5458 15 26.5496C15 26.5534 15 26.5571 15 26.5609C15 26.5646 15 26.5684 15 26.5722C15 26.5759 15 26.5796 15 26.5834C15 26.5871 15 26.5909 15 26.5946C15 26.5983 15 26.6021 15 26.6058C15 26.6095 15 26.6132 15 26.6169C15 26.6206 15 26.6244 15 26.6281C15 26.6318 15 26.6355 15 26.6392C15 26.6429 15 26.6465 15 26.6502C15 26.6539 15 26.6576 15 26.6613C15 26.6649 15 26.6686 15 26.6723C15 26.6759 15 26.6796 15 26.6833C15 26.6869 15 26.6906 15 26.6942C15 26.6979 15 26.7015 15 26.7051C15 26.7088 15 26.7124 15 26.716C15 26.7196 15 26.7233 15 26.7269C15 26.7305 15 26.7341 15 26.7377C15 26.7413 15 26.7449 15 26.7485C15 26.7521 15 26.7557 15 26.7593C15 26.7629 15 26.7664 15 26.77C15 26.7736 15 26.7772 15 26.7807C15 26.7843 15 26.7878 15 26.7914C15 26.7949 15 26.7985 15 26.802C15 26.8056 15 26.8091 15 26.8126C15 26.8162 15 26.8197 15 26.8232C15 26.8267 15 26.8303 15 26.8338C15 26.8373 15 26.8408 15 26.8443C15 26.8478 15 26.8513 15 26.8548C15 26.8582 15 26.8617 15 26.8652C15 26.8687 15 26.8721 15 26.8756C15 26.8791 15 26.8825 15 26.886C15 26.8894 15 26.8929 15 26.8963C15 26.8998 15 26.9032 15 26.9067C15 26.9101 15 26.9135 15 26.9169C15 26.9203 15 26.9238 15 26.9272C15 26.9306 15 26.934 15 26.9374C15 26.9408 15 26.9442 15 26.9476C15 26.9509 15 26.9543 15 26.9577C15 26.9611 15 26.9644 15 26.9678C15 26.9712 15 26.9745 15 26.9779C15 26.9812 15 26.9846 15 26.9879C15 26.9912 15 26.9946 15 26.9979C15 27.0012 15 27.0045 15 27.0078C15 27.0112 15 27.0145 15 27.0178C15 27.0211 15 27.0244 15 27.0277C15 27.0309 15 27.0342 15 27.0375C15 27.0408 15 27.0441 15 27.0473C15 27.0506 15 27.0538 15 27.0571C15 27.0603 15 27.0636 15 27.0668C15 27.0701 15 27.0733 15 27.0765C15 27.0798 15 27.083 15 27.0862C15 27.0894 15 27.0926 15 27.0958C15 27.099 15 27.1022 15 27.1054C15 27.1086 15 27.1118 15 27.115C15 27.1181 15 27.1213 15 27.1245C15 27.1276 15 27.1308 15 27.1339C15 27.1371 15 27.1402 15 27.1434C15 27.1465 15 27.1496 15 27.1528C15 27.1559 15 27.159 15 27.1621C15 27.1652 15 27.1683 15 27.1714C15 27.1745 15 27.1776 15 27.1807C15 27.1838 15 27.1869 15 27.1899C15 27.193 15 27.1961 15 27.1991C15 27.2022 15 27.2052 15 27.2083C15 27.2113 15 27.2143 15 27.2174C15 27.2204 15 27.2234 15 27.2264C15 27.2295 15 27.2325 15 27.2355C15 27.2385 15 27.2415 15 27.2445C15 27.2474 15 27.2504 15 27.2534C15 27.2564 15 27.2593 15 27.2623C15 27.2653 15 27.2682 15 27.2712C15 27.2741 15 27.2771 15 27.28C15 27.2829 15 27.2858 15 27.2888C15 27.2917 15 27.2946 15 27.2975C15 27.3004 15 27.3033 15 27.3062C15 27.3091 15 27.312 15 27.3148C15 27.3177 15 27.3206 15 27.3234C15 27.3263 15 27.3291 15 27.332C15 27.3348 15 27.3377 15 27.3405C15 27.3433 15 27.3462 15 27.349C15 27.3518 15 27.3546 15 27.3574C15 27.3602 15 27.363 15 27.3658C15 27.3686 15 27.3714 15 27.3741C15 27.3769 15 27.3797 15 27.3824C15 27.3852 15 27.3879 15 27.3907C15 27.3934 15 27.3961 15 27.3989C15 27.4016 15 27.4043 15 27.407C15 27.4097 15 27.4124 15 27.4151C15 27.4178 15 27.4205 15 27.4232C15 27.4259 15 27.4286 15 27.4312C15 27.4339 15 27.4365 15 27.4392C15 27.4418 15 27.4445 15 27.4471C15 27.4498 15 27.4524 15 27.455C15 27.4576 15 27.4602 15 27.4628C15 27.4654 15 27.468 15 27.4706C15 27.4732 15 27.4758 15 27.4783C15 27.4809 15 27.4835 15 27.486C15 27.4886 15 27.4911 15 27.4937C15 27.4962 15 27.4988 15 27.5013C15 27.5038 15 27.5063 15 27.5088C15 27.5113 15 27.5138 15 27.5163C15 27.5188 15 27.5213 15 27.5238C15 27.5262 15 27.5287 15 27.5312C15 27.5336 15 27.5361 15 27.5385C15 27.541 15 27.5434 15 27.5458C15 27.5482 15 27.5507 15 27.5531C15 27.5555 15 27.5579 15 27.5603C15 27.5627 15 27.565 15 27.5674C15 27.5698 15 27.5722 15 27.5745C15 27.5769 15 27.5792 15 27.5816C15 27.5839 15 27.5862 15 27.5886C15 27.5909 15 27.5932 15 27.5955C15 27.5978 15 27.6001 15 27.6024C15 27.6047 15 27.607 15 27.6092C15 27.6115 15 27.6138 15 27.616C15 27.6183 15 27.6205 15 27.6228C15 27.625 15 27.6273 15 27.6295C15 27.6317 15 27.6339 15 27.6361C15 27.6383 15 27.6405 15 27.6427C15 27.6449 15 27.6471 15 27.6492C15 27.6514 15 27.6536 15 27.6557C15 27.6579 15 27.66 15 27.6621C15 27.6643 15 27.6664 15 27.6685C15 27.6706 15 27.6727 15 27.6748C15 27.6769 15 27.679 15 27.6811C15 27.6832 15 27.6852 15 27.6873C15 27.6894 15 27.6914 15 27.6935C15 27.6955 15 27.6975 15 27.6996C15 27.7016 15 27.7036 15 27.7056C15 27.7076 15 27.7096 15 27.7116C15 27.7136 15 27.7156 15 27.7176C15 27.7195 15 27.7215 15 27.7234C15 27.7254 15 27.7273 15 27.7293C15 27.7312 15 27.7331 15 27.735C15 27.737 15 27.7389 15 27.7408C15 27.7427 15 27.7445 15 27.7464C15 27.7483 15 27.7502 15 27.752C15 27.7539 15 27.7557 15 27.7576C15 27.7594 15 27.7612 15 27.7631C15 27.7649 15 27.7667 15 27.7685C15 27.7703 15 27.7721 15 27.7739C15 27.7757 15 27.7774 15 27.7792C15 27.781 15 27.7827 15 27.7845C15 27.7862 15 27.7879 15 27.7897C15 27.7914 15 27.7931 15 27.7948C15 27.7965 15 27.7982 15 27.7999C15 27.8016 15 27.8033 15 27.8049C15 27.8066 15 27.8083 15 27.8099C15 27.8115 15 27.8132 15 27.8148C15 27.8164 15 27.8181 15 27.8197C15 27.8213 15 27.8229 15 27.8245C15 27.8261 15 27.8276 15 27.8292C15 27.8308 15 27.8323 15 27.8339C15 27.8354 15 27.837 15 27.8385C15 27.84 15 27.8415 15 27.843C15 27.8446 15 27.846 15 27.8475C15 27.849 15 27.8505 15 27.852C15 27.8534 15 27.8549 15 27.8563C15 27.8578 15 27.8592 15 27.8607C15 27.8621 15 27.8635 15 27.8649C15 27.8663 15 27.8677 15 27.8691C15 27.8705 15 27.8719 15 27.8732C15 27.8746 15 27.8759 15 27.8773C15 27.8786 15 27.88 15 27.8813C15 27.8826 15 27.8839 15 27.8852C15 27.8865 15 27.8878 15 27.8891C15 27.8904 15 27.8917 15 27.8929C15 27.8942 15 27.8954 15 27.8967C15 27.8979 15 27.8992 15 27.9004C15 27.9016 15 27.9028 15 27.904C15 27.9052 15 27.9064 15 27.9076C15 27.9087 15 27.9099 15 27.9111C15 27.9122 15 27.9134 15 27.9145C15 27.9156 15 27.9168 15 27.9179C15 27.919 15 27.9201 15 27.9212C15 27.9223 15 27.9234 15 27.9244C15 27.9255 15 27.9266 15 27.9276C15 27.9287 15 27.9297 15 27.9307C15 27.9317 15 27.9328 15 27.9338C15 27.9348 15 27.9358 15 27.9367C15 27.9377 15 27.9387 15 27.9397C15 27.9406 15 27.9416 15 27.9425C15 27.9435 15 27.9444 15 27.9453C15 27.9462 15 27.9471 15 27.948C15 27.9489 15 27.9498 15 27.9507C15 27.9515 15 27.9524 15 27.9533C15 27.9541 15 27.9549 15 27.9558C15 27.9566 15 27.9574 15 27.9582C15 27.959 15 27.9598 15 27.9606C15 27.9614 15 27.9622 15 27.9629C15 27.9637 15 27.9644 15 27.9652C15 27.9659 15 27.9666 15 27.9673C15 27.9681 15 27.9688 15 27.9695C15 27.9701 15 27.9708 15 27.9715C15 27.9722 15 27.9728 15 27.9735C15 27.9741 15 27.9748 15 27.9754C15 27.976 15 27.9766 15 27.9772C15 27.9778 15 27.9784 15 27.979C15 27.9796 15 27.9801 15 27.9807C15 27.9812 15 27.9818 15 27.9823C15 27.9828 15 27.9833 15 27.9839C15 27.9844 15 27.9849 15 27.9853C15 27.9858 15 27.9863 15 27.9868C15 27.9872 15 27.9877 15 27.9881C15 27.9885 15 27.989 15 27.9894C15 27.9898 15 27.9902 15 27.9906C15 27.991 15 27.9913 15 27.9917C15 27.9921 15 27.9924 15 27.9928C15 27.9931 15 27.9934 15 27.9938C15 27.9941 15 27.9944 15 27.9947C15 27.995 15 27.9953 15 27.9955C15 27.9958 15 27.9961 15 27.9963C15 27.9965 15 27.9968 15 27.997C15 27.9972 15 27.9974 15 27.9976C15 27.9978 15 27.998 15 27.9982C15 27.9984 15 27.9985 15 27.9987C15 27.9988 15 27.9989 15 27.9991C15 27.9992 15 27.9993 15 27.9994C15 27.9995 15 27.9996 15 27.9997C15 27.9997 15 27.9998 15 27.9999C15 27.9999 15 27.9999 15 28C15 28 15 28 16.5 28C18 28 18 28 18 28C18 27.9999 18 27.9999 18 27.9999C18 27.9998 18 27.9997 18 27.9997C18 27.9996 18 27.9995 18 27.9994C18 27.9993 18 27.9992 18 27.9991C18 27.9989 18 27.9988 18 27.9987C18 27.9985 18 27.9984 18 27.9982C18 27.998 18 27.9978 18 27.9976C18 27.9974 18 27.9972 18 27.997C18 27.9968 18 27.9965 18 27.9963C18 27.9961 18 27.9958 18 27.9955C18 27.9953 18 27.995 18 27.9947C18 27.9944 18 27.9941 18 27.9938C18 27.9934 18 27.9931 18 27.9928C18 27.9924 18 27.9921 18 27.9917C18 27.9913 18 27.991 18 27.9906C18 27.9902 18 27.9898 18 27.9894C18 27.989 18 27.9885 18 27.9881C18 27.9877 18 27.9872 18 27.9868C18 27.9863 18 27.9858 18 27.9853C18 27.9849 18 27.9844 18 27.9839C18 27.9833 18 27.9828 18 27.9823C18 27.9818 18 27.9812 18 27.9807C18 27.9801 18 27.9796 18 27.979C18 27.9784 18 27.9778 18 27.9772C18 27.9766 18 27.976 18 27.9754C18 27.9748 18 27.9741 18 27.9735C18 27.9728 18 27.9722 18 27.9715C18 27.9708 18 27.9701 18 27.9695C18 27.9688 18 27.9681 18 27.9673C18 27.9666 18 27.9659 18 27.9652C18 27.9644 18 27.9637 18 27.9629C18 27.9622 18 27.9614 18 27.9606C18 27.9598 18 27.959 18 27.9582C18 27.9574 18 27.9566 18 27.9558C18 27.9549 18 27.9541 18 27.9533C18 27.9524 18 27.9515 18 27.9507C18 27.9498 18 27.9489 18 27.948C18 27.9471 18 27.9462 18 27.9453C18 27.9444 18 27.9435 18 27.9425C18 27.9416 18 27.9406 18 27.9397C18 27.9387 18 27.9377 18 27.9367C18 27.9358 18 27.9348 18 27.9338C18 27.9328 18 27.9317 18 27.9307C18 27.9297 18 27.9287 18 27.9276C18 27.9266 18 27.9255 18 27.9244C18 27.9234 18 27.9223 18 27.9212C18 27.9201 18 27.919 18 27.9179C18 27.9168 18 27.9156 18 27.9145C18 27.9134 18 27.9122 18 27.9111C18 27.9099 18 27.9087 18 27.9076C18 27.9064 18 27.9052 18 27.904C18 27.9028 18 27.9016 18 27.9004C18 27.8992 18 27.8979 18 27.8967C18 27.8954 18 27.8942 18 27.8929C18 27.8917 18 27.8904 18 27.8891C18 27.8878 18 27.8865 18 27.8852C18 27.8839 18 27.8826 18 27.8813C18 27.88 18 27.8786 18 27.8773C18 27.8759 18 27.8746 18 27.8732C18 27.8719 18 27.8705 18 27.8691C18 27.8677 18 27.8663 18 27.8649C18 27.8635 18 27.8621 18 27.8607C18 27.8592 18 27.8578 18 27.8563C18 27.8549 18 27.8534 18 27.852C18 27.8505 18 27.849 18 27.8475C18 27.846 18 27.8446 18 27.843C18 27.8415 18 27.84 18 27.8385C18 27.837 18 27.8354 18 27.8339C18 27.8323 18 27.8308 18 27.8292C18 27.8276 18 27.8261 18 27.8245C18 27.8229 18 27.8213 18 27.8197C18 27.8181 18 27.8164 18 27.8148C18 27.8132 18 27.8115 18 27.8099C18 27.8083 18 27.8066 18 27.8049C18 27.8033 18 27.8016 18 27.7999C18 27.7982 18 27.7965 18 27.7948C18 27.7931 18 27.7914 18 27.7897C18 27.7879 18 27.7862 18 27.7845C18 27.7827 18 27.781 18 27.7792C18 27.7774 18 27.7757 18 27.7739C18 27.7721 18 27.7703 18 27.7685C18 27.7667 18 27.7649 18 27.7631C18 27.7612 18 27.7594 18 27.7576C18 27.7557 18 27.7539 18 27.752C18 27.7502 18 27.7483 18 27.7464C18 27.7445 18 27.7427 18 27.7408C18 27.7389 18 27.737 18 27.735C18 27.7331 18 27.7312 18 27.7293C18 27.7273 18 27.7254 18 27.7234C18 27.7215 18 27.7195 18 27.7176C18 27.7156 18 27.7136 18 27.7116C18 27.7096 18 27.7076 18 27.7056C18 27.7036 18 27.7016 18 27.6996C18 27.6975 18 27.6955 18 27.6935C18 27.6914 18 27.6894 18 27.6873C18 27.6852 18 27.6832 18 27.6811C18 27.679 18 27.6769 18 27.6748C18 27.6727 18 27.6706 18 27.6685C18 27.6664 18 27.6643 18 27.6621C18 27.66 18 27.6579 18 27.6557C18 27.6536 18 27.6514 18 27.6492C18 27.6471 18 27.6449 18 27.6427C18 27.6405 18 27.6383 18 27.6361C18 27.6339 18 27.6317 18 27.6295C18 27.6273 18 27.625 18 27.6228C18 27.6205 18 27.6183 18 27.616C18 27.6138 18 27.6115 18 27.6092C18 27.607 18 27.6047 18 27.6024C18 27.6001 18 27.5978 18 27.5955C18 27.5932 18 27.5909 18 27.5886C18 27.5862 18 27.5839 18 27.5816C18 27.5792 18 27.5769 18 27.5745C18 27.5722 18 27.5698 18 27.5674C18 27.565 18 27.5627 18 27.5603C18 27.5579 18 27.5555 18 27.5531C18 27.5507 18 27.5482 18 27.5458C18 27.5434 18 27.541 18 27.5385C18 27.5361 18 27.5336 18 27.5312C18 27.5287 18 27.5262 18 27.5238C18 27.5213 18 27.5188 18 27.5163C18 27.5138 18 27.5113 18 27.5088C18 27.5063 18 27.5038 18 27.5013C18 27.4988 18 27.4962 18 27.4937C18 27.4911 18 27.4886 18 27.486C18 27.4835 18 27.4809 18 27.4783C18 27.4758 18 27.4732 18 27.4706C18 27.468 18 27.4654 18 27.4628C18 27.4602 18 27.4576 18 27.455C18 27.4524 18 27.4498 18 27.4471C18 27.4445 18 27.4418 18 27.4392C18 27.4365 18 27.4339 18 27.4312C18 27.4286 18 27.4259 18 27.4232C18 27.4205 18 27.4178 18 27.4151C18 27.4124 18 27.4097 18 27.407C18 27.4043 18 27.4016 18 27.3989C18 27.3961 18 27.3934 18 27.3907C18 27.3879 18 27.3852 18 27.3824C18 27.3797 18 27.3769 18 27.3741C18 27.3714 18 27.3686 18 27.3658C18 27.363 18 27.3602 18 27.3574C18 27.3546 18 27.3518 18 27.349C18 27.3462 18 27.3433 18 27.3405C18 27.3377 18 27.3348 18 27.332C18 27.3291 18 27.3263 18 27.3234C18 27.3206 18 27.3177 18 27.3148C18 27.312 18 27.3091 18 27.3062C18 27.3033 18 27.3004 18 27.2975C18 27.2946 18 27.2917 18 27.2888C18 27.2858 18 27.2829 18 27.28C18 27.2771 18 27.2741 18 27.2712C18 27.2682 18 27.2653 18 27.2623C18 27.2593 18 27.2564 18 27.2534C18 27.2504 18 27.2474 18 27.2445C18 27.2415 18 27.2385 18 27.2355C18 27.2325 18 27.2295 18 27.2264C18 27.2234 18 27.2204 18 27.2174C18 27.2143 18 27.2113 18 27.2083C18 27.2052 18 27.2022 18 27.1991C18 27.1961 18 27.193 18 27.1899C18 27.1869 18 27.1838 18 27.1807C18 27.1776 18 27.1745 18 27.1714C18 27.1683 18 27.1652 18 27.1621C18 27.159 18 27.1559 18 27.1528C18 27.1496 18 27.1465 18 27.1434C18 27.1402 18 27.1371 18 27.1339C18 27.1308 18 27.1276 18 27.1245C18 27.1213 18 27.1181 18 27.115C18 27.1118 18 27.1086 18 27.1054C18 27.1022 18 27.099 18 27.0958C18 27.0926 18 27.0894 18 27.0862C18 27.083 18 27.0798 18 27.0765C18 27.0733 18 27.0701 18 27.0668C18 27.0636 18 27.0603 18 27.0571C18 27.0538 18 27.0506 18 27.0473C18 27.0441 18 27.0408 18 27.0375C18 27.0342 18 27.0309 18 27.0277C18 27.0244 18 27.0211 18 27.0178C18 27.0145 18 27.0112 18 27.0078C18 27.0045 18 27.0012 18 26.9979C18 26.9946 18 26.9912 18 26.9879C18 26.9846 18 26.9812 18 26.9779C18 26.9745 18 26.9712 18 26.9678C18 26.9644 18 26.9611 18 26.9577C18 26.9543 18 26.9509 18 26.9476C18 26.9442 18 26.9408 18 26.9374C18 26.934 18 26.9306 18 26.9272C18 26.9238 18 26.9203 18 26.9169C18 26.9135 18 26.9101 18 26.9067C18 26.9032 18 26.8998 18 26.8963C18 26.8929 18 26.8894 18 26.886C18 26.8825 18 26.8791 18 26.8756C18 26.8721 18 26.8687 18 26.8652C18 26.8617 18 26.8582 18 26.8548C18 26.8513 18 26.8478 18 26.8443C18 26.8408 18 26.8373 18 26.8338C18 26.8303 18 26.8267 18 26.8232C18 26.8197 18 26.8162 18 26.8126C18 26.8091 18 26.8056 18 26.802C18 26.7985 18 26.7949 18 26.7914C18 26.7878 18 26.7843 18 26.7807C18 26.7772 18 26.7736 18 26.77C18 26.7664 18 26.7629 18 26.7593C18 26.7557 18 26.7521 18 26.7485C18 26.7449 18 26.7413 18 26.7377C18 26.7341 18 26.7305 18 26.7269C18 26.7233 18 26.7196 18 26.716C18 26.7124 18 26.7088 18 26.7051C18 26.7015 18 26.6979 18 26.6942C18 26.6906 18 26.6869 18 26.6833C18 26.6796 18 26.6759 18 26.6723C18 26.6686 18 26.6649 18 26.6613C18 26.6576 18 26.6539 18 26.6502C18 26.6465 18 26.6429 18 26.6392C18 26.6355 18 26.6318 18 26.6281C18 26.6244 18 26.6206 18 26.6169C18 26.6132 18 26.6095 18 26.6058C18 26.6021 18 26.5983 18 26.5946C18 26.5909 18 26.5871 18 26.5834C18 26.5796 18 26.5759 18 26.5722C18 26.5684 18 26.5646 18 26.5609C18 26.5571 18 26.5534 18 26.5496C18 26.5458 18 26.542 18 26.5383C18 26.5345 18 26.5307 18 26.5269C18 26.5231 18 26.5193 18 26.5156C18 26.5118 18 26.508 18 26.5042C18 26.5003 18 26.4965 18 26.4927C18 26.4889 18 26.4851 18 26.4813C18 26.4774 18 26.4736 18 26.4698C18 26.466 18 26.4621 18 26.4583C18 26.4544 18 26.4506 18 26.4468C18 26.4429 18 26.4391 18 26.4352C18 26.4313 18 26.4275 18 26.4236C18 26.4198 18 26.4159 18 26.412C18 26.4081 18 26.4043 18 26.4004C18 26.3965 18 26.3926 18 26.3887C18 26.3848 18 26.381 18 26.3771C18 26.3732 18 26.3693 18 26.3654C18 26.3615 18 26.3575 18 26.3536C18 26.3497 18 26.3458 18 26.3419C18 26.338 18 26.334 18 26.3301C18 26.3262 18 26.3222 18 26.3183C18 26.3144 18 26.3104 18 26.3065C18 26.3026 18 26.2986 18 26.2947C18 26.2907 18 26.2867 18 26.2828C18 26.2788 18 26.2749 18 26.2709C18 26.2669 18 26.263 18 26.259C18 26.255 18 26.251 18 26.2471C18 26.2431 18 26.2391 18 26.2351C18 26.2311 18 26.2271 18 26.2231C18 26.2192 18 26.2152 18 26.2112C18 26.2071 18 26.2031 18 26.1991C18 26.1951 18 26.1911 18 26.1871C18 26.1831 18 26.1791 18 26.175C18 26.171 18 26.167 18 26.163C18 26.1589 18 26.1549 18 26.1509C18 26.1468 18 26.1428 18 26.1388C18 26.1347 18 26.1307 18 26.1266C18 26.1226 18 26.1185 18 26.1145C18 26.1104 18 26.1064 18 26.1023C18 26.0982 18 26.0942 18 26.0901C18 26.086 18 26.082 18 26.0779C18 26.0738 18 26.0697 18 26.0657C18 26.0616 18 26.0575 18 26.0534C18 26.0493 18 26.0452 18 26.0411C18 26.037 18 26.033 18 26.0289C18 26.0248 18 26.0207 18 26.0166C18 26.0125 18 26.0083 18 26.0042C18 26.0001 18 25.996 18 25.9919C18 25.9878 18 25.9837 18 25.9795C18 25.9754 18 25.9713 18 25.9672C18 25.963 18 25.9589 18 25.9548C18 25.9507 18 25.9465 18 25.9424C18 25.9382 18 25.9341 18 25.93C18 25.9258 18 25.9217 18 25.9175C18 25.9134 18 25.9092 18 25.9051C18 25.9009 18 25.8968 18 25.8926C18 25.8884 18 25.8843 18 25.8801C18 25.876 18 25.8718 18 25.8676C18 25.8634 18 25.8593 18 25.8551C18 25.8509 18 25.8468 18 25.8426C18 25.8384 18 25.8342 18 25.83C18 25.8258 18 25.8217 18 25.8175C18 25.8133 18 25.8091 18 25.8049C18 25.8007 18 25.7965 18 25.7923C18 25.7881 18 25.7839 18 25.7797C18 25.7755 18 25.7713 18 25.7671C18 25.7629 18 25.7587 18 25.7545C18 25.7503 18 25.7461 18 25.7418C18 25.7376 18 25.7334 18 25.7292C18 25.725 18 25.7208 18 25.7165C18 25.7123 18 25.7081 18 25.7039C18 25.6996 18 25.6954 18 25.6912C18 25.6869 18 25.6827 18 25.6785C18 25.6742 18 25.67 18 25.6658C18 25.6615 18 25.6573 18 25.653C18 25.6488 18 25.6445 18 25.6403C18 25.636 18 25.6318 18 25.6275C18 25.6233 18 25.619 18 25.6148C18 25.6105 18 25.6063 18 25.602C18 25.5978 18 25.5935 18 25.5892C18 25.585 18 25.5807 18 25.5765C18 25.5722 18 25.5679 18 25.5637C18 25.5594 18 25.5551 18 25.5509C18 25.5466 18 25.5423 18 25.538C18 25.5338 18 25.5295 18 25.5252C18 25.5209 18 25.5167 18 25.5124C18 25.5081 18 25.5038 18 25.4995C18 25.4952 18 25.491 18 25.4867C18 25.4824 18 25.4781 18 25.4738C18 25.4695 18 25.4652 18 25.4609C18 25.4567 18 25.4524 18 25.4481C18 25.4438 18 25.4395 18 25.4352C18 25.4309 18 25.4266 18 25.4223C18 25.418 18 25.4137 18 25.4094C18 25.4051 18 25.4008 18 25.3965C18 25.3922 18 25.3879 18 25.3836C18 25.3793 18 25.3749 18 25.3706C18 25.3663 18 25.362 18 25.3577C18 25.3534 18 25.3491 18 25.3448C18 25.3405 18 25.3361 18 25.3318C18 25.3275 18 25.3232 18 25.3189C18 25.3146 18 25.3103 18 25.3059C18 25.3016 18 25.2973 18 25.293C18 25.2887 18 25.2843 18 25.28C18 25.2757 18 25.2714 18 25.267C18 25.2627 18 25.2584 18 25.2541C18 25.2497 18 25.2454 18 25.2411C18 25.2368 18 25.2324 18 25.2281C18 25.2238 18 25.2194 18 25.2151C18 25.2108 18 25.2065 18 25.2021C18 25.1978 18 25.1935 18 25.1891C18 25.1848 18 25.1805 18 25.1761C18 25.1718 18 25.1675 18 25.1631C18 25.1588 18 25.1545 18 25.1501C18 25.1458 18 25.1415 18 25.1371C18 25.1328 18 25.1284 18 25.1241C18 25.1198 18 25.1154 18 25.1111C18 25.1068 18 25.1024 18 25.0981C18 25.0937 18 25.0894 18 25.0851C18 25.0807 18 25.0764 18 25.072C18 25.0677 18 25.0634 18 25.059C18 25.0547 18 25.0503 18 25.046C18 25.0417 18 25.0373 18 25.033C18 25.0286 18 25.0243 18 25.02C18 25.0156 18 25.0113 18 25.0069C18 25.0026 18 24.9982 18 24.9939C18 24.9896 18 24.9852 18 24.9809C18 24.9765 18 24.9722 18 24.9678C18 24.9635 18 24.9592 18 24.9548C18 24.9505 18 24.9461 18 24.9418C18 24.9375 18 24.9331 18 24.9288C18 24.9244 18 24.9201 18 24.9157C18 24.9114 18 24.9071 18 24.9027C18 24.8984 18 24.894 18 24.8897C18 24.8854 18 24.881 18 24.8767C18 24.8723 18 24.868 18 24.8637C18 24.8593 18 24.855 18 24.8506C18 24.8463 18 24.842 18 24.8376C18 24.8333 18 24.8289 18 24.8246C18 24.8203 18 24.8159 18 24.8116C18 24.8073 18 24.8029 18 24.7986C18 24.7942 18 24.7899 18 24.7856C18 24.7812 18 24.7769 18 24.7726C18 24.7682 18 24.7639 18 24.7596C18 24.7552 18 24.7509 18 24.7466C18 24.7422 18 24.7379 18 24.7336C18 24.7293 18 24.7249 18 24.7206C18 24.7163 18 24.7119 18 24.7076C18 24.7033 18 24.699 18 24.6946C18 24.6903 18 24.686 18 24.6817C18 24.6773 18 24.673 18 24.6687C18 24.6644 18 24.66 18 24.6557C18 24.6514 18 24.6471 18 24.6428C18 24.6384 18 24.6341 18 24.6298C18 24.6255 18 24.6212 18 24.6169C18 24.6125 18 24.6082 18 24.6039C18 24.5996 18 24.5953 18 24.591C18 24.5867 18 24.5823 18 24.578C18 24.5737 18 24.5694 18 24.5651C18 24.5608 18 24.5565 18 24.5522C18 24.5479 18 24.5436 18 24.5393C18 24.535 18 24.5307 18 24.5264C18 24.5221 18 24.5178 18 24.5135C18 24.5092 18 24.5049 18 24.5006C18 24.4963 18 24.492 18 24.4877C18 24.4834 18 24.4791 18 24.4748C18 24.4705 18 24.4663 18 24.462C18 24.4577 18 24.4534 18 24.4491C18 24.4448 18 24.4405 18 24.4363C18 24.432 18 24.4277 18 24.4234C18 24.4191 18 24.4149 18 24.4106C18 24.4063 18 24.402 18 24.3978C18 24.3935 18 24.3892 18 24.385C18 24.3807 18 24.3764 18 24.3722C18 24.3679 18 24.3636 18 24.3594C18 24.3551 18 24.3508 18 24.3466C18 24.3423 18 24.3381 18 24.3338C18 24.3296 18 24.3253 18 24.3211C18 24.3168 18 24.3126 18 24.3083C18 24.3041 18 24.2998 18 24.2956C18 24.2913 18 24.2871 18 24.2828C18 24.2786 18 24.2744 18 24.2701C18 24.2659 18 24.2617 18 24.2574C18 24.2532 18 24.249 18 24.2447C18 24.2405 18 24.2363 18 24.232C18 24.2278 18 24.2236 18 24.2194C18 24.2152 18 24.2109 18 24.2067C18 24.2025 18 24.1983 18 24.1941C18 24.1899 18 24.1857 18 24.1814C18 24.1772 18 24.173 18 24.1688C18 24.1646 18 24.1604 18 24.1562C18 24.152 18 24.1478 18 24.1436C18 24.1394 18 24.1352 18 24.1311C18 24.1269 18 24.1227 18 24.1185C18 24.1143 18 24.1101 18 24.1059C18 24.1018 18 24.0976 18 24.0934C18 24.0892 18 24.0851 18 24.0809C18 24.0767 18 24.0726 18 24.0684C18 24.0642 18 24.0601 18 24.0559C18 24.0517 18 24.0476 18 24.0434C18 24.0393 18 24.0351 18 24.031C18 24.0268 18 24.0227 18 24.0185C18 24.0144 18 24.0102 18 24.0061C18 24.002 18 23.9978 18 23.9937C18 23.9895 18 23.9854 18 23.9813C18 23.9772 18 23.973 18 23.9689C18 23.9648 18 23.9607 18 23.9565C18 23.9524 18 23.9483 18 23.9442C18 23.9401 18 23.936 18 23.9319C18 23.9278 18 23.9237 18 23.9196C18 23.9155 18 23.9114 18 23.9073C18 23.9032 18 23.8991 18 23.895C18 23.8909 18 23.8868 18 23.8827C18 23.8787 18 23.8746 18 23.8705C18 23.8664 18 23.8624 18 23.8583C18 23.8542 18 23.8501 18 23.8461C18 23.842 18 23.838 18 23.8339C18 23.8298 18 23.8258 18 23.8217C18 23.8177 18 23.8136 18 23.8096C18 23.8055 18 23.8015 18 23.7975C18 23.7934 18 23.7894 18 23.7854C18 23.7813 18 23.7773 18 23.7733C18 23.7693 18 23.7652 18 23.7612C18 23.7572 18 23.7532 18 23.7492C18 23.7452 18 23.7412 18 23.7372C18 23.7331 18 23.7291 18 23.7251C18 23.7212 18 23.7172 18 23.7132C18 23.7092 18 23.7052 18 23.7012C18 23.6972 18 23.6932 18 23.6893C18 23.6853 18 23.6813 18 23.6774C18 23.6734 18 23.6694 18 23.6655C18 23.6615 18 23.6575 18 23.6536C18 23.6496 18 23.6457 18 23.6417C18 23.6378 18 23.6338 18 23.6299C18 23.626 18 23.622 18 23.6181C18 23.6142 18 23.6102 18 23.6063C18 23.6024 18 23.5985 18 23.5946C18 23.5906 18 23.5867 18 23.5828C18 23.5789 18 23.575 18 23.5711C18 23.5672 18 23.5633 18 23.5594C18 23.5555 18 23.5517 18 23.5478C18 23.5439 18 23.54 18 23.5361C18 23.5323 18 23.5284 18 23.5245C18 23.5206 18 23.5168 18 23.5129C18 23.5091 18 23.5052 18 23.5014C18 23.4975 18 23.4937 18 23.4898C18 23.486 18 23.4821 18 23.4783C18 23.4745 18 23.4706 18 23.4668C18 23.463 18 23.4592 18 23.4554C18 23.4515 18 23.4477 18 23.4439C18 23.4401 18 23.4363 18 23.4325C18 23.4287 18 23.4249 18 23.4211C18 23.4173 18 23.4135 18 23.4098C18 23.406 18 23.4022 18 23.3984C18 23.3947 18 23.3909 18 23.3871C18 23.3834 18 23.3796 18 23.3758C18 23.3721 18 23.3683 18 23.3646C18 23.3609 18 23.3571 18 23.3534C18 23.3496 18 23.3459 18 23.3422C18 23.3385 18 23.3347 18 23.331C18 23.3273 18 23.3236 18 23.3199C18 23.3162 18 23.3125 18 23.3088C18 23.3051 18 23.3014 18 23.2977C18 23.294 18 23.2903 18 23.2866C18 23.283 18 23.2793 18 23.2756C18 23.2719 18 23.2683 18 23.2646C18 23.261 18 23.2573 18 23.2537C18 23.25 18 23.2464 18 23.2427C18 23.2391 18 23.2355 18 23.2318C18 23.2282 18 23.2246 18 23.221C18 23.2173 18 23.2137 18 23.2101C18 23.2065 18 23.2029 18 23.1993C18 23.1957 18 23.1921 18 23.1885C18 23.1849 18 23.1813 18 23.1778C18 23.1742 18 23.1706 18 23.1671C18 23.1635 18 23.1599 18 23.1564C18 23.1528 18 23.1493 18 23.1457C18 23.1422 18 23.1386 18 23.1351C18 23.1316 18 23.128 18 23.1245C18 23.121 18 23.1175 18 23.1139C18 23.1104 18 23.1069 18 23.1034C18 23.0999 18 23.0964 18 23.0929C18 23.0894 18 23.0859 18 23.0825C18 23.079 18 23.0755 18 23.072C18 23.0686 18 23.0651 18 23.0616C18 23.0582 18 23.0547 18 23.0513C18 23.0478 18 23.0444 18 23.041C18 23.0375 18 23.0341 18 23.0307C18 23.0272 18 23.0238 18 23.0204C18 23.017 18 23.0136 18 23.0102C18 23.0068 18 23.0034 18 23H15ZM16.5 24.5H23V21.5H16.5V24.5ZM16.5 17.6111H14V20.6111H16.5V17.6111ZM16.5 21.5H14V24.5H16.5V21.5ZM23 15.5556C23 16.6908 22.0797 17.6111 20.9444 17.6111V20.6111C23.7365 20.6111 26 18.3477 26 15.5556H23ZM20.9444 13.5C22.0797 13.5 23 14.4203 23 15.5556H26C26 12.7634 23.7365 10.5 20.9444 10.5V13.5ZM17.2273 10.5C15.9972 10.5 15 11.4972 15 12.7273H18C18 13.154 17.654 13.5 17.2273 13.5V10.5Z"
              fill="white"/>
    </g>
    <defs>
        <filter id="filter0_d" x="0" y="0" width="39" height="39" filterUnits="userSpaceOnUse"
                color-interpolation-filters="sRGB">
            <feFlood flood-opacity="0" result="BackgroundImageFix"/>
            <feColorMatrix in="SourceAlpha" type="matrix" values="0 0 0 0 0 0 0 0 0 0 0 0 0 0 0 0 0 0 127 0"/>
            <feOffset/>
            <feGaussianBlur stdDeviation="2"/>
            <feColorMatrix type="matrix" values="0 0 0 0 0 0 0 0 0 0 0 0 0 0 0 0 0 0 0.25 0"/>
            <feBlend mode="normal" in2="BackgroundImageFix" result="effect1_dropShadow"/>
            <feBlend mode="normal" in="SourceGraphic" in2="effect1_dropShadow" result="shape"/>
        </filter>
    </defs>
</svg>
