<svg width="23" height="23" viewBox="0 0 23 23" fill="none" xmlns="http://www.w3.org/2000/svg">
    <path d="M13 2C13 1.17157 12.3284 0.5 11.5 0.5C10.6716 0.5 10 1.17157 10 2H13ZM10 21C10 21.8284 10.6716 22.5 11.5 22.5C12.3284 22.5 13 21.8284 13 21H10ZM10 2V21H13V2H10Z"
          fill="#F2F2F2"/>
    <path d="M2 10C1.17157 10 0.5 10.6716 0.5 11.5C0.5 12.3284 1.17157 13 2 13V10ZM21 13C21.8284 13 22.5 12.3284 22.5 11.5C22.5 10.6716 21.8284 10 21 10V13ZM2 13L21 13V10L2 10V13Z"
          fill="#F2F2F2"/>
</svg>
